{"glyphs":{"0":{"ha":739,"x_min":71,"x_max":669,"o":"m 374 791 q 302 739 332 791 q 260 603 273 687 q 247 410 247 519 q 284 153 247 253 q 374 53 321 53 q 430 84 406 53 q 467 170 453 115 q 486 293 480 225 q 492 445 492 361 q 461 698 492 606 q 374 791 430 791 m 373 848 q 488 819 434 848 q 582 737 542 790 q 645 602 622 684 q 669 422 669 521 q 629 208 669 306 q 521 53 589 110 q 373 -4 453 -4 q 257 25 311 -4 q 161 107 202 54 q 95 241 119 160 q 71 422 71 323 q 112 636 71 537 q 223 791 153 734 q 373 848 293 848 z "},"1":{"ha":739,"x_min":159,"x_max":581,"o":"m 302 197 l 302 654 q 297 712 302 698 q 274 726 291 726 q 230 715 263 726 q 176 694 196 705 q 164 706 169 699 q 159 720 159 713 q 161 736 159 736 q 307 800 227 764 q 428 853 386 835 q 472 872 471 872 l 475 872 q 485 863 480 872 q 491 846 490 854 q 479 719 479 807 l 479 197 q 490 69 479 96 q 576 45 496 51 q 581 19 581 37 q 576 -5 581 1 q 391 4 484 4 q 205 -5 297 4 q 200 19 201 1 q 205 45 200 37 q 292 69 285 51 q 302 197 302 96 z "},"2":{"ha":739,"x_min":76,"x_max":663,"o":"m 663 260 q 645 196 658 239 q 620 116 632 153 q 596 42 608 79 q 582 0 583 5 l 88 0 q 76 24 79 9 q 146 101 88 38 q 225 188 205 164 q 284 263 245 211 q 358 368 324 315 q 437 609 437 492 q 393 720 437 674 q 292 765 349 765 q 241 756 265 765 q 198 734 216 748 q 168 707 180 720 q 146 682 156 695 q 136 669 136 669 q 118 678 129 669 q 107 701 107 688 q 139 750 117 724 q 194 805 160 777 q 276 852 227 833 q 378 871 325 871 q 547 810 480 871 q 614 643 614 749 q 511 407 614 528 q 256 138 369 241 l 490 138 q 513 141 502 138 q 532 146 524 143 q 549 156 541 149 q 563 166 557 162 q 576 181 569 171 q 586 195 583 191 q 596 212 590 200 q 603 228 602 223 q 610 244 605 232 q 617 259 616 256 q 636 269 621 269 q 663 260 653 269 z "},"3":{"ha":739,"x_min":90,"x_max":650,"o":"m 391 871 q 437 866 412 871 q 491 849 462 861 q 542 817 519 836 q 580 767 565 798 q 595 697 595 736 q 578 622 595 657 q 534 563 560 586 q 486 525 507 539 q 448 505 465 511 q 486 498 464 504 q 537 477 507 492 q 591 441 567 463 q 633 382 616 419 q 650 298 650 345 q 617 170 650 229 q 533 73 585 111 q 417 13 481 35 q 288 -8 353 -8 q 179 7 227 -8 q 106 42 130 22 q 94 70 99 50 q 90 100 90 89 q 109 150 90 127 q 160 172 127 172 q 172 171 166 172 q 183 167 178 170 q 194 162 189 164 q 204 154 198 159 q 214 146 210 149 q 223 136 217 143 q 231 127 229 129 q 240 117 233 125 q 247 109 246 109 q 342 49 298 49 q 437 99 404 49 q 469 241 469 149 q 429 379 469 321 q 323 437 389 437 q 247 425 292 437 q 236 457 236 438 l 236 469 q 287 481 262 474 q 340 501 312 488 q 389 530 368 514 q 423 570 410 546 q 437 621 437 593 q 402 728 437 686 q 309 770 368 770 q 219 744 262 770 q 160 700 176 718 q 149 715 153 702 q 144 738 144 728 q 251 832 186 794 q 391 871 315 871 z "},"4":{"ha":739,"x_min":65,"x_max":675,"o":"m 559 873 q 580 860 566 873 q 594 836 594 846 l 594 328 l 656 328 q 670 311 664 328 q 675 264 675 293 q 672 249 675 256 q 665 239 669 241 l 662 236 l 594 236 l 594 5 q 502 -7 559 -7 q 423 11 423 -7 l 423 236 l 79 236 q 65 270 65 243 q 311 577 153 379 q 532 854 468 775 q 559 873 548 873 m 423 632 l 182 328 l 423 328 l 423 632 z "},"5":{"ha":739,"x_min":92,"x_max":647,"o":"m 376 574 q 504 538 441 574 q 607 442 567 503 q 647 312 647 381 q 616 182 647 243 q 534 80 585 121 q 420 15 484 39 q 292 -8 357 -8 q 182 7 231 -8 q 109 42 132 23 q 97 70 102 50 q 92 100 92 89 q 111 150 92 127 q 163 172 130 172 q 175 171 169 172 q 186 167 180 170 q 196 162 192 164 q 207 154 201 159 q 216 146 213 149 q 226 136 220 143 q 234 127 232 129 q 242 117 236 125 q 250 109 249 109 q 346 49 300 49 q 441 99 408 49 q 473 241 473 149 q 442 348 473 300 q 369 420 411 396 q 286 445 326 445 q 161 426 209 445 q 152 436 156 426 q 148 453 148 446 q 165 542 149 455 q 200 730 182 629 q 224 861 219 831 l 465 861 q 590 876 520 861 q 593 875 591 876 q 597 873 596 874 q 601 871 599 873 q 605 868 604 870 q 607 864 606 867 q 608 857 608 861 q 588 795 608 842 q 557 727 568 747 q 354 716 473 719 q 263 715 311 715 l 232 556 q 376 574 305 574 z "},"6":{"ha":739,"x_min":88,"x_max":651,"o":"m 275 444 q 266 300 266 377 q 272 212 266 254 q 290 132 277 170 q 326 72 302 94 q 380 49 349 49 q 447 103 420 49 q 473 247 473 157 q 461 356 473 309 q 419 437 450 404 q 343 469 389 469 q 308 463 328 469 q 275 444 288 456 m 403 549 q 497 535 454 549 q 576 489 541 520 q 631 405 611 458 q 651 281 651 352 q 610 136 651 203 q 502 31 568 69 q 365 -8 436 -8 q 227 39 291 -8 q 125 164 162 86 q 88 328 88 241 q 133 527 88 433 q 245 693 178 622 q 367 792 300 751 q 487 850 434 833 q 593 875 541 868 q 602 840 607 864 q 292 515 363 741 q 403 549 351 549 z "},"7":{"ha":739,"x_min":79,"x_max":661,"o":"m 529 864 q 578 865 550 864 q 628 868 607 867 q 651 869 649 869 q 661 849 661 869 q 659 841 661 846 q 653 827 657 836 q 646 812 650 819 q 636 790 643 804 q 624 766 629 777 l 255 -11 q 232 -15 250 -15 q 195 -7 217 -15 q 172 18 172 1 q 336 307 216 79 q 548 727 456 534 l 235 727 q 192 718 210 727 q 162 688 174 708 q 143 654 149 668 q 127 613 136 640 q 111 605 125 606 q 79 616 92 603 q 138 863 105 715 l 529 864 z "},"8":{"ha":739,"x_min":85,"x_max":654,"o":"m 374 49 q 449 80 422 49 q 476 160 476 112 q 464 220 476 190 q 436 271 451 250 q 395 316 420 292 q 358 349 370 340 q 326 373 346 358 q 313 380 317 380 q 307 378 307 380 q 263 212 263 325 q 274 135 263 170 q 310 74 284 100 q 374 49 336 49 m 363 803 q 304 772 327 803 q 281 694 281 741 q 294 631 281 662 q 327 580 307 601 q 365 545 347 559 q 397 524 382 532 q 414 517 408 517 q 422 521 418 517 q 450 659 450 564 q 442 724 450 692 q 413 779 433 755 q 363 803 392 803 m 242 834 q 272 846 242 834 q 366 859 302 859 q 487 837 431 859 q 582 770 544 816 q 620 663 620 725 q 576 555 620 603 q 469 480 533 507 q 467 477 467 479 q 469 473 467 475 q 508 448 488 463 q 556 409 528 433 q 604 357 583 384 q 639 296 625 331 q 654 227 654 261 q 611 102 654 157 q 503 20 568 47 q 363 -8 437 -8 q 262 3 309 -8 q 174 38 214 14 q 109 106 133 62 q 85 208 85 149 q 137 340 85 286 q 259 415 189 394 q 256 422 263 417 q 237 438 252 426 q 213 458 222 451 q 188 481 203 466 q 163 508 173 496 q 141 538 153 520 q 122 574 130 557 q 111 614 115 591 q 106 659 106 636 q 144 763 106 717 q 242 834 183 810 z "},"9":{"ha":739,"x_min":88,"x_max":651,"o":"m 464 423 q 473 567 473 469 q 468 655 473 613 q 449 734 462 696 q 414 795 437 772 q 359 818 391 818 q 292 764 319 818 q 266 620 266 709 q 278 510 266 558 q 320 430 290 463 q 396 397 350 397 q 431 404 411 397 q 464 423 451 410 m 137 27 q 448 351 376 126 q 336 317 389 317 q 242 332 285 317 q 163 377 199 347 q 108 461 128 408 q 88 586 88 515 q 130 730 88 663 q 237 836 171 798 q 374 875 303 875 q 513 828 448 875 q 614 703 577 781 q 651 538 651 625 q 606 339 651 434 q 494 174 562 245 q 372 75 439 116 q 252 16 305 34 q 146 -8 199 -1 q 137 27 132 3 z "}," ":{"ha":407,"x_min":0,"x_max":0,"o":""},"!":{"ha":366,"x_min":-58,"x_max":276,"o":"m 64 90 q 82 159 57 130 q 149 189 106 189 q 226 158 191 189 q 269 85 261 127 q 252 15 276 45 q 186 -15 227 -15 q 107 16 143 -15 q 64 90 72 46 m 23 932 q 86 907 57 932 q 123 840 116 882 q 143 604 128 812 q 161 300 153 443 q 139 265 163 265 q 101 301 111 265 q 16 589 53 456 q -51 841 -42 793 q -37 907 -58 883 q 23 932 -15 932 z "},"\"":{"ha":449,"x_min":49,"x_max":392,"o":"m 350 949 q 392 928 376 949 q 384 786 392 893 q 369 616 376 680 q 336 585 358 597 q 323 595 327 585 q 266 837 266 789 q 290 912 266 875 q 350 949 314 949 m 133 949 q 175 928 159 949 q 167 786 175 893 q 152 616 159 680 q 119 585 141 597 q 106 595 110 585 q 49 837 49 789 q 73 912 49 875 q 133 949 97 949 z "},"#":{"ha":644,"x_min":62,"x_max":579,"o":"m 553 460 q 107 460 553 460 q 102 482 100 463 q 112 525 103 501 q 129 551 121 548 l 571 551 q 579 529 579 547 q 570 487 578 510 q 553 460 562 464 m 515 201 l 69 201 q 64 223 62 204 q 75 266 66 242 q 92 292 84 289 l 534 292 q 542 270 543 288 q 532 228 541 251 q 515 201 524 205 m 514 716 l 407 49 q 392 38 406 44 q 365 31 379 31 q 355 33 359 31 q 351 35 351 34 l 350 37 l 457 703 q 496 720 463 720 q 514 716 508 720 m 296 716 l 187 49 q 173 38 186 44 q 146 31 160 31 q 137 33 140 31 q 132 35 133 34 l 132 37 l 239 703 q 278 720 245 720 q 296 716 290 720 z "},"$":{"ha":703,"x_min":73,"x_max":635,"o":"m 391 906 q 444 895 444 906 l 438 863 q 467 857 454 860 q 523 845 487 853 q 578 833 559 837 q 591 617 583 781 q 578 610 586 610 q 538 618 541 610 q 521 680 534 648 q 486 744 507 713 q 433 795 465 775 q 428 798 431 797 l 384 530 q 444 490 411 511 q 476 470 455 482 q 510 449 498 457 q 542 428 523 441 q 572 402 561 414 q 597 371 583 390 q 617 332 610 352 q 630 285 625 313 q 635 227 635 258 q 593 102 635 158 q 488 16 552 46 q 351 -14 423 -14 q 296 -12 326 -14 l 289 -54 q 255 -51 274 -54 q 236 -42 236 -48 l 242 -5 q 104 20 180 3 q 86 132 96 58 q 73 241 76 205 q 91 253 77 247 q 111 259 105 259 q 127 248 125 259 q 150 186 132 220 q 193 118 167 151 q 254 66 218 87 l 302 363 q 273 382 278 379 q 172 453 194 435 q 85 597 97 516 q 83 635 83 615 q 124 754 83 699 q 229 839 165 809 q 359 869 292 869 q 385 869 372 869 l 391 906 m 351 330 l 305 44 q 338 41 321 41 q 378 46 359 41 q 418 65 398 52 q 451 104 439 78 q 464 168 464 131 q 453 217 464 193 q 430 258 443 241 q 392 297 417 275 q 353 329 366 319 q 351 330 352 329 m 336 570 l 376 814 q 366 815 371 815 q 288 788 321 815 q 255 703 255 762 q 336 570 255 642 z "},"%":{"ha":930,"x_min":53,"x_max":880,"o":"m 254 829 q 215 815 230 829 q 193 777 199 802 q 184 730 186 752 q 182 678 182 708 q 191 596 182 635 q 222 528 200 557 q 275 499 244 499 q 315 512 299 499 q 337 550 330 526 q 346 596 344 574 q 349 647 349 618 q 339 730 349 690 q 307 799 330 770 q 254 829 285 829 m 264 869 q 417 812 357 869 q 477 667 477 754 q 416 519 477 581 q 266 457 355 457 q 113 515 172 457 q 53 661 53 574 q 114 808 53 747 q 264 869 176 869 m 656 372 q 617 358 633 372 q 595 320 602 345 q 587 273 589 295 q 585 221 585 251 q 594 139 585 178 q 625 71 603 100 q 678 42 647 42 q 718 55 702 42 q 740 93 733 68 q 749 139 747 117 q 751 190 751 161 q 742 273 751 233 q 710 342 732 313 q 656 372 688 372 m 667 412 q 820 355 760 412 q 880 210 880 297 q 819 62 880 124 q 669 0 758 0 q 515 58 575 0 q 456 203 456 117 q 517 351 456 290 q 667 412 578 412 m 845 861 l 145 -7 q 123 -20 140 -14 q 90 -27 106 -27 q 76 -23 81 -27 q 70 -15 71 -19 l 69 -11 l 769 857 q 823 875 789 875 q 839 871 832 875 q 845 861 845 867 z "},"&":{"ha":1097,"x_min":-14,"x_max":1090,"o":"m 608 727 q 694 696 657 727 q 731 618 731 665 q 708 531 731 572 q 644 460 685 490 q 559 407 604 430 q 459 366 514 383 q 363 339 404 349 q 339 332 351 336 q 404 137 340 212 q 575 61 469 61 q 697 84 640 61 q 793 154 755 107 q 831 260 831 200 q 826 294 831 277 q 815 317 821 311 q 703 269 730 286 q 655 202 655 239 q 658 164 655 191 q 643 167 654 162 q 625 178 633 172 q 623 182 625 178 q 618 189 620 186 q 614 197 617 191 q 610 208 612 203 q 608 222 609 214 q 606 239 606 230 q 608 270 606 256 q 615 296 610 283 q 625 318 621 309 q 641 338 629 327 q 660 355 652 349 q 684 373 667 361 q 711 390 701 384 q 744 410 721 396 q 781 431 768 423 q 839 468 815 452 q 893 514 863 485 q 942 572 924 543 q 974 646 961 602 q 987 741 987 690 q 1021 732 1002 742 q 1069 671 1048 712 q 1090 585 1090 629 q 906 353 1090 442 q 917 301 917 328 q 884 175 917 234 q 797 77 850 117 q 674 16 743 38 q 533 -7 605 -7 q 428 5 480 -7 q 328 42 375 17 q 244 101 280 66 q 186 184 208 136 q 164 288 165 233 q 111 268 126 276 q 71 210 71 246 q 77 184 71 195 q 99 160 83 174 q 126 107 126 135 q 105 54 126 75 q 53 34 84 34 q 9 41 32 34 q -14 133 -14 79 q 31 260 -14 206 q 157 342 75 314 q 169 345 162 343 q 199 444 177 394 q 294 585 235 523 q 436 687 353 648 q 608 727 519 727 m 342 395 q 382 411 361 401 q 458 453 427 431 q 509 512 488 475 q 530 593 530 549 q 515 638 530 621 q 480 655 500 655 q 404 605 437 655 q 355 483 370 555 q 342 395 345 439 z "},"'":{"ha":245,"x_min":45,"x_max":195,"o":"m 144 964 q 195 935 181 964 q 164 637 178 718 q 129 612 153 621 q 113 620 119 612 q 98 659 109 629 q 81 701 86 688 q 68 740 77 714 q 55 781 59 765 q 48 815 52 796 q 45 850 45 835 q 73 930 45 897 q 144 964 102 964 z "},"(":{"ha":637,"x_min":184,"x_max":601,"o":"m 359 232 q 486 -334 359 -82 q 601 -500 545 -451 l 585 -537 q 374 -352 471 -476 q 184 232 184 -109 q 374 814 184 572 q 585 1000 471 939 l 601 962 q 486 797 545 913 q 359 232 359 545 z "},")":{"ha":637,"x_min":37,"x_max":453,"o":"m 278 232 q 151 797 278 545 q 37 962 92 913 l 53 1000 q 264 814 167 939 q 453 232 453 572 q 264 -352 453 -109 q 53 -537 167 -476 l 37 -500 q 151 -334 92 -451 q 278 232 278 -82 z "},"*":{"ha":598,"x_min":43,"x_max":545,"o":"m 390 838 q 440 863 410 861 q 484 849 469 865 q 502 806 501 831 q 482 755 503 781 q 439 725 464 734 q 390 708 414 715 q 351 686 366 701 q 341 669 341 675 q 352 658 341 662 q 419 647 374 648 q 496 632 465 646 q 534 593 524 621 q 535 545 545 566 q 500 515 524 524 q 446 518 475 507 q 410 542 425 527 q 387 570 395 557 q 366 598 379 584 q 338 621 353 613 q 335 623 337 622 q 327 626 332 624 q 319 625 321 628 q 314 614 315 623 q 324 547 311 590 q 333 471 336 505 q 308 423 330 441 q 264 407 286 405 q 223 432 239 411 q 210 483 207 453 q 242 556 213 518 q 275 617 271 594 q 272 636 276 631 q 260 637 271 640 q 199 607 236 632 q 128 575 161 583 q 75 584 98 568 q 47 621 52 599 q 58 667 43 646 q 102 696 73 689 q 155 695 130 702 q 205 681 180 689 q 250 675 229 673 q 268 684 267 677 q 262 699 269 688 q 215 747 250 720 q 162 804 180 774 q 154 859 147 833 q 181 897 161 886 q 227 900 201 908 q 269 867 254 892 q 285 816 283 842 q 286 764 287 789 q 295 720 286 739 q 309 705 302 707 q 321 711 315 705 q 353 771 338 729 q 390 838 368 813 z "},"+":{"ha":735,"x_min":42,"x_max":693,"o":"m 327 643 q 355 654 336 650 q 384 658 374 658 q 406 646 406 658 l 404 373 l 681 373 q 690 367 686 373 q 693 354 693 361 q 674 294 693 318 l 406 294 l 406 26 q 342 11 383 11 q 331 14 336 11 q 327 22 327 18 l 327 294 l 50 294 q 42 316 42 294 q 56 373 42 353 l 326 373 l 327 643 z "},",":{"ha":290,"x_min":-41,"x_max":174,"o":"m -41 -140 q -9 -115 -29 -132 q 35 -64 11 -98 q 60 0 60 -30 q 52 24 60 13 q 36 41 45 35 q 20 61 27 47 q 12 92 12 75 q 46 157 12 131 q 126 183 81 183 q 151 178 138 183 q 170 167 164 173 q 174 137 174 157 q 134 -14 174 59 q 71 -99 104 -68 q -19 -167 38 -130 q -34 -157 -28 -165 q -41 -140 -41 -149 z "},"-":{"ha":495,"x_min":65,"x_max":414,"o":"m 98 362 l 406 378 q 414 362 414 378 q 401 312 414 347 q 378 277 388 277 l 72 262 q 65 282 65 262 q 76 329 65 296 q 98 362 87 361 z "},".":{"ha":294,"x_min":3,"x_max":188,"o":"m 23 14 q 13 29 23 14 q 10 81 3 43 q 48 146 18 119 q 113 172 78 172 q 168 145 148 172 q 181 81 188 119 q 144 14 174 43 q 79 -15 115 -15 q 23 14 43 -15 z "},"/":{"ha":479,"x_min":20,"x_max":463,"o":"m 437 988 q 463 977 460 988 l 112 -253 q 92 -272 109 -263 q 44 -281 75 -281 q 29 -279 35 -281 q 22 -274 23 -277 l 20 -272 l 370 958 q 393 979 376 969 q 437 988 410 988 z "},":":{"ha":355,"x_min":76,"x_max":279,"o":"m 76 486 q 106 555 76 526 q 178 585 136 585 q 250 554 220 585 q 279 481 279 523 q 250 411 279 441 q 179 381 220 381 q 106 412 136 381 q 76 486 76 442 m 76 90 q 106 159 76 130 q 178 189 136 189 q 250 158 220 189 q 279 85 279 127 q 250 15 279 45 q 179 -15 220 -15 q 106 16 136 -15 q 76 90 76 46 z "},";":{"ha":345,"x_min":53,"x_max":267,"o":"m 189 189 q 248 167 218 189 q 267 79 267 132 q 212 -94 267 -14 q 81 -213 157 -175 q 62 -199 71 -210 q 53 -180 53 -187 q 116 -121 83 -161 q 149 -37 149 -80 q 142 -15 149 -24 q 126 3 136 -5 q 107 21 117 12 q 91 50 98 31 q 84 92 84 68 q 89 117 84 102 q 104 148 94 131 q 137 177 115 165 q 189 189 159 189 m 66 487 q 97 557 66 528 q 170 586 127 586 q 238 557 210 586 q 266 487 266 528 q 238 413 266 445 q 170 381 210 381 q 97 413 127 381 q 66 487 66 446 z "},"<":{"ha":671,"x_min":41,"x_max":602,"o":"m 602 61 q 594 15 602 51 q 581 -20 586 -20 q 574 -18 579 -20 l 65 240 q 41 294 41 253 q 65 327 41 315 l 571 581 q 578 583 576 583 q 601 506 586 583 q 601 499 602 503 q 598 495 600 496 l 597 494 l 165 283 l 598 69 q 602 61 602 68 z "},"=":{"ha":758,"x_min":89,"x_max":672,"o":"m 646 182 q 96 182 646 182 q 90 201 89 184 q 100 238 91 218 q 117 262 109 258 l 664 262 q 672 243 672 259 q 663 207 671 227 q 646 182 655 186 m 646 377 l 96 377 q 90 396 89 380 q 100 433 91 413 q 117 457 109 454 l 664 457 q 672 438 672 454 q 663 402 671 422 q 646 377 655 382 z "},">":{"ha":671,"x_min":69,"x_max":631,"o":"m 69 61 q 71 66 69 64 q 72 68 71 68 l 73 69 l 506 283 l 75 494 q 73 495 74 494 q 71 499 73 496 q 71 506 70 503 q 94 583 85 583 q 100 581 95 583 l 606 327 q 631 294 631 315 q 606 240 631 253 l 98 -18 q 91 -20 92 -20 q 77 15 85 -20 q 69 61 69 51 z "},"?":{"ha":541,"x_min":73,"x_max":495,"o":"m 91 90 q 120 160 91 132 q 189 189 149 189 q 261 160 231 189 q 290 90 290 131 q 262 16 290 47 q 194 -15 234 -15 q 123 15 155 -15 q 91 90 91 45 m 157 703 q 97 730 120 703 q 73 792 73 757 q 80 829 73 809 q 94 854 86 848 q 216 878 134 878 q 269 871 237 878 q 340 847 300 865 q 414 805 380 830 q 472 736 448 779 q 495 639 495 692 q 490 597 495 617 q 479 562 486 577 q 459 531 473 547 q 437 506 446 515 q 409 483 428 496 q 382 464 391 469 q 352 446 373 458 q 324 429 330 433 q 296 411 317 424 q 263 391 275 399 q 236 371 251 384 q 213 347 221 359 q 209 338 210 343 q 207 325 207 332 q 206 313 206 318 q 206 300 205 307 q 206 290 206 292 q 197 275 204 283 q 186 266 191 266 q 155 282 171 266 q 136 342 145 303 q 127 418 127 381 q 137 470 127 446 q 164 513 146 494 q 198 545 182 532 q 236 572 213 557 q 380 722 380 667 q 360 766 380 746 q 307 787 340 787 q 271 773 290 787 q 235 745 251 760 q 198 716 219 729 q 157 703 176 703 z "},"@":{"ha":1040,"x_min":62,"x_max":993,"o":"m 605 784 q 777 753 702 784 q 899 668 852 722 q 969 544 945 614 q 993 393 993 474 q 951 198 993 292 q 840 47 910 104 q 693 -9 770 -9 q 599 20 638 -9 q 560 107 560 49 q 566 146 560 132 q 484 45 540 97 q 373 -7 428 -7 q 323 0 345 -7 q 282 25 301 7 q 252 77 262 42 q 241 163 241 112 q 305 362 241 259 q 466 533 368 465 q 658 601 564 601 q 741 595 694 601 q 806 583 787 590 l 730 172 q 726 138 726 156 q 725 129 726 137 q 725 117 725 121 q 726 105 726 113 q 729 93 727 98 q 734 84 731 89 q 744 77 738 79 q 757 75 749 75 q 813 100 783 75 q 870 165 844 125 q 915 264 897 205 q 933 384 933 323 q 915 516 933 455 q 858 625 896 576 q 755 702 820 674 q 605 730 690 730 q 474 709 538 730 q 358 653 410 688 q 263 569 307 617 q 190 465 219 520 q 144 349 160 410 q 127 231 127 289 q 180 30 127 118 q 311 -104 232 -58 q 415 -141 358 -132 q 396 -159 415 -149 q 361 -168 377 -168 q 300 -156 332 -168 q 132 -16 201 -119 q 62 224 62 87 q 88 384 62 303 q 163 536 114 465 q 278 663 212 608 q 428 751 343 719 q 605 784 513 784 m 601 528 q 502 478 547 528 q 432 354 456 429 q 408 201 408 279 q 423 146 408 165 q 463 127 438 127 q 546 194 506 127 q 609 372 587 261 l 636 510 q 620 524 627 521 q 601 528 614 528 z "},"A":{"ha":841,"x_min":-85,"x_max":795,"o":"m 83 182 l 482 846 q 510 880 492 861 q 538 898 528 898 q 553 895 546 898 q 562 888 561 892 l 688 201 q 698 146 693 178 q 705 103 703 115 q 721 71 709 84 q 750 53 734 58 q 776 46 766 48 q 793 45 785 45 q 792 17 795 36 q 785 -5 789 -1 q 712 0 773 -5 q 618 5 650 5 q 556 3 592 5 q 479 -2 520 1 q 425 -5 437 -5 q 426 22 421 -1 q 436 45 431 45 q 477 51 454 45 q 515 69 500 58 q 531 92 529 79 q 523 149 532 98 q 505 250 514 201 l 494 298 q 488 304 492 304 q 367 305 464 305 q 235 304 280 305 q 224 297 228 304 q 157 183 178 221 q 112 91 114 107 q 121 69 110 79 q 150 54 133 59 q 181 47 168 50 q 200 45 195 45 q 200 19 204 38 q 191 -5 195 -1 q 56 5 104 5 q -82 -5 7 5 q -83 15 -85 -2 q -75 43 -81 33 q -25 58 -61 43 q 21 87 10 72 q 83 182 46 120 m 428 646 l 268 380 q 271 374 268 374 q 374 370 307 370 q 475 373 436 370 q 478 374 477 373 q 480 378 479 377 l 481 380 l 428 646 z "},"B":{"ha":799,"x_min":-14,"x_max":760,"o":"m 355 503 l 420 503 q 506 545 469 503 q 559 661 544 586 q 490 841 593 841 q 423 825 433 841 q 418 814 420 820 q 414 799 416 808 q 410 784 412 790 q 406 764 409 779 q 401 742 403 749 l 355 503 m 345 450 l 286 148 q 281 69 275 82 q 357 53 288 53 q 405 63 380 53 q 453 93 429 73 q 497 151 477 113 q 526 239 517 189 q 533 315 536 277 q 520 383 531 353 q 481 432 509 413 q 410 450 452 450 l 345 450 m 537 895 q 607 888 574 895 q 671 865 640 881 q 722 824 703 849 q 751 764 742 800 q 750 681 760 728 q 720 609 743 643 q 669 552 697 575 q 618 516 641 530 q 578 496 595 503 q 570 488 570 492 q 612 475 589 486 q 660 445 635 465 q 702 399 684 425 q 728 337 720 374 q 728 260 736 300 q 668 137 715 195 q 553 41 621 79 q 463 8 514 18 q 378 -4 412 -3 q 282 -4 345 -5 l -11 -4 q -11 21 -14 2 q -1 46 -7 39 q 84 69 75 52 q 118 197 100 97 l 216 696 q 220 719 217 703 q 224 742 223 736 q 228 762 226 749 q 231 781 230 774 q 232 796 231 787 q 232 811 233 805 q 231 823 232 818 q 153 845 228 839 q 155 870 151 852 q 164 895 159 889 q 343 891 220 891 q 432 893 367 891 q 537 895 498 895 z "},"C":{"ha":876,"x_min":71,"x_max":865,"o":"m 601 846 q 473 810 534 846 q 367 712 412 774 q 293 559 321 650 q 266 363 266 468 q 272 283 266 323 q 296 199 279 242 q 337 124 313 157 q 403 71 362 92 q 495 50 444 50 q 658 109 588 50 q 715 172 686 132 q 760 240 745 213 q 779 277 775 267 q 821 260 806 277 q 779 152 817 243 q 728 54 741 61 q 606 6 669 22 q 457 -9 542 -9 q 316 13 380 -9 q 207 73 251 35 q 131 161 162 111 q 85 264 100 210 q 71 374 71 319 q 102 559 71 473 q 188 708 134 646 q 310 815 241 770 q 454 883 379 861 q 601 905 528 905 q 865 865 692 905 q 858 768 865 854 q 848 670 850 682 q 838 657 846 663 q 818 651 829 651 q 802 656 806 651 q 795 696 801 675 q 775 746 790 718 q 740 795 761 773 q 683 831 719 817 q 601 846 646 846 z "},"D":{"ha":977,"x_min":-14,"x_max":958,"o":"m 401 742 l 294 191 q 283 84 279 103 q 309 62 286 71 q 357 53 331 53 q 602 141 513 53 q 730 426 691 229 q 701 731 768 621 q 490 841 633 841 q 423 825 433 841 q 418 814 420 820 q 414 799 416 808 q 410 784 412 790 q 406 764 409 779 q 401 742 403 749 m 537 895 q 780 837 682 895 q 918 673 879 779 q 930 430 958 568 q 873 263 913 337 q 780 140 833 189 q 656 58 726 90 q 512 11 587 25 q 353 -4 437 -4 l -11 -4 q -11 21 -14 2 q -1 46 -7 39 q 84 69 75 52 q 118 197 100 97 l 216 696 q 220 719 217 703 q 224 742 223 736 q 228 762 226 749 q 231 781 230 774 q 232 796 231 787 q 232 811 233 805 q 231 823 232 818 q 153 845 228 839 q 155 870 151 852 q 164 895 159 889 q 343 891 220 891 q 443 893 374 891 q 537 895 513 895 z "},"E":{"ha":776,"x_min":-14,"x_max":755,"o":"m 343 891 q 553 896 374 891 q 755 901 732 900 q 753 700 753 855 q 722 693 746 693 q 704 704 706 693 q 692 758 699 736 q 674 800 686 779 q 642 831 662 821 q 594 841 622 841 l 490 841 q 423 825 433 841 q 418 814 420 820 q 414 799 416 808 q 410 784 412 790 q 406 764 409 779 q 401 742 403 749 l 354 499 q 360 492 353 495 q 380 486 368 488 q 406 484 392 484 l 472 484 q 552 502 528 484 q 602 579 576 519 q 618 590 606 590 q 642 583 637 590 l 591 323 q 567 317 586 317 q 552 328 552 317 q 524 411 549 398 q 430 420 505 420 q 335 401 338 420 l 294 191 q 283 84 279 103 q 309 64 286 71 q 359 57 332 57 l 444 57 q 570 102 519 57 q 662 231 610 137 q 682 239 666 239 q 704 236 692 239 q 718 231 715 233 q 694 186 715 226 q 666 132 673 146 q 644 86 659 117 q 620 35 629 56 q 605 -3 611 14 q 163 -3 333 -3 q -11 -4 5 -3 q -11 21 -14 2 q -1 46 -7 39 q 84 69 75 52 q 118 197 100 97 l 216 696 q 220 719 217 703 q 224 742 223 736 q 228 762 226 749 q 231 781 230 774 q 232 796 231 787 q 232 811 233 805 q 231 823 232 818 q 153 845 228 839 q 155 870 151 852 q 164 895 159 889 q 343 891 220 891 z "},"F":{"ha":712,"x_min":-16,"x_max":755,"o":"m 343 891 q 553 896 374 891 q 755 901 732 900 q 753 700 753 855 q 722 693 746 693 q 704 704 706 693 q 692 758 699 736 q 674 800 686 779 q 642 831 662 821 q 594 841 622 841 l 490 841 q 423 825 433 841 q 418 814 420 820 q 414 799 416 808 q 410 784 412 790 q 406 764 409 779 q 401 742 403 749 l 353 494 q 359 486 352 490 q 378 481 366 483 q 404 479 391 479 l 471 479 q 550 496 526 479 q 601 574 574 514 q 617 585 605 585 q 640 578 635 585 l 590 317 q 566 312 585 312 q 551 323 551 312 q 522 406 548 393 q 429 415 503 415 q 334 396 337 415 l 296 197 q 291 173 294 190 q 287 150 288 157 q 283 131 286 144 q 281 112 281 118 q 279 97 280 106 q 279 81 279 87 q 281 69 279 75 q 368 45 283 52 q 367 19 370 38 q 358 -5 363 1 q 168 4 275 4 q -12 -5 76 4 q -12 19 -16 1 q -1 45 -7 38 q 84 69 75 51 q 118 197 100 97 l 216 696 q 220 719 217 703 q 224 742 223 736 q 228 762 226 749 q 231 781 230 774 q 232 796 231 787 q 232 811 233 805 q 231 823 232 818 q 153 845 228 839 q 155 870 151 852 q 164 895 159 889 q 343 891 220 891 z "},"G":{"ha":920,"x_min":71,"x_max":900,"o":"m 601 905 q 865 865 692 905 q 858 768 865 854 q 848 670 850 682 q 838 657 846 663 q 818 651 829 651 q 802 656 806 651 q 795 697 801 675 q 775 746 789 719 q 740 795 761 773 q 682 831 718 817 q 601 846 646 846 q 473 810 534 846 q 367 712 412 774 q 293 559 321 650 q 266 363 266 468 q 272 283 266 323 q 296 199 279 242 q 337 124 313 157 q 403 71 362 92 q 495 50 444 50 q 572 68 548 50 q 586 91 583 75 q 593 129 588 100 q 606 199 598 157 q 618 266 614 240 q 625 335 627 307 q 614 355 625 347 q 588 366 604 363 q 562 371 572 370 q 543 372 551 372 q 540 383 540 373 q 544 406 541 393 q 552 422 548 418 q 614 419 572 421 q 688 415 655 416 q 750 414 722 414 q 798 415 774 414 q 852 419 823 416 q 899 422 882 421 q 896 390 900 409 q 888 372 892 372 q 858 366 880 372 q 825 354 836 361 q 811 332 819 350 q 799 296 803 315 q 768 133 772 157 q 767 111 766 126 q 768 94 768 96 q 749 70 766 83 q 718 49 733 56 q 598 5 658 20 q 457 -9 539 -9 q 316 13 380 -9 q 207 73 251 35 q 131 161 162 111 q 85 264 100 210 q 71 374 71 319 q 102 559 71 473 q 188 708 134 646 q 310 815 241 770 q 454 883 379 861 q 601 905 528 905 z "},"H":{"ha":959,"x_min":-16,"x_max":1006,"o":"m 343 888 q 522 898 434 888 q 522 873 526 892 q 513 848 519 854 q 427 823 437 842 q 392 696 410 791 l 355 503 l 357 499 q 509 495 503 495 q 656 499 518 495 q 661 505 661 502 l 696 696 q 700 719 697 703 q 705 742 703 736 q 708 762 706 749 q 711 781 710 774 q 712 796 711 787 q 712 811 713 805 q 711 823 712 818 q 635 848 708 842 q 635 873 632 854 q 644 898 639 892 q 823 888 727 888 q 1002 898 914 888 q 1002 873 1006 892 q 993 848 999 854 q 907 823 917 842 q 872 696 890 791 l 776 197 q 771 173 774 190 q 767 150 768 157 q 764 131 766 144 q 761 112 762 118 q 760 97 760 106 q 759 81 759 87 q 761 69 760 75 q 837 45 764 51 q 836 19 840 38 q 827 -5 833 1 q 648 4 745 4 q 469 -5 557 4 q 469 19 466 1 q 479 45 473 38 q 564 69 555 51 q 600 197 582 101 l 643 420 l 642 427 q 495 430 549 430 q 340 425 349 430 l 338 419 l 296 197 q 291 173 294 190 q 287 150 288 157 q 283 131 286 144 q 281 112 281 118 q 279 97 280 106 q 279 81 279 87 q 281 69 279 75 q 357 45 283 51 q 356 19 359 38 q 347 -5 353 1 q 168 4 264 4 q -12 -5 76 4 q -12 19 -16 1 q -1 45 -7 38 q 84 69 75 51 q 118 197 100 97 l 216 696 q 220 719 217 703 q 224 742 223 736 q 228 762 226 749 q 231 781 230 774 q 232 796 231 787 q 232 811 233 805 q 231 823 232 818 q 155 848 228 842 q 155 873 152 854 q 164 898 159 892 q 343 888 247 888 z "},"I":{"ha":479,"x_min":-16,"x_max":526,"o":"m 343 888 q 522 898 434 888 q 522 873 526 892 q 513 848 519 854 q 427 823 437 842 q 392 696 410 791 l 296 197 q 291 173 294 190 q 287 150 288 157 q 283 131 286 144 q 281 112 281 118 q 279 97 280 106 q 279 81 279 87 q 281 69 279 75 q 357 45 283 51 q 356 19 359 38 q 347 -5 353 1 q 168 4 264 4 q -12 -5 76 4 q -12 19 -16 1 q -1 45 -7 38 q 84 69 75 51 q 118 197 100 97 l 216 696 q 220 719 217 703 q 224 742 223 736 q 228 762 226 749 q 231 781 230 774 q 232 796 231 787 q 232 811 233 805 q 231 823 232 818 q 155 848 228 842 q 155 873 152 854 q 164 898 159 892 q 343 888 247 888 z "},"J":{"ha":456,"x_min":-148,"x_max":517,"o":"m 335 888 q 514 898 426 888 q 514 873 517 892 q 505 848 511 854 q 419 823 429 842 q 384 696 401 791 l 286 194 q 248 71 274 130 q 191 -34 222 12 q 121 -121 159 -80 q 47 -190 83 -161 q -25 -242 11 -219 q -87 -277 -61 -264 q -133 -296 -114 -290 q -143 -285 -138 -293 q -148 -271 -148 -277 q -145 -263 -148 -266 q 16 -100 -43 -208 q 109 183 75 8 l 208 696 q 212 719 209 703 q 216 742 215 736 q 220 762 218 749 q 222 781 222 774 q 224 796 223 787 q 224 811 224 805 q 222 823 224 818 q 146 848 220 842 q 147 873 144 854 q 156 898 151 892 q 335 888 239 888 z "},"K":{"ha":933,"x_min":-16,"x_max":987,"o":"m 707 191 q 766 116 736 147 q 815 70 795 84 q 855 48 835 56 q 882 40 876 41 q 895 39 888 39 q 894 18 898 33 q 888 -3 890 2 q 863 -5 877 -3 q 836 -7 848 -7 q 800 -8 823 -8 q 648 21 702 -8 q 544 125 594 50 q 362 410 543 126 q 350 415 359 415 q 336 407 342 415 l 296 197 q 291 173 294 190 q 287 150 288 157 q 283 131 286 144 q 281 112 281 118 q 279 97 280 106 q 279 81 279 87 q 281 69 279 75 q 357 45 283 51 q 356 19 359 38 q 347 -5 353 1 q 168 4 264 4 q -12 -5 76 4 q -12 19 -16 1 q -1 45 -7 38 q 84 69 75 51 q 118 197 100 97 l 216 696 q 220 719 217 703 q 224 742 223 736 q 228 762 226 749 q 231 781 230 774 q 232 796 231 787 q 232 811 233 805 q 231 823 232 818 q 155 848 228 842 q 155 873 152 854 q 164 898 159 892 q 343 888 247 888 q 522 898 434 888 q 522 873 526 892 q 513 848 519 854 q 427 823 437 842 q 392 696 410 791 l 346 457 q 500 581 446 530 q 549 624 517 595 q 593 664 581 652 q 627 695 606 675 q 666 733 649 715 q 703 773 683 751 q 724 818 721 793 q 719 835 726 828 q 700 844 712 842 q 678 848 688 847 q 659 849 669 849 q 659 873 656 857 q 666 898 661 888 q 715 895 680 897 q 780 890 751 892 q 829 888 808 888 q 986 898 903 888 q 984 873 987 890 q 975 850 981 856 q 821 791 873 839 q 515 510 631 617 q 509 488 503 498 q 572 390 541 436 q 644 283 603 343 q 707 191 685 224 z "},"L":{"ha":742,"x_min":-14,"x_max":718,"o":"m 294 191 q 283 84 279 103 q 309 64 286 71 q 359 57 332 57 l 444 57 q 570 102 519 57 q 662 231 610 137 q 682 239 666 239 q 704 236 692 239 q 718 231 715 233 q 694 186 715 226 q 666 132 673 146 q 644 86 659 117 q 620 35 629 56 q 605 -3 611 14 l 168 -3 q 88 -3 129 -3 q 21 -4 47 -3 q -11 -4 -5 -4 q -11 21 -14 2 q -1 46 -7 39 q 84 69 75 52 q 118 197 100 97 l 216 696 q 220 719 217 703 q 224 742 223 736 q 228 762 226 749 q 231 781 230 774 q 232 796 231 787 q 232 811 233 805 q 231 823 232 818 q 155 848 228 842 q 155 873 152 854 q 164 898 159 892 q 343 888 247 888 q 522 898 434 888 q 522 873 526 892 q 513 848 519 854 q 427 823 437 842 q 392 696 410 791 l 294 191 z "},"M":{"ha":1165,"x_min":-39,"x_max":1187,"o":"m 328 890 q 398 893 353 890 q 460 898 444 897 q 588 323 493 759 q 592 320 591 320 q 596 323 593 320 q 599 328 599 327 q 828 741 743 578 q 859 804 842 766 q 888 867 877 842 l 899 892 q 1034 888 931 888 q 1113 893 1059 888 q 1183 898 1167 897 q 1186 874 1187 895 q 1179 846 1185 854 q 1144 842 1168 846 q 1110 831 1120 838 q 1092 812 1098 823 q 1082 776 1086 802 q 1042 535 1080 762 q 989 206 1005 309 q 980 69 974 107 q 1010 51 983 57 q 1055 45 1038 45 q 1048 -5 1060 20 q 974 0 1037 -5 q 878 5 911 5 q 767 0 844 5 q 677 -5 690 -5 q 678 17 675 -1 q 686 45 682 36 q 736 52 705 45 q 778 71 768 58 q 798 118 793 90 q 802 139 800 124 q 807 173 804 153 q 812 201 810 192 l 892 674 q 893 681 892 676 q 895 693 895 686 q 895 705 896 700 q 890 709 894 709 q 882 700 888 709 l 534 54 q 505 19 526 40 q 469 -3 484 -3 q 458 0 466 -3 l 314 709 q 253 434 283 576 q 196 182 222 293 q 187 129 191 161 q 182 88 182 96 q 225 57 183 70 q 284 45 267 45 q 283 20 286 37 q 276 -5 281 4 q 208 0 261 -5 q 123 5 155 5 q 37 1 90 5 q -37 -5 -16 -4 q -37 18 -39 2 q -29 43 -34 33 q 33 56 -8 43 q 87 92 75 69 q 106 145 93 101 q 125 212 120 189 q 172 409 142 282 q 229 654 201 536 q 260 788 256 772 q 258 818 262 808 q 227 838 254 828 q 182 848 200 848 q 184 875 179 854 q 192 898 189 895 q 253 893 212 897 q 328 890 294 890 z "},"N":{"ha":970,"x_min":-27,"x_max":1045,"o":"m 299 888 q 439 898 365 888 q 483 791 448 861 q 551 660 517 721 q 646 493 586 598 q 734 336 706 388 q 748 392 738 344 l 797 646 q 817 819 824 793 q 779 842 814 835 q 721 849 745 849 q 721 859 720 850 q 724 881 721 868 q 730 899 726 894 q 801 893 752 898 q 882 888 850 888 q 971 893 914 888 q 1044 899 1029 899 q 1041 874 1045 892 q 1030 848 1038 857 q 1000 846 1019 848 q 955 837 982 845 q 920 817 928 829 q 898 745 913 802 q 874 650 882 687 l 785 189 q 753 -1 774 133 q 721 -7 748 -7 q 688 24 705 -7 l 306 704 l 211 213 q 200 137 204 177 q 199 81 197 96 q 240 56 201 65 q 296 46 278 46 q 296 20 300 37 q 288 -5 292 3 q 218 0 274 -5 q 131 5 163 5 q 48 1 98 5 q -25 -5 -3 -4 q -25 13 -27 0 q -19 35 -22 25 q -14 45 -16 45 q 44 55 5 45 q 93 80 83 64 q 115 137 102 96 q 135 217 128 179 q 188 493 155 321 q 229 697 222 664 q 238 776 239 754 q 229 819 237 798 q 195 839 223 831 q 151 848 167 848 q 148 859 149 849 q 151 882 148 869 q 158 898 154 895 q 196 895 169 897 q 248 890 222 892 q 299 888 273 888 z "},"O":{"ha":956,"x_min":66,"x_max":921,"o":"m 545 846 q 444 814 491 846 q 365 729 397 782 q 308 609 332 677 q 273 471 284 542 q 262 331 262 399 q 272 220 262 271 q 303 130 282 170 q 360 67 324 90 q 442 45 395 45 q 563 93 508 45 q 653 217 618 141 q 707 381 688 293 q 726 556 726 470 q 707 701 726 637 q 646 806 688 765 q 545 846 604 846 m 575 905 q 722 871 655 905 q 832 784 789 838 q 898 665 874 730 q 921 533 921 600 q 888 343 921 433 q 802 190 856 254 q 681 79 749 126 q 541 9 613 33 q 400 -14 469 -14 q 230 37 307 -14 q 110 172 153 87 q 66 354 66 256 q 98 541 66 452 q 181 694 129 629 q 299 808 233 760 q 436 880 365 856 q 575 905 507 905 z "},"P":{"ha":755,"x_min":-16,"x_max":798,"o":"m 777 631 q 731 525 766 572 q 651 448 697 477 q 553 404 604 419 q 453 388 503 388 q 389 408 418 388 q 380 422 385 411 q 376 439 376 434 q 378 446 376 444 q 382 449 380 449 q 423 444 399 444 q 522 495 471 444 q 586 612 573 546 q 577 773 604 705 q 490 841 551 841 q 423 825 433 841 q 418 814 420 820 q 414 799 416 808 q 410 784 412 790 q 406 764 409 779 q 401 742 403 749 l 296 197 q 291 173 294 190 q 287 150 288 157 q 283 131 286 144 q 281 112 281 118 q 279 97 280 106 q 279 81 279 87 q 281 69 279 75 q 357 45 283 51 q 356 19 359 38 q 347 -5 353 1 q 168 4 264 4 q -12 -5 76 4 q -12 19 -16 1 q -1 45 -7 38 q 84 69 75 51 q 118 197 100 97 l 216 696 q 220 719 217 703 q 224 742 223 736 q 228 762 226 749 q 231 781 230 774 q 232 796 231 787 q 232 811 233 805 q 231 823 232 818 q 153 845 228 839 q 155 870 151 852 q 164 895 159 889 q 343 891 220 891 q 433 893 367 891 q 538 895 498 895 q 728 817 657 895 q 777 631 798 739 z "},"Q":{"ha":958,"x_min":68,"x_max":940,"o":"m 576 905 q 724 871 656 905 q 833 784 791 838 q 899 665 876 730 q 922 533 922 600 q 900 374 922 449 q 842 242 878 298 q 757 140 806 186 q 657 63 708 94 q 551 14 606 33 q 609 -21 568 3 q 666 -54 649 -45 q 714 -76 682 -63 q 777 -94 746 -90 q 845 -99 807 -99 q 914 -90 881 -99 q 940 -103 931 -90 q 846 -156 917 -122 q 726 -190 775 -190 q 645 -178 685 -190 q 566 -146 604 -166 q 492 -103 528 -125 q 408 -55 456 -81 q 317 -11 361 -28 q 134 135 200 38 q 68 354 68 231 q 99 541 68 452 q 182 694 130 629 q 300 808 235 760 q 437 880 366 856 q 576 905 509 905 m 547 846 q 446 814 492 846 q 366 729 399 782 q 309 609 333 677 q 274 471 286 542 q 263 331 263 399 q 273 220 263 271 q 304 130 283 170 q 361 67 326 90 q 444 45 397 45 q 565 93 509 45 q 654 217 620 141 q 708 381 689 293 q 727 556 727 470 q 708 701 727 637 q 647 806 689 765 q 547 846 606 846 z "},"R":{"ha":875,"x_min":-16,"x_max":865,"o":"m 343 891 q 433 893 367 891 q 538 895 498 895 q 722 820 659 895 q 761 621 785 745 q 724 544 753 580 q 660 485 696 507 q 592 448 623 462 q 537 429 561 434 q 576 349 554 395 q 608 286 599 303 q 633 240 616 269 q 671 176 649 211 q 729 106 697 136 q 788 63 761 77 q 834 44 815 50 q 863 38 852 38 q 863 14 865 30 q 860 -5 861 -2 q 836 -8 847 -6 q 814 -10 825 -9 q 780 -11 803 -11 q 673 1 721 -11 q 599 26 626 12 q 550 64 572 40 q 520 101 527 88 q 502 134 513 113 l 373 385 q 354 406 363 406 l 336 406 l 296 197 q 291 173 294 190 q 287 150 288 157 q 283 131 286 144 q 281 112 281 118 q 279 97 280 106 q 279 81 279 87 q 281 69 279 75 q 357 45 283 51 q 356 19 359 38 q 347 -5 353 1 q 168 4 264 4 q -12 -5 76 4 q -12 19 -16 1 q -1 45 -7 38 q 84 69 75 51 q 118 197 100 97 l 216 696 q 220 719 217 703 q 224 742 223 736 q 228 762 226 749 q 231 781 230 774 q 232 796 231 787 q 232 811 233 805 q 231 823 232 818 q 153 845 228 839 q 155 870 151 852 q 164 895 159 889 q 343 891 220 891 m 346 458 l 404 458 q 506 496 461 458 q 571 608 551 534 q 584 686 582 646 q 579 761 587 725 q 549 819 572 796 q 490 841 526 841 q 423 825 433 841 q 418 814 420 820 q 414 799 416 808 q 410 784 412 790 q 406 764 409 779 q 401 742 403 749 l 346 458 z "},"S":{"ha":670,"x_min":29,"x_max":655,"o":"m 450 909 q 505 905 477 909 q 551 897 534 901 q 605 884 569 893 q 655 871 640 874 q 625 646 644 772 q 609 637 617 637 q 574 647 574 637 q 565 734 576 689 q 522 815 553 779 q 445 852 490 852 q 364 824 401 852 q 315 734 327 796 q 317 684 310 709 q 337 638 325 658 q 374 592 350 618 q 413 553 397 567 q 456 517 429 539 q 524 458 513 469 q 593 305 591 392 q 587 237 594 273 q 522 107 574 165 q 402 17 471 48 q 263 -14 333 -14 q 30 22 163 -14 q 35 141 29 62 q 45 252 40 219 q 65 264 50 258 q 85 271 80 271 q 99 260 99 271 q 107 195 98 231 q 136 125 117 159 q 189 67 155 90 q 262 43 222 43 q 355 75 315 43 q 410 175 396 107 q 408 226 414 200 q 389 272 401 252 q 356 315 378 291 q 319 351 334 338 q 282 382 305 363 q 266 396 271 392 q 183 472 203 449 q 130 639 120 544 q 134 663 132 651 q 198 788 147 730 q 317 877 250 846 q 450 909 385 909 z "},"T":{"ha":808,"x_min":73,"x_max":867,"o":"m 494 891 l 716 891 q 785 898 756 891 q 829 910 813 904 q 852 917 844 917 q 867 913 861 917 l 852 663 q 836 657 849 661 q 814 654 822 654 q 803 661 803 654 q 777 780 806 728 q 701 831 748 831 l 583 831 l 460 197 q 455 173 458 190 q 451 150 452 157 q 448 131 450 144 q 445 112 446 118 q 444 97 444 106 q 443 81 443 87 q 445 69 444 75 q 521 45 448 51 q 520 19 524 38 q 511 -5 517 1 q 334 4 429 4 q 153 -5 241 4 q 153 19 150 1 q 163 45 157 38 q 248 69 239 51 q 283 197 266 101 l 407 831 l 289 831 q 193 780 242 831 q 121 661 144 728 q 107 654 117 654 q 87 657 99 654 q 73 663 75 661 l 155 913 q 171 917 163 917 q 192 910 178 917 q 231 898 205 904 q 297 891 257 891 l 494 891 z "},"U":{"ha":939,"x_min":95,"x_max":1031,"o":"m 318 888 q 497 898 410 888 q 497 873 500 892 q 488 848 494 854 q 402 823 412 842 q 367 696 385 791 l 319 448 q 308 381 312 407 q 301 325 304 355 q 299 268 298 294 q 306 216 300 241 q 473 85 332 85 q 551 105 512 85 q 627 163 590 124 q 694 268 664 201 q 741 419 724 334 l 786 650 q 801 815 809 774 q 713 848 795 841 q 713 873 710 854 q 722 898 717 892 q 878 888 825 888 q 961 893 910 888 q 1027 898 1012 897 q 1027 873 1031 892 q 1018 848 1024 854 q 915 815 929 840 q 888 745 903 795 q 865 651 873 694 l 813 388 q 750 209 793 288 q 649 83 707 131 q 526 12 591 36 q 390 -12 460 -12 q 244 18 308 -12 q 147 107 180 48 q 135 408 95 201 l 191 696 q 195 719 192 703 q 199 742 198 736 q 203 762 201 749 q 205 781 205 774 q 207 796 206 787 q 207 811 208 805 q 205 823 207 818 q 130 848 203 842 q 130 873 127 854 q 139 898 134 892 q 318 888 222 888 z "},"V":{"ha":850,"x_min":76,"x_max":976,"o":"m 267 888 q 448 898 359 888 q 447 873 451 892 q 437 848 443 854 q 430 847 436 848 q 420 847 424 847 q 409 845 416 846 q 397 843 402 844 q 385 840 392 842 q 374 836 378 838 q 364 829 369 833 q 357 821 359 826 q 353 811 354 817 q 363 709 347 784 l 463 252 q 718 707 697 669 q 731 733 721 713 q 747 764 742 753 q 758 790 752 775 q 766 815 764 805 q 671 848 770 840 q 673 873 669 854 q 682 898 677 892 q 830 888 784 888 q 908 893 862 888 q 972 898 955 897 q 972 873 976 892 q 963 848 969 854 q 954 847 962 848 q 941 846 946 846 q 926 844 935 846 q 910 841 917 843 q 895 837 903 840 q 881 831 887 835 q 871 823 875 828 q 796 711 844 793 q 406 41 770 665 q 370 4 395 23 q 334 -15 345 -15 q 327 -13 329 -15 q 322 -4 324 -11 q 320 4 321 2 l 179 692 q 171 730 176 706 q 162 772 166 754 q 156 803 159 791 q 126 836 151 826 q 79 848 101 846 q 80 873 76 854 q 90 898 84 892 q 267 888 172 888 z "},"W":{"ha":1190,"x_min":78,"x_max":1310,"o":"m 271 888 q 450 898 362 888 q 450 873 453 892 q 440 848 446 854 q 359 795 359 841 q 367 709 359 768 l 418 340 q 684 848 637 760 q 709 883 695 868 q 733 898 724 898 q 744 876 740 898 l 846 290 q 1050 707 1029 663 q 1063 734 1055 715 q 1078 764 1072 753 q 1089 790 1084 776 q 1097 815 1095 805 q 1004 848 1101 840 q 1006 873 1002 854 q 1015 898 1010 892 q 1163 888 1118 888 q 1242 893 1195 888 q 1307 898 1290 897 q 1306 873 1310 892 q 1296 848 1302 854 q 1287 847 1295 848 q 1274 846 1279 846 q 1259 844 1268 846 q 1243 841 1250 843 q 1228 837 1236 840 q 1214 831 1220 835 q 1204 823 1208 828 q 1129 711 1160 775 q 795 54 1023 498 q 762 7 782 28 q 732 -15 743 -15 q 711 4 720 -15 l 612 567 q 353 60 454 254 q 323 12 342 38 q 295 -15 304 -15 q 275 4 283 -15 l 181 692 q 166 800 179 713 q 153 822 164 812 q 127 837 142 832 q 102 845 113 842 q 82 848 91 847 q 82 873 78 854 q 92 898 86 891 q 271 888 175 888 z "},"X":{"ha":894,"x_min":-81,"x_max":983,"o":"m 324 890 q 507 898 353 890 q 504 869 509 890 q 495 848 500 848 q 451 840 476 848 q 423 819 427 833 q 427 789 420 803 l 524 562 q 599 641 546 586 q 686 734 652 696 q 732 792 720 772 q 738 806 738 800 q 714 835 741 823 q 654 848 688 848 q 651 859 651 849 q 654 882 651 869 q 662 898 658 895 q 827 888 738 888 q 981 898 914 888 q 979 869 983 891 q 970 848 975 848 q 940 845 958 848 q 884 825 922 842 q 815 776 846 807 l 545 500 q 655 245 600 370 q 722 103 711 120 q 776 59 739 73 q 836 45 812 45 q 835 19 838 35 q 826 -5 832 3 q 625 3 675 3 q 561 1 594 3 q 489 -2 528 0 q 425 -5 450 -5 q 426 22 420 -1 q 437 45 431 45 q 483 56 453 45 q 515 83 513 67 q 514 98 517 88 l 399 370 q 175 113 214 165 q 160 90 162 95 q 188 56 155 68 q 256 45 220 45 q 258 22 260 38 q 251 -5 256 5 q 85 3 129 3 q 29 1 56 3 q -30 -2 1 0 q -77 -5 -61 -5 q -77 19 -81 1 q -68 45 -74 38 q -47 46 -60 45 q -10 53 -34 48 q 39 73 14 58 q 81 107 64 87 l 370 437 l 251 728 q 202 827 216 815 q 164 842 192 836 q 119 848 136 848 q 117 859 117 849 q 121 882 117 869 q 129 898 125 895 q 324 890 312 890 z "},"Y":{"ha":781,"x_min":92,"x_max":905,"o":"m 259 197 l 296 385 q 293 412 297 395 q 260 525 285 446 q 217 666 237 604 l 197 728 q 172 803 178 788 q 140 835 164 825 q 95 848 115 846 q 96 873 92 854 q 104 898 99 892 q 283 888 187 888 q 463 898 374 888 q 463 873 466 892 q 453 848 459 854 q 446 847 452 848 q 436 847 440 847 q 426 845 433 846 q 413 843 418 844 q 401 840 408 842 q 390 836 395 838 q 380 829 385 833 q 373 821 376 826 q 369 811 370 817 q 374 789 368 810 l 467 490 q 479 501 468 488 q 509 539 490 514 q 548 593 528 565 q 595 659 569 621 q 641 724 622 696 q 684 784 661 751 q 696 815 694 800 q 609 848 700 840 q 610 873 606 854 q 618 898 613 892 q 758 888 720 888 q 838 893 790 888 q 902 898 885 897 q 902 873 905 892 q 892 848 899 854 q 885 847 892 848 q 873 846 878 846 q 860 845 869 846 q 845 842 851 844 q 830 838 839 840 q 815 832 822 836 q 803 824 809 829 q 792 814 797 819 q 636 614 756 770 q 483 404 517 457 q 471 378 473 390 l 435 197 q 420 69 415 98 q 496 45 423 51 q 496 19 499 38 q 487 -5 492 1 q 308 4 404 4 q 129 -5 217 4 q 129 19 125 1 q 138 45 132 38 q 224 69 214 51 q 237 104 231 82 q 247 141 244 127 q 259 197 250 155 z "},"Z":{"ha":825,"x_min":-31,"x_max":861,"o":"m 395 827 q 354 824 373 827 q 318 813 334 821 q 289 799 301 805 q 263 778 276 792 q 242 755 250 763 q 222 728 234 747 q 207 701 211 708 q 191 671 203 693 q 176 643 179 648 q 159 635 171 635 q 123 642 128 635 q 218 898 196 833 q 295 891 231 895 q 382 888 359 888 l 559 890 q 854 903 700 892 q 860 886 859 903 q 859 859 861 869 q 695 655 857 854 q 373 260 533 457 l 213 64 l 486 64 q 614 111 561 64 q 704 231 660 151 q 723 239 708 239 q 745 236 732 239 q 760 231 758 233 q 704 121 748 207 q 647 1 660 35 l -1 0 q -17 6 -9 0 q -28 20 -24 13 q -28 30 -31 27 l 627 827 l 395 827 z "},"[":{"ha":502,"x_min":149,"x_max":461,"o":"m 175 990 q 453 1012 342 990 q 460 1004 458 1012 q 461 1000 461 1002 q 449 966 461 990 q 448 964 448 964 q 322 933 421 951 q 294 928 303 930 l 294 -469 q 331 -476 304 -471 q 448 -506 412 -490 q 459 -526 455 -509 q 461 -541 461 -534 q 453 -553 460 -551 q 175 -532 340 -532 q 150 -507 154 -530 q 149 -500 149 -504 l 149 959 q 169 989 149 981 q 175 990 172 990 z "},"\\":{"ha":479,"x_min":16,"x_max":459,"o":"m 42 988 q 86 979 69 988 q 109 958 103 969 l 459 -272 l 457 -274 q 450 -279 456 -277 q 435 -281 444 -281 q 387 -272 404 -281 q 367 -253 370 -263 l 16 977 q 42 988 19 988 z "},"]":{"ha":502,"x_min":41,"x_max":353,"o":"m 327 990 q 333 989 330 990 q 353 959 353 981 l 353 -500 q 352 -507 353 -504 q 327 -532 348 -530 q 49 -553 161 -532 q 41 -541 41 -551 q 43 -526 41 -534 q 54 -506 47 -509 q 171 -476 90 -490 q 208 -469 197 -471 l 208 928 q 180 933 199 930 q 54 964 81 951 q 53 966 54 964 q 41 1000 41 990 q 41 1004 41 1002 q 49 1012 43 1012 q 327 990 160 990 z "},"^":{"ha":530,"x_min":52,"x_max":452,"o":"m 252 907 q 279 888 269 907 q 334 790 300 852 q 394 686 369 728 q 452 593 418 644 q 443 575 452 583 q 426 568 435 568 q 347 647 391 601 q 278 724 304 694 l 252 754 q 79 568 157 642 q 60 575 69 568 q 52 593 52 583 q 102 674 78 633 q 138 734 127 714 q 182 811 150 754 q 227 888 215 868 q 252 907 237 907 z "},"_":{"ha":643,"x_min":-50,"x_max":553,"o":"m -48 -47 q -47 -40 -47 -45 q -43 -23 -46 -35 q -36 -1 -39 -11 q -27 16 -33 8 q -17 23 -22 23 l 550 23 q 553 12 553 23 q 532 -53 553 -9 q 527 -59 530 -56 q 522 -61 524 -61 l 520 -61 l -41 -61 q -42 -61 -42 -61 q -44 -60 -43 -61 q -47 -58 -46 -60 q -48 -54 -47 -57 q -48 -47 -50 -52 z "},"`":{"ha":274,"x_min":14,"x_max":247,"o":"m 235 665 q 168 693 219 668 q 65 753 117 718 q 14 810 14 788 q 34 850 14 835 q 75 865 54 865 q 117 856 107 865 q 194 762 144 830 q 247 681 243 693 q 235 665 245 671 z "},"a":{"ha":663,"x_min":15,"x_max":621,"o":"m 431 609 q 509 601 465 609 q 576 585 553 593 l 492 179 q 487 134 487 157 q 492 115 487 123 q 506 106 496 106 q 561 141 525 106 q 602 189 596 176 q 615 174 608 189 q 621 152 621 160 q 572 91 608 128 q 488 21 536 54 q 406 -11 439 -11 q 345 12 368 -11 q 321 79 321 35 q 324 104 321 85 q 330 130 326 113 q 245 37 303 84 q 132 -9 186 -9 q 46 37 77 -9 q 15 156 15 84 q 56 329 15 243 q 159 474 97 414 q 294 572 220 534 q 431 609 367 609 m 355 534 q 271 486 311 534 q 209 361 231 437 q 186 206 186 286 q 235 110 186 110 q 312 194 269 110 q 376 381 355 279 l 403 518 q 355 534 389 534 z "},"b":{"ha":631,"x_min":47,"x_max":593,"o":"m 380 490 q 284 405 336 490 q 214 227 233 319 q 205 148 206 185 q 215 81 204 110 q 248 53 225 53 q 330 115 289 53 q 394 261 370 178 q 418 410 418 344 q 380 490 418 490 m 258 456 q 357 557 290 505 q 469 609 424 609 q 560 570 527 609 q 593 457 593 530 q 554 277 593 366 q 457 128 515 189 q 331 30 399 67 q 205 -8 263 -8 q 93 34 139 -8 q 47 145 47 77 q 56 220 47 182 l 161 760 q 174 831 174 814 q 91 857 174 857 q 90 877 88 861 q 96 897 92 892 q 232 918 149 901 q 340 944 315 935 q 349 918 349 939 q 331 817 349 901 l 258 456 z "},"c":{"ha":511,"x_min":20,"x_max":500,"o":"m 361 609 q 432 600 399 609 q 480 579 465 591 q 500 511 500 549 q 477 454 500 480 q 425 429 454 429 q 355 479 382 429 q 351 487 355 480 q 346 496 348 494 q 341 505 345 498 q 335 514 338 511 q 329 523 333 517 q 321 530 325 528 q 314 536 318 533 q 305 540 310 538 q 296 541 300 541 q 247 494 271 541 q 207 373 222 446 q 191 231 191 300 q 212 134 191 163 q 275 104 233 104 q 294 107 284 104 q 313 113 304 109 q 331 122 321 117 q 348 133 340 127 q 365 145 356 139 q 379 158 373 152 q 391 170 385 164 q 401 179 397 175 q 408 186 406 183 l 411 190 q 424 177 418 190 q 429 155 429 163 q 395 116 419 140 q 338 62 372 91 q 261 13 304 33 q 183 -8 219 -8 q 69 40 117 -8 q 20 178 20 88 q 71 382 20 281 q 202 546 122 483 q 361 609 281 609 z "},"d":{"ha":661,"x_min":14,"x_max":637,"o":"m 389 479 q 354 534 389 534 q 270 486 309 534 q 207 361 230 437 q 184 206 184 286 q 233 110 184 110 q 286 155 256 110 q 341 264 317 200 q 374 381 366 328 q 389 479 389 461 m 450 760 q 455 784 452 768 q 460 813 458 801 q 463 831 463 825 q 380 857 463 857 q 379 877 377 861 q 385 897 381 892 q 521 918 437 901 q 629 944 604 935 q 637 918 637 939 q 620 817 637 901 l 491 179 q 486 134 486 157 q 490 115 486 123 q 505 106 495 106 q 559 141 524 106 q 601 189 595 176 q 613 174 607 189 q 620 152 620 160 q 571 91 607 128 q 487 21 535 54 q 404 -11 438 -11 q 336 22 359 -11 q 320 79 320 46 q 328 130 320 98 q 243 37 302 84 q 130 -9 185 -9 q 44 37 75 -9 q 14 156 14 84 q 50 318 14 237 q 142 457 86 398 q 267 557 199 517 q 397 608 334 598 q 420 609 406 609 l 450 760 z "},"e":{"ha":534,"x_min":22,"x_max":514,"o":"m 363 609 q 416 603 391 609 q 464 583 441 596 q 500 544 487 569 q 514 484 514 518 q 476 390 514 435 q 385 317 438 345 q 279 272 331 288 q 193 255 227 255 q 190 221 190 247 q 194 181 190 200 q 206 144 197 163 q 231 115 214 126 q 273 104 248 104 q 293 107 282 104 q 314 115 304 110 q 334 126 324 120 q 354 140 345 132 q 371 154 363 147 q 386 168 379 161 q 397 180 393 175 q 406 189 401 184 l 410 193 q 424 177 418 193 q 430 152 430 161 q 394 114 422 140 q 330 61 366 88 q 250 13 293 33 q 178 -8 208 -8 q 63 44 105 -8 q 22 190 22 96 q 53 340 22 263 q 134 475 85 416 q 244 571 182 534 q 363 609 307 609 m 197 307 q 243 324 216 307 q 294 368 270 341 q 336 433 319 395 q 353 506 353 470 q 317 559 353 559 q 272 530 294 559 q 235 458 250 500 q 210 376 220 416 q 197 307 199 335 z "},"f":{"ha":431,"x_min":-191,"x_max":578,"o":"m 465 943 q 525 935 497 943 q 566 918 553 928 q 578 873 578 899 q 563 827 578 847 q 526 807 549 807 q 469 840 493 807 q 465 845 469 840 q 461 852 462 850 q 456 858 460 853 q 451 864 453 863 q 446 869 450 865 q 440 873 443 872 q 434 877 437 875 q 427 880 431 879 q 419 880 423 880 q 369 815 389 880 q 313 575 348 751 l 449 575 q 456 559 456 575 q 441 513 456 536 l 301 513 q 227 79 259 250 q 176 -73 211 -1 q 98 -192 141 -144 q 9 -268 56 -240 q -79 -296 -38 -296 q -138 -288 -111 -296 q -179 -271 -166 -281 q -191 -227 -191 -252 q -177 -180 -191 -200 q -140 -160 -162 -160 q -83 -193 -106 -160 q -79 -198 -82 -193 q -74 -205 -75 -203 q -70 -211 -73 -206 q -65 -217 -66 -216 q -60 -222 -63 -218 q -54 -227 -56 -225 q -47 -230 -51 -228 q -40 -233 -44 -232 q -33 -233 -37 -233 q 13 -190 -2 -233 q 52 -21 28 -147 q 69 73 62 39 l 145 513 l 57 513 q 54 517 54 513 q 76 552 54 529 q 119 575 98 575 l 156 575 q 210 726 172 654 q 293 843 248 797 q 385 916 338 889 q 465 943 431 943 z "},"g":{"ha":602,"x_min":-77,"x_max":617,"o":"m 372 -153 q 332 -99 372 -127 q 249 -52 293 -71 q 156 -19 204 -34 q 99 -61 117 -39 q 80 -114 80 -83 q 124 -209 80 -176 q 233 -241 168 -241 q 293 -232 262 -241 q 348 -202 323 -223 q 372 -153 372 -181 m 319 568 q 262 540 288 570 q 225 467 237 510 q 210 376 212 423 q 222 282 208 320 q 270 241 235 243 q 345 292 313 239 q 380 410 378 345 q 379 461 381 436 q 370 512 376 487 q 351 552 364 536 q 319 568 338 568 m 494 534 q 497 530 494 534 q 502 523 500 526 q 508 513 505 519 q 515 499 512 506 q 521 484 517 493 q 527 465 524 475 q 530 444 529 456 q 532 419 532 431 q 512 334 532 374 q 462 266 493 294 q 402 219 431 237 q 345 190 373 201 q 307 178 336 186 q 267 163 279 170 q 255 142 255 155 q 281 120 255 132 q 346 94 308 108 q 422 62 384 81 q 486 14 460 44 q 513 -54 513 -16 q 411 -230 513 -153 q 164 -307 309 -307 q -11 -261 55 -307 q -77 -149 -77 -216 q -65 -101 -77 -123 q -36 -64 -54 -79 q 6 -36 -19 -49 q 51 -15 31 -22 q 95 1 71 -7 q 107 5 103 4 q 46 38 56 28 q 40 43 44 40 q 34 49 36 47 q 30 55 33 51 q 27 63 28 58 q 26 76 26 68 q 98 141 26 100 q 222 195 170 183 q 103 258 150 214 q 56 376 56 302 q 129 549 56 476 q 302 621 202 621 q 431 589 357 621 q 461 590 437 586 q 514 602 486 595 q 548 609 543 608 q 591 587 565 604 q 617 559 617 570 q 610 543 617 551 q 595 534 603 534 l 494 534 z "},"h":{"ha":684,"x_min":20,"x_max":650,"o":"m 335 817 q 258 426 260 438 q 247 372 258 426 q 309 473 268 418 q 397 569 349 528 q 476 609 444 609 q 552 581 531 609 q 574 491 574 552 q 547 316 574 457 l 521 179 q 515 134 515 157 q 520 115 515 123 q 534 106 525 106 q 589 141 553 106 q 631 189 625 176 q 643 174 637 189 q 650 152 650 160 q 601 91 637 128 q 516 21 565 54 q 434 -11 468 -11 q 373 13 397 -11 q 349 85 349 37 q 361 167 349 118 l 392 328 q 402 382 395 342 q 408 431 408 422 q 402 451 408 443 q 387 460 397 460 q 331 413 367 460 q 258 285 295 366 q 203 123 221 205 l 176 0 q 100 -8 149 -8 q 20 0 53 -8 q 165 760 154 690 q 178 831 178 818 q 95 857 178 857 q 94 877 92 861 q 100 897 96 892 q 236 918 153 901 q 345 944 319 935 q 353 918 353 939 q 335 817 353 899 z "},"i":{"ha":420,"x_min":15,"x_max":382,"o":"m 144 419 q 151 464 151 446 q 145 483 151 474 q 130 492 140 492 q 76 457 111 492 q 34 410 40 422 q 21 424 28 410 q 15 446 15 438 q 107 549 37 488 q 225 609 176 609 q 291 584 267 609 q 316 513 316 559 q 304 431 316 492 l 254 179 q 248 134 248 157 q 253 115 248 123 q 267 106 258 106 q 322 141 286 106 q 363 189 357 176 q 376 174 370 189 q 382 152 382 160 q 334 91 370 128 q 249 21 298 54 q 167 -11 201 -11 q 106 13 130 -11 q 81 85 81 37 q 94 167 81 118 l 144 419 m 289 932 q 346 908 323 932 q 368 848 368 884 q 336 767 368 802 q 262 732 304 732 q 205 757 228 732 q 183 818 183 782 q 215 897 183 863 q 289 932 246 932 z "},"j":{"ha":388,"x_min":-119,"x_max":399,"o":"m 157 419 q 164 464 164 446 q 159 483 164 474 q 144 492 153 492 q 89 457 125 492 q 47 410 54 422 q 35 424 41 410 q 28 446 28 438 q 120 549 51 488 q 239 609 190 609 q 305 584 280 609 q 330 513 330 559 q 317 431 330 492 q 266 163 286 264 q 222 20 250 82 q 148 -102 193 -41 q 17 -220 108 -155 q -107 -296 -73 -286 q -116 -286 -112 -296 q -119 -266 -119 -276 q 28 -103 -16 -186 q 103 136 73 -21 l 157 419 m 320 935 q 376 910 354 935 q 399 849 399 885 q 367 769 399 804 q 293 734 335 734 q 237 759 259 734 q 214 819 214 783 q 246 900 214 865 q 320 935 278 935 z "},"k":{"ha":682,"x_min":20,"x_max":640,"o":"m 510 609 q 621 511 621 609 q 600 448 621 479 q 542 390 578 416 q 468 345 507 365 q 388 312 429 326 q 412 252 398 283 q 445 188 426 222 q 486 133 464 154 q 529 111 509 111 q 565 128 544 111 q 600 160 587 145 q 621 187 612 175 q 635 174 630 187 q 640 152 640 161 q 558 55 627 116 q 435 -5 490 -5 q 377 16 406 -5 q 327 68 348 37 q 286 140 306 98 q 254 215 266 182 q 232 282 242 248 l 176 0 q 100 -8 149 -8 q 20 0 53 -8 q 165 760 154 690 q 178 831 178 818 q 95 857 178 857 q 94 877 92 861 q 100 897 96 892 q 236 918 153 901 q 345 944 319 935 q 353 918 353 939 q 335 817 353 899 l 269 463 q 298 501 275 477 q 352 549 320 524 q 427 591 384 574 q 510 609 470 609 m 408 507 q 349 485 380 507 q 295 434 317 463 q 258 377 273 405 q 243 336 243 349 q 333 353 286 336 q 413 399 379 369 q 446 464 446 429 q 437 493 446 479 q 408 507 429 507 z "},"l":{"ha":384,"x_min":42,"x_max":357,"o":"m 170 760 q 174 784 171 768 q 180 813 178 801 q 182 831 182 825 q 99 857 182 857 q 98 877 96 861 q 104 897 100 892 q 240 918 157 901 q 349 944 323 935 q 357 918 357 939 q 339 817 357 901 l 214 179 q 209 134 209 146 q 214 115 209 123 q 228 106 218 106 q 282 141 247 106 q 324 189 318 176 q 337 174 330 189 q 343 152 343 160 q 294 91 330 128 q 210 21 258 54 q 127 -11 161 -11 q 66 13 91 -11 q 42 85 42 37 q 54 167 42 118 l 170 760 z "},"m":{"ha":1024,"x_min":15,"x_max":990,"o":"m 701 167 q 736 328 701 167 q 746 382 740 342 q 753 431 753 422 q 747 451 753 443 q 731 460 741 460 q 675 413 711 460 q 603 285 640 366 q 548 123 566 205 l 521 0 q 445 -8 494 -8 q 365 0 397 -8 l 435 328 q 445 382 439 342 q 452 431 452 422 q 446 451 452 443 q 430 460 440 460 q 374 413 410 460 q 301 285 338 366 q 247 123 264 205 l 220 0 q 144 -8 193 -8 q 64 0 96 -8 l 144 419 q 151 464 151 446 q 145 483 151 474 q 130 492 140 492 q 76 457 111 492 q 34 410 40 422 q 21 424 28 410 q 15 446 15 438 q 107 549 37 488 q 225 609 176 609 q 291 584 267 609 q 316 513 316 559 q 304 431 316 492 l 290 372 q 352 473 311 418 q 440 569 393 528 q 519 609 488 609 q 596 581 574 609 q 617 491 617 552 q 608 403 617 460 q 713 543 649 477 q 821 609 778 609 q 897 581 876 609 q 918 491 918 552 q 915 447 918 473 q 908 399 911 420 q 898 351 904 379 q 891 316 892 322 q 877 252 888 303 q 861 179 865 200 q 856 134 856 152 q 861 115 856 123 q 875 106 865 106 q 929 141 894 106 q 971 189 965 176 q 984 174 977 189 q 990 152 990 160 q 941 91 977 128 q 857 21 905 54 q 774 -11 808 -11 q 713 13 738 -11 q 689 85 689 37 q 701 167 689 118 z "},"n":{"ha":727,"x_min":15,"x_max":693,"o":"m 304 431 q 299 409 302 424 q 293 382 296 394 q 290 372 290 371 q 352 473 311 418 q 440 569 393 528 q 519 609 488 609 q 596 581 574 609 q 617 491 617 552 q 590 316 617 457 l 564 179 q 559 134 559 157 q 564 115 559 123 q 578 106 568 106 q 632 141 597 106 q 674 189 668 176 q 687 174 680 189 q 693 152 693 160 q 644 91 680 128 q 560 21 608 54 q 477 -11 511 -11 q 416 13 441 -11 q 392 85 392 37 q 404 167 392 118 l 435 328 q 445 382 439 342 q 452 431 452 422 q 446 451 452 443 q 430 460 440 460 q 374 413 410 460 q 301 285 338 366 q 247 123 264 205 l 220 0 q 144 -8 193 -8 q 64 0 96 -8 l 144 419 q 151 464 151 446 q 145 483 151 474 q 130 492 140 492 q 76 457 111 492 q 34 410 40 422 q 21 424 28 410 q 15 446 15 438 q 107 549 37 488 q 225 609 176 609 q 291 584 267 609 q 316 513 316 559 q 304 431 316 492 z "},"o":{"ha":617,"x_min":20,"x_max":571,"o":"m 355 555 q 287 516 319 555 q 234 418 255 477 q 202 293 214 359 q 190 170 190 227 q 236 46 190 46 q 323 112 283 46 q 382 264 363 178 q 401 423 401 349 q 401 449 401 439 q 400 477 401 458 q 396 506 399 495 q 388 530 393 517 q 375 549 383 543 q 355 555 366 555 m 370 609 q 450 599 415 609 q 512 567 484 589 q 556 503 541 544 q 571 403 571 461 q 516 211 571 308 q 377 53 461 115 q 214 -8 294 -8 q 74 45 127 -8 q 20 193 20 98 q 74 386 20 288 q 209 546 127 484 q 370 609 291 609 z "},"p":{"ha":673,"x_min":-75,"x_max":636,"o":"m 408 495 q 297 438 354 495 q 250 202 297 438 q 244 88 235 123 q 281 53 253 53 q 349 92 315 53 q 408 186 384 131 q 446 302 431 242 q 461 406 461 362 q 408 495 461 495 m 503 609 q 601 564 566 609 q 636 445 636 518 q 598 279 636 363 q 502 133 559 195 q 374 32 444 71 q 243 -7 304 -7 q 206 0 221 -7 l 171 -171 q 167 -209 167 -189 q 172 -227 167 -216 q 186 -240 177 -237 q 250 -244 203 -244 q 251 -264 254 -245 q 244 -286 249 -284 q 219 -286 235 -286 q 197 -285 203 -285 q -71 -297 31 -285 q -74 -276 -75 -296 q -68 -254 -73 -257 q -14 -232 -31 -254 q 8 -174 -1 -216 l 110 315 l 45 250 q 35 286 35 262 q 56 324 35 307 l 125 389 l 165 602 q 248 609 191 609 q 291 606 263 609 q 327 598 318 603 q 308 506 322 571 q 398 576 341 543 q 503 609 456 609 z "},"q":{"ha":616,"x_min":15,"x_max":568,"o":"m 484 -286 q 429 -286 475 -286 q 374 -285 383 -285 q 168 -298 294 -285 q 167 -276 165 -296 q 174 -255 168 -255 q 230 -237 206 -252 q 258 -198 253 -223 l 317 114 q 236 31 290 71 q 129 -9 182 -9 q 44 40 73 -9 q 15 155 15 89 q 53 318 15 235 q 150 465 90 401 q 286 569 209 528 q 437 609 363 609 q 568 579 519 609 l 494 189 l 423 -180 q 420 -209 420 -199 q 434 -236 420 -227 q 490 -245 448 -245 q 492 -255 492 -247 q 490 -274 492 -263 q 484 -286 488 -284 m 389 463 q 391 491 391 475 q 381 521 391 507 q 355 534 372 534 q 272 487 311 534 q 209 365 232 439 q 186 213 186 290 q 199 135 186 161 q 232 110 213 110 q 312 195 267 110 q 374 373 357 280 q 389 463 382 418 z "},"r":{"ha":586,"x_min":15,"x_max":605,"o":"m 509 609 q 550 605 536 609 q 583 591 564 602 q 605 532 605 564 q 581 460 605 486 q 526 434 557 434 q 504 438 514 434 q 479 450 493 441 q 464 458 466 458 q 456 463 461 460 q 448 467 450 466 q 441 468 446 467 q 427 469 435 469 q 372 420 408 469 q 301 288 337 370 q 247 123 265 205 l 220 0 q 144 -8 193 -8 q 64 0 96 -8 l 144 419 q 151 464 151 446 q 145 483 151 474 q 130 492 140 492 q 76 457 111 492 q 34 410 40 422 q 21 424 28 410 q 15 446 15 438 q 107 549 37 488 q 225 609 176 609 q 291 584 267 609 q 316 513 316 559 q 304 431 316 492 q 298 402 302 424 q 289 362 293 380 q 285 345 285 344 q 340 468 301 406 q 426 569 380 530 q 509 609 473 609 z "},"s":{"ha":496,"x_min":-1,"x_max":467,"o":"m 302 609 q 452 567 397 609 q 467 513 467 551 q 448 466 467 488 q 399 444 429 444 q 319 506 361 444 q 300 532 308 523 q 280 548 293 541 q 252 556 268 556 q 214 538 229 556 q 198 494 198 521 q 213 455 198 476 q 244 417 227 433 q 289 377 260 401 q 330 340 317 353 q 356 314 348 323 q 379 284 365 304 q 399 240 393 264 q 406 186 406 216 q 333 44 406 98 q 157 -9 260 -9 q 78 3 118 -9 q 15 33 38 15 q -1 84 -1 52 q 17 135 -1 112 q 64 157 35 157 q 105 142 87 157 q 145 96 123 127 q 180 57 165 68 q 218 45 195 45 q 260 64 240 45 q 279 103 279 84 q 264 148 279 124 q 230 189 249 172 q 183 232 211 207 q 140 274 155 258 q 127 288 138 277 q 115 302 117 298 q 104 315 112 305 q 94 331 96 326 q 85 348 91 337 q 78 369 80 359 q 75 392 77 378 q 73 420 73 406 q 138 555 73 502 q 302 609 203 609 z "},"t":{"ha":445,"x_min":45,"x_max":442,"o":"m 160 575 l 180 684 q 256 735 191 697 q 330 773 321 773 q 353 765 342 773 l 317 575 l 437 575 q 442 559 442 575 q 429 513 442 534 l 305 513 l 240 179 q 235 134 235 146 q 239 115 235 123 q 254 106 244 106 q 308 141 273 106 q 350 189 344 176 q 362 174 356 189 q 369 152 369 160 q 320 91 356 128 q 236 21 284 54 q 153 -11 187 -11 q 92 13 117 -11 q 68 85 68 37 q 80 167 68 114 l 148 513 l 47 513 q 45 517 45 513 q 67 552 45 529 q 110 575 89 575 l 160 575 z "},"u":{"ha":723,"x_min":9,"x_max":684,"o":"m 392 153 q 408 225 399 194 q 292 66 370 143 q 171 -11 215 -11 q 103 15 121 -11 q 85 106 85 41 q 111 277 85 142 q 138 419 136 406 q 145 464 145 446 q 140 483 145 474 q 125 492 134 492 q 70 457 106 492 q 28 410 35 422 q 16 424 22 410 q 9 446 9 438 q 101 549 32 488 q 220 609 171 609 q 286 584 261 609 q 311 513 311 559 q 298 431 311 492 l 267 270 q 251 167 251 172 q 257 147 251 155 q 273 138 262 138 q 313 173 287 138 q 368 258 340 207 q 421 377 395 310 q 458 505 446 445 l 477 598 q 553 606 505 606 q 633 598 601 606 l 555 179 q 549 134 549 152 q 554 115 549 123 q 568 106 559 106 q 623 141 587 106 q 665 189 659 176 q 677 174 671 189 q 684 152 684 160 q 635 91 671 128 q 550 21 599 54 q 468 -11 502 -11 q 407 13 431 -11 q 382 85 382 37 q 392 153 382 101 z "},"v":{"ha":631,"x_min":12,"x_max":610,"o":"m 320 152 q 439 286 397 208 q 472 416 472 349 q 456 471 472 442 q 415 521 440 500 q 446 582 415 555 q 505 609 477 609 q 579 578 549 609 q 610 484 610 548 q 574 368 610 435 q 481 236 537 300 q 366 117 426 173 q 253 27 305 61 q 175 -7 200 -7 q 139 156 153 44 q 125 393 125 269 l 125 453 q 110 483 125 483 q 67 452 97 483 q 31 410 37 420 q 19 424 25 410 q 12 446 12 438 q 105 549 36 490 q 222 609 174 609 q 276 589 262 609 q 290 533 290 569 l 290 490 l 290 463 q 301 261 290 358 q 320 152 311 163 z "},"w":{"ha":985,"x_min":11,"x_max":964,"o":"m 621 551 q 639 312 621 456 q 669 152 658 165 q 734 202 699 168 q 793 279 769 237 q 826 410 826 336 q 810 470 826 439 q 769 521 795 500 q 800 582 769 555 q 859 609 831 609 q 933 578 903 609 q 964 484 964 548 q 929 368 964 435 q 840 237 894 300 q 726 118 785 174 q 612 28 667 62 q 529 -5 558 -5 q 486 138 506 26 q 471 260 473 208 q 344 108 438 193 q 176 -7 250 23 q 139 158 154 45 q 123 393 123 271 l 123 453 q 109 483 123 483 q 65 452 96 483 q 30 410 35 420 q 17 424 24 410 q 11 446 11 438 q 103 549 35 490 q 221 609 172 609 q 275 589 261 609 q 289 533 289 569 l 289 490 l 289 463 q 299 267 289 359 q 319 164 309 176 q 372 218 343 181 q 420 296 401 256 q 468 438 456 367 q 535 510 475 470 q 621 551 595 551 z "},"x":{"ha":693,"x_min":-16,"x_max":680,"o":"m 277 609 q 345 533 323 609 l 381 403 l 435 509 q 566 609 490 609 q 621 601 592 609 q 663 581 650 593 q 674 550 669 570 q 680 515 680 530 q 659 459 680 485 q 605 433 639 433 q 544 472 569 433 q 514 506 524 506 q 494 495 504 506 q 471 461 485 484 l 400 340 l 454 160 q 496 106 471 106 q 551 141 515 106 q 593 189 587 176 q 605 174 599 189 q 612 152 612 160 q 517 50 590 111 q 395 -11 444 -11 q 344 13 363 -11 q 311 79 326 36 q 278 194 311 85 l 225 91 q 95 -9 171 -9 q 4 15 39 -9 q -10 40 -3 22 q -16 80 -16 59 q 3 139 -16 112 q 56 167 22 167 q 117 127 92 167 q 122 120 117 126 q 128 110 126 113 q 134 102 130 107 q 141 96 138 98 q 146 94 144 94 q 195 141 169 94 l 259 256 l 209 427 q 164 483 191 483 q 121 452 151 483 q 85 410 91 420 q 73 424 79 410 q 66 446 66 438 q 159 549 90 490 q 277 609 228 609 z "},"y":{"ha":680,"x_min":-103,"x_max":639,"o":"m 175 609 q 236 590 208 609 q 281 537 263 570 q 314 462 300 505 q 335 372 328 419 q 348 276 342 324 q 355 184 354 228 q 357 106 355 141 q 357 50 358 71 q 357 35 357 39 q 416 126 385 70 q 474 263 447 182 q 500 412 500 344 q 483 476 500 448 q 444 521 465 504 q 473 582 444 554 q 534 609 503 609 q 608 578 577 609 q 639 483 639 548 q 603 315 639 407 q 510 140 567 224 q 380 -25 453 56 q 236 -165 308 -106 q 97 -260 164 -224 q -15 -296 30 -296 q -78 -275 -54 -296 q -103 -212 -103 -254 q -90 -173 -103 -194 q -62 -144 -77 -152 q 0 -173 -39 -158 q 72 -187 38 -187 q 123 -181 101 -187 q 157 -164 146 -174 q 174 -148 169 -154 q 180 -136 178 -141 q 193 69 193 -98 q 183 245 193 155 q 151 410 174 336 q 96 483 127 483 q 71 472 85 483 q 46 448 56 460 q 27 422 37 435 l 18 410 q 4 426 10 410 q -1 446 -3 442 q 24 483 6 459 q 68 537 42 507 q 123 588 94 566 q 175 609 153 609 z "},"z":{"ha":598,"x_min":-22,"x_max":595,"o":"m 231 610 q 359 581 292 610 q 472 555 418 555 q 567 609 509 555 q 575 608 571 609 q 581 606 578 608 q 586 602 584 604 q 589 597 588 600 q 592 592 591 594 q 593 586 593 590 q 594 581 594 583 q 595 575 595 579 q 595 571 595 572 q 493 464 595 563 q 285 268 390 365 q 179 170 180 170 q 236 180 206 180 q 338 160 297 180 q 352 153 340 159 q 371 144 365 147 q 389 137 378 141 q 409 131 399 133 q 426 129 418 129 q 454 138 440 129 q 476 158 468 148 q 493 182 484 168 q 503 197 503 196 q 519 185 513 197 q 528 164 526 174 q 497 115 517 142 q 453 61 478 88 q 398 15 428 33 q 343 -4 368 -4 q 214 26 281 -4 q 102 52 156 52 q 7 -3 64 52 q -1 -2 3 -3 q -7 1 -5 -1 q -12 4 -10 3 q -16 9 -14 6 q -18 14 -17 12 q -20 20 -19 16 q -21 25 -20 24 q -21 31 -21 27 q -22 35 -22 35 q 82 144 -22 45 q 290 339 185 243 q 395 437 394 435 q 338 426 368 426 q 236 446 277 426 q 221 453 234 448 q 202 462 209 459 q 185 469 196 465 q 165 475 174 473 q 148 477 156 477 q 120 468 134 477 q 98 449 106 458 q 81 425 90 439 q 71 410 71 410 q 54 421 61 410 q 46 442 47 432 q 76 491 57 464 q 121 546 96 518 q 176 592 146 573 q 231 610 205 610 z "},"{":{"ha":552,"x_min":180,"x_max":393,"o":"m 180 213 q 180 248 180 213 q 277 407 295 314 q 231 547 270 442 q 197 740 195 642 q 314 1015 200 925 q 363 1019 346 1040 q 358 970 382 995 q 274 774 269 877 q 321 662 276 739 q 369 408 393 544 q 253 231 347 285 q 369 53 347 176 q 321 -201 393 -83 q 274 -313 276 -277 q 358 -509 269 -416 q 363 -558 382 -534 q 314 -554 346 -579 q 197 -279 200 -464 q 231 -86 195 -180 q 277 54 270 19 q 180 213 295 147 z "},"|":{"ha":274,"x_min":100,"x_max":173,"o":"m 173 -513 q 113 -533 173 -521 q 108 -534 109 -534 q 100 -529 101 -534 q 101 -526 100 -528 q 101 -523 101 -524 l 101 979 q 102 987 101 979 q 108 990 105 989 q 161 997 131 997 q 172 989 172 996 l 173 -513 z "},"}":{"ha":552,"x_min":155,"x_max":369,"o":"m 369 213 q 272 54 254 147 q 318 -86 279 19 q 352 -279 354 -180 q 235 -554 349 -464 q 186 -558 203 -579 q 191 -509 166 -534 q 275 -313 279 -416 q 227 -201 273 -277 q 180 53 155 -83 q 296 231 201 176 q 180 408 201 285 q 227 662 155 544 q 275 774 273 739 q 191 970 279 877 q 186 1019 166 995 q 235 1015 203 1040 q 352 740 349 925 q 318 547 354 642 q 272 407 279 442 q 369 248 254 314 l 369 213 z "},"~":{"ha":730,"x_min":76,"x_max":677,"o":"m 262 487 q 339 476 301 487 q 404 451 377 465 q 468 426 430 437 q 545 415 506 415 q 592 425 568 415 q 629 444 616 435 q 671 475 641 452 q 677 454 677 472 q 647 396 677 425 q 575 350 618 367 q 494 332 533 332 q 415 343 454 332 q 351 368 377 355 q 286 393 324 382 q 208 404 248 404 q 160 394 184 404 q 124 376 136 384 q 81 345 112 368 q 76 365 76 347 q 108 425 76 396 q 183 471 140 454 q 262 487 226 487 z "},"":{"ha":335,"x_min":66,"x_max":270,"o":"m 66 500 q 96 571 66 541 q 167 601 125 601 q 240 570 210 601 q 270 496 270 540 q 240 427 270 456 q 168 397 210 397 q 96 428 126 397 q 66 500 66 459 m 163 -285 q 104 -260 129 -285 q 79 -193 79 -235 q 100 13 79 -165 q 136 286 121 191 q 163 321 144 315 q 178 315 168 321 q 194 298 189 308 q 230 34 208 216 q 252 -194 252 -147 q 227 -260 252 -235 q 163 -285 201 -285 z "},"":{"ha":551,"x_min":34,"x_max":514,"o":"m 374 609 q 446 600 412 609 q 494 579 479 591 q 514 511 514 549 q 491 454 514 480 q 438 429 468 429 q 369 479 395 429 q 365 487 368 480 q 360 496 361 494 q 355 505 358 498 q 349 514 351 511 q 342 523 347 517 q 335 530 338 528 q 328 536 332 533 q 319 540 323 538 q 309 541 314 541 q 260 494 285 541 q 220 373 236 446 q 205 231 205 300 q 226 134 205 163 q 289 104 247 104 q 308 107 298 104 q 326 113 317 109 q 345 122 335 117 q 362 133 354 127 q 378 145 370 139 q 393 158 387 152 q 405 170 399 164 q 415 179 411 175 q 422 186 419 183 l 425 190 q 437 177 432 190 q 442 155 442 163 q 409 116 433 140 q 351 62 385 91 q 275 13 317 33 q 197 -8 233 -8 q 82 40 131 -8 q 34 178 34 88 q 85 382 34 281 q 215 546 136 483 q 374 609 295 609 m 381 643 q 429 632 430 643 l 190 -61 q 178 -60 185 -61 q 161 -58 170 -60 q 148 -54 153 -57 q 142 -49 142 -52 l 381 643 z "},"":{"ha":644,"x_min":-1,"x_max":600,"o":"m 309 366 q 260 248 295 298 q 188 165 226 197 q 275 186 227 186 q 356 157 296 186 q 451 127 416 127 q 482 134 468 127 q 509 153 496 140 q 526 172 521 165 q 539 191 530 178 q 549 190 543 193 q 558 182 555 187 q 559 156 563 175 q 532 111 549 136 q 488 57 514 86 q 426 8 461 28 q 356 -11 391 -11 q 297 2 328 -11 q 244 29 267 14 q 190 57 222 44 q 127 69 158 69 q 14 -8 106 69 q 3 5 7 -8 q 1 28 -1 19 q 53 85 12 45 q 102 138 93 125 q 163 315 142 208 q 168 416 170 349 l 78 416 q 90 448 74 422 q 115 473 106 473 l 166 473 q 168 530 165 519 q 224 683 185 616 q 313 790 264 751 q 413 849 362 829 q 509 869 463 869 q 532 868 522 869 q 551 862 542 867 q 564 855 561 857 q 577 845 567 853 q 588 836 587 836 q 579 768 600 811 q 523 726 559 726 q 494 733 507 726 q 475 750 482 740 q 460 769 467 760 q 442 786 453 779 q 416 793 431 793 q 355 746 380 793 q 317 623 330 699 q 312 486 309 572 q 313 473 313 479 l 513 473 q 511 444 523 464 q 489 416 499 423 l 313 416 q 309 366 313 384 z "},"":{"ha":731,"x_min":73,"x_max":685,"o":"m 346 210 q 429 265 391 210 q 483 399 467 319 q 478 558 501 492 q 406 625 454 625 q 320 569 360 625 q 264 433 280 512 q 271 275 246 340 q 346 210 296 210 m 556 617 l 644 692 q 659 689 650 696 q 675 665 667 681 q 685 632 684 648 l 594 556 q 604 416 618 492 q 533 270 587 334 l 586 191 q 582 176 590 186 q 556 153 574 165 q 521 136 538 140 l 469 210 q 326 163 400 163 q 193 217 245 163 l 113 149 q 100 151 108 144 q 83 175 91 157 q 73 209 75 192 l 155 278 q 144 416 130 341 q 222 574 162 507 l 171 650 q 174 662 168 653 q 201 687 182 673 q 237 705 220 701 l 289 631 q 426 673 354 673 q 556 617 505 673 z "},"":{"ha":856,"x_min":126,"x_max":915,"o":"m 189 297 q 182 307 182 297 q 202 357 182 334 l 623 357 q 627 347 627 357 q 609 297 627 313 l 189 297 m 165 176 q 159 186 159 176 q 179 236 159 214 l 600 236 q 604 227 604 236 q 586 176 604 193 l 165 176 m 288 191 l 323 373 q 320 400 324 383 q 288 508 312 432 q 245 646 264 585 l 227 707 q 215 744 221 723 q 203 779 209 765 q 172 810 195 800 q 129 822 149 821 q 129 847 126 829 q 137 871 132 865 q 312 861 218 861 q 486 871 400 861 q 486 847 489 865 q 476 822 482 829 q 469 822 475 822 q 460 821 463 821 q 449 820 456 821 q 437 817 442 819 q 426 814 433 816 q 415 810 420 812 q 406 804 410 808 q 399 797 401 801 q 395 787 396 792 q 395 781 394 784 q 397 774 395 779 q 400 766 399 770 l 488 475 q 560 564 492 470 q 700 761 629 659 q 711 791 709 774 q 627 822 715 814 q 627 847 624 829 q 636 871 631 865 q 772 861 736 861 q 849 866 803 861 q 911 871 895 870 q 911 847 915 865 q 902 822 908 829 q 894 821 901 822 q 883 820 887 821 q 870 819 879 820 q 856 817 861 818 q 841 812 850 815 q 827 807 833 810 q 814 799 821 804 q 804 789 808 795 q 654 595 770 747 q 505 392 538 443 q 492 368 494 377 l 458 191 q 445 66 438 98 q 518 43 448 50 q 517 19 521 37 q 509 -5 514 1 q 335 4 428 4 q 161 -5 247 4 q 161 19 158 1 q 171 43 165 37 q 254 66 245 50 q 261 83 258 74 q 269 106 265 92 q 274 129 273 121 q 281 160 276 138 q 288 191 286 182 z "},"":{"ha":285,"x_min":100,"x_max":173,"o":"m 173 332 q 144 319 172 326 q 108 312 115 312 q 103 313 104 312 q 101 315 101 314 q 101 319 100 316 q 101 323 101 322 l 101 979 q 108 990 100 987 q 162 997 131 997 q 170 995 168 997 q 173 991 173 993 l 173 989 l 173 332 m 101 -522 l 101 127 q 108 138 100 136 q 162 145 131 145 q 170 143 168 145 q 173 139 173 141 l 173 137 l 173 -513 q 144 -526 172 -519 q 108 -533 115 -533 q 103 -532 104 -533 q 101 -530 101 -531 q 101 -526 100 -529 q 101 -522 101 -523 z "},"":{"ha":633,"x_min":49,"x_max":585,"o":"m 198 -125 q 386 -54 308 -125 q 395 -45 391 -50 q 395 -46 395 -46 q 447 0 416 -32 q 509 74 477 33 q 563 164 541 115 q 585 250 585 212 q 579 300 585 276 q 568 343 574 325 q 547 384 562 361 q 523 419 532 407 q 491 455 515 431 q 459 487 468 478 q 422 521 450 495 q 248 745 248 680 q 281 799 248 780 q 351 818 314 818 q 404 800 385 818 q 460 773 435 773 q 513 827 513 773 q 503 868 513 849 q 435 886 462 886 q 248 815 326 886 q 239 806 243 810 q 239 807 239 807 q 187 761 218 793 q 124 687 156 728 q 71 597 93 646 q 49 511 49 549 q 54 460 49 485 q 65 418 59 436 q 86 377 71 399 q 110 342 102 354 q 142 306 119 330 q 174 274 165 283 q 212 240 183 266 q 385 16 385 81 q 352 -38 385 -19 q 282 -57 319 -57 q 233 -42 248 -57 q 175 -12 203 -12 q 134 -29 147 -12 q 121 -71 121 -45 q 130 -106 121 -90 q 198 -125 168 -125 m 463 87 q 464 102 464 95 q 455 147 464 124 q 436 187 447 170 q 405 227 426 204 q 371 262 384 250 q 332 297 358 274 q 298 327 307 319 q 254 369 271 353 q 214 414 237 386 q 177 465 191 441 q 155 520 164 489 q 145 585 145 552 q 156 650 145 626 q 170 673 161 661 q 170 659 170 666 q 178 614 170 637 q 197 574 186 591 q 229 534 208 557 q 262 499 250 511 q 301 464 275 487 q 335 434 327 441 q 380 392 363 408 q 420 347 397 375 q 456 296 443 319 q 479 240 469 272 q 488 176 488 209 q 476 110 488 136 q 463 87 471 100 z "},"":{"ha":468,"x_min":20,"x_max":448,"o":"m 303 826 q 319 839 303 826 q 372 853 335 853 q 428 826 408 853 q 441 760 448 798 q 402 693 433 721 q 334 665 370 665 q 277 692 297 665 q 264 760 257 720 q 303 826 271 798 m 65 826 q 81 839 65 826 q 133 853 96 853 q 190 826 170 853 q 202 760 210 798 q 164 693 195 721 q 96 665 133 665 q 40 692 60 665 q 27 760 20 720 q 65 826 35 798 z "},"":{"ha":886,"x_min":72,"x_max":814,"o":"m 598 342 q 589 296 598 334 q 575 256 581 258 q 548 246 567 254 q 516 234 529 239 q 484 225 503 229 q 446 221 465 221 q 304 273 359 221 q 250 414 250 326 q 310 559 250 502 q 452 617 370 617 q 488 614 468 617 q 536 604 509 610 q 570 595 563 597 q 575 573 570 593 q 584 533 580 553 q 589 511 589 514 q 581 506 589 509 q 568 503 574 503 q 560 505 562 503 q 552 526 557 515 q 536 551 547 537 q 504 573 525 565 q 456 582 484 582 q 393 557 418 582 q 357 497 368 532 q 347 420 347 463 q 377 303 347 351 q 463 255 407 255 q 533 278 508 255 q 572 347 557 300 q 598 342 593 347 m 223 639 q 178 594 223 639 q 133 420 133 549 q 223 202 133 292 q 442 111 314 111 q 661 202 570 111 q 751 420 751 292 q 661 639 751 549 q 442 730 570 730 q 223 639 314 730 m 180 160 q 126 214 180 160 q 72 422 72 269 q 180 684 72 575 q 442 792 289 792 q 629 743 543 792 q 764 608 714 693 q 814 422 814 522 q 764 236 814 321 q 629 101 714 151 q 442 52 543 52 q 180 160 289 52 z "},"":{"ha":541,"x_min":75,"x_max":520,"o":"m 361 334 q 315 347 333 334 q 297 389 297 361 q 300 408 297 395 q 301 417 300 411 q 302 425 302 422 q 242 365 284 394 q 160 335 201 335 q 97 366 119 335 q 75 446 75 397 q 105 563 75 505 q 180 661 135 621 q 279 726 226 701 q 380 751 333 751 q 438 746 406 751 q 486 735 470 741 l 426 473 q 424 458 426 471 q 422 444 422 446 q 437 425 422 425 q 477 448 451 425 q 507 480 503 472 q 516 465 513 477 q 518 444 520 452 q 450 375 503 416 q 361 334 397 334 m 321 692 q 235 627 271 692 q 199 480 199 563 q 235 415 199 415 q 291 472 260 415 q 338 598 322 528 l 357 681 q 321 692 346 692 z "},"":{"ha":576,"x_min":47,"x_max":538,"o":"m 271 463 q 156 234 156 370 q 271 -2 156 97 q 279 -50 295 -22 q 231 -62 264 -79 q 96 60 144 -18 q 48 231 47 140 q 97 402 48 323 q 231 524 146 482 q 280 512 264 540 q 271 463 296 484 m 514 463 q 399 234 399 370 q 514 -2 399 97 q 522 -50 538 -22 q 473 -62 507 -79 q 338 60 387 -18 q 291 231 290 140 q 340 402 291 323 q 473 524 389 482 q 523 512 507 540 q 514 463 538 484 z "},"":{"ha":799,"x_min":62,"x_max":705,"o":"m 705 570 l 705 229 q 691 225 705 229 q 659 220 678 222 q 625 217 639 217 q 614 220 619 217 q 609 224 610 221 l 608 227 l 608 491 l 71 491 q 62 505 62 491 q 83 570 69 570 l 705 570 z "},"":{"ha":391,"x_min":87,"x_max":435,"o":"m 119 362 l 427 378 q 435 362 435 378 q 422 312 435 347 q 400 277 410 277 l 94 262 q 87 282 87 262 q 98 329 87 296 q 119 362 109 361 z "},"":{"ha":886,"x_min":72,"x_max":814,"o":"m 441 680 q 530 653 494 680 q 566 579 566 626 q 537 524 566 549 q 483 491 508 498 q 522 442 500 467 q 555 404 543 418 l 567 391 q 604 358 585 370 q 631 343 623 346 q 644 340 640 340 q 645 335 645 339 q 646 328 646 332 q 644 321 644 324 l 644 317 q 583 315 612 315 q 533 327 553 315 q 494 363 513 338 l 412 473 q 403 481 407 481 l 395 481 l 395 400 q 399 350 395 361 q 414 342 401 345 q 434 339 427 339 q 436 328 436 336 q 434 317 436 319 q 355 321 401 321 q 275 317 308 321 q 273 328 273 319 q 275 339 273 336 q 296 342 283 339 q 311 350 309 345 q 315 400 315 361 l 315 598 q 311 648 315 637 q 275 656 307 656 q 273 668 273 659 q 275 680 273 677 q 357 678 300 678 q 395 679 367 678 q 441 680 423 680 m 481 575 q 466 631 481 609 q 425 654 451 654 q 397 648 400 654 q 395 614 395 642 l 395 507 l 416 507 q 463 526 444 507 q 481 575 481 545 m 223 708 q 178 663 223 708 q 133 490 133 618 q 223 271 133 361 q 442 180 314 180 q 661 271 570 180 q 751 490 751 361 q 661 708 751 618 q 442 799 570 799 q 223 708 314 799 m 180 229 q 126 283 180 229 q 72 491 72 338 q 180 753 72 644 q 442 861 289 861 q 629 812 543 861 q 764 677 714 762 q 814 491 814 591 q 764 305 814 391 q 629 170 714 220 q 442 121 543 121 q 180 229 289 121 z "},"":{"ha":354,"x_min":16,"x_max":345,"o":"m 330 665 l 20 665 q 16 677 16 669 q 23 704 16 685 q 34 723 29 723 l 338 723 q 342 720 340 723 q 345 713 345 718 q 340 689 345 705 q 330 665 336 673 z "},"":{"ha":381,"x_min":108,"x_max":412,"o":"m 178 728 q 190 665 171 692 q 242 639 209 639 q 304 665 275 639 q 341 728 334 692 q 330 791 348 765 q 277 817 311 817 q 214 791 243 817 q 178 728 185 765 m 140 621 q 124 644 140 621 q 120 728 108 666 q 181 834 132 791 q 288 878 231 878 q 379 834 347 878 q 399 728 412 790 q 337 621 387 666 q 230 576 288 576 q 140 621 172 576 z "},"":{"ha":789,"x_min":68,"x_max":720,"o":"m 83 91 l 708 91 q 717 85 713 91 q 720 72 720 79 q 700 12 720 38 l 76 12 q 68 34 68 12 q 72 61 68 42 q 83 91 76 81 m 83 494 l 353 494 l 353 764 q 381 775 362 771 q 410 779 400 779 q 431 766 431 779 l 431 494 l 708 494 q 717 488 713 494 q 720 475 720 481 q 700 415 720 441 l 431 415 l 431 146 q 368 132 409 132 q 357 135 361 132 q 353 142 353 138 l 353 415 l 76 415 q 68 437 68 415 q 72 464 68 445 q 83 494 76 484 z "},"":{"ha":477,"x_min":52,"x_max":420,"o":"m 420 518 q 394 425 414 492 q 369 345 374 359 l 61 345 q 52 363 56 349 q 213 555 144 465 q 262 636 248 600 q 277 712 277 673 q 251 775 277 751 q 190 799 226 799 q 151 789 170 799 q 122 769 132 779 q 103 745 113 758 l 94 732 q 86 733 90 732 q 77 739 81 734 q 72 751 72 744 q 93 784 79 766 q 130 822 107 802 q 183 857 152 843 q 248 871 215 871 q 363 834 321 871 q 406 730 406 798 q 375 636 406 680 q 296 547 345 592 q 167 441 227 484 l 319 441 q 337 445 328 441 q 351 453 346 449 q 363 467 357 457 q 372 482 370 477 q 380 500 374 487 q 387 515 386 513 q 401 522 389 522 q 420 518 414 522 z "},"":{"ha":458,"x_min":49,"x_max":412,"o":"m 243 871 q 331 842 288 871 q 373 757 373 812 q 362 706 373 728 q 334 672 351 684 q 302 655 317 661 q 274 647 288 650 q 299 642 283 646 q 334 628 314 638 q 372 603 355 617 q 400 564 389 588 q 412 511 412 540 q 390 433 412 468 q 333 376 368 397 q 256 343 297 355 q 174 332 215 332 q 105 341 136 332 q 61 361 75 349 q 49 397 49 379 q 61 430 49 414 q 92 445 73 445 q 146 403 119 445 q 173 378 156 387 q 208 369 191 369 q 269 397 247 369 q 290 480 290 425 q 262 565 290 528 q 193 601 233 601 q 149 597 163 601 q 141 617 141 609 q 144 633 141 628 q 181 642 162 636 q 219 658 199 647 q 252 687 239 669 q 264 730 264 706 q 242 786 264 764 q 183 808 220 808 q 142 798 163 808 q 111 779 121 787 q 96 764 101 770 q 82 771 90 765 q 77 787 75 778 q 150 845 102 820 q 243 871 197 871 z "},"":{"ha":274,"x_min":27,"x_max":260,"o":"m 39 665 q 27 681 28 671 q 80 762 31 693 q 157 856 130 830 q 199 865 167 865 q 240 850 220 865 q 260 810 260 835 q 209 753 260 788 q 106 693 157 718 q 39 665 55 668 z "},"":{"ha":718,"x_min":1,"x_max":631,"o":"m 197 595 q 210 600 197 595 q 233 605 222 605 q 274 586 245 605 q 301 555 304 567 q 243 361 283 468 l 224 302 q 219 172 209 222 q 262 122 230 122 q 340 164 309 122 q 392 277 370 206 l 457 587 q 519 605 488 608 q 581 586 558 602 q 601 555 604 570 q 530 334 590 490 l 518 302 q 508 249 512 272 q 501 202 504 227 q 499 162 498 178 q 504 132 500 146 q 516 112 508 119 q 538 106 525 106 q 584 121 558 106 q 620 148 609 136 q 631 130 624 148 q 631 116 631 126 q 629 103 631 106 q 571 26 609 58 q 498 -5 533 -5 q 452 22 471 -5 q 427 89 433 49 q 423 174 420 129 q 390 117 404 140 q 355 68 376 95 q 317 25 335 41 q 276 -1 299 9 q 229 -12 253 -12 q 215 -10 221 -12 q 203 -3 208 -8 q 194 7 198 3 q 187 21 190 12 q 182 36 184 30 q 179 53 180 41 q 176 70 177 64 q 174 87 176 75 q 172 103 173 100 q 159 46 172 98 q 136 -57 146 -6 q 127 -168 126 -108 q 148 -259 127 -227 q 114 -289 139 -271 q 75 -308 89 -308 q 37 -295 52 -308 q 15 -259 22 -281 q 4 -216 7 -237 q 1 -172 1 -195 q 38 7 1 -138 q 113 277 75 151 q 124 345 117 296 q 133 404 131 395 q 167 578 134 408 q 197 595 173 586 z "},"":{"ha":718,"x_min":45,"x_max":659,"o":"m 481 458 q 481 811 481 458 q 442 818 475 818 q 404 810 412 818 q 404 452 404 810 q 447 454 416 452 q 481 458 478 456 m 480 396 q 458 394 475 395 q 428 392 442 393 q 404 391 414 391 l 404 160 q 411 71 404 90 q 442 64 413 64 q 472 69 469 64 q 480 152 480 87 l 480 396 m 548 406 l 548 159 q 555 81 548 100 q 598 56 561 65 q 654 46 635 46 q 659 20 659 37 q 656 -5 659 3 q 445 4 486 4 q 370 2 408 4 q 290 -2 332 1 q 233 -5 248 -5 q 230 13 230 0 q 231 35 229 25 q 233 45 232 45 q 287 55 253 45 q 328 80 321 64 q 336 157 336 98 l 336 389 q 124 453 203 389 q 45 636 45 517 q 62 734 45 690 q 105 805 79 778 q 168 851 132 833 q 238 877 203 869 q 308 884 273 884 q 381 882 348 884 q 454 879 414 879 q 536 880 495 879 q 597 884 576 883 l 617 886 q 622 860 622 880 q 616 836 621 839 q 578 828 599 836 q 553 808 558 820 q 549 722 549 794 l 549 467 q 568 471 552 466 q 601 479 586 475 l 616 484 q 621 471 621 484 q 608 441 620 460 q 590 419 597 422 q 548 406 565 408 z "},"":{"ha":321,"x_min":64,"x_max":254,"o":"m 64 339 q 100 422 64 386 q 179 458 136 458 q 233 436 212 458 q 254 380 254 414 q 218 295 254 334 q 141 255 183 255 q 85 279 107 255 q 64 339 64 304 z "},"":{"ha":551,"x_min":155,"x_max":381,"o":"m 277 -5 l 316 -5 l 285 -39 l 308 -39 q 358 -58 335 -39 q 381 -103 381 -76 q 332 -187 381 -153 q 218 -221 283 -221 q 185 -217 205 -221 q 160 -208 166 -212 q 155 -195 155 -202 q 162 -168 155 -179 q 180 -157 170 -157 q 213 -174 192 -157 q 254 -190 233 -190 q 295 -175 279 -190 q 312 -136 312 -159 q 300 -101 312 -114 q 273 -88 288 -88 q 233 -99 257 -88 q 222 -93 231 -99 q 213 -83 213 -87 q 220 -72 213 -80 q 244 -44 228 -63 q 277 -5 261 -26 z "},"":{"ha":395,"x_min":53,"x_max":352,"o":"m 155 693 q 148 739 155 721 q 129 757 141 757 q 68 735 115 757 q 58 745 63 736 q 53 762 53 754 q 54 772 53 770 q 149 814 96 789 q 234 854 202 839 q 266 869 265 869 l 267 869 q 279 858 271 869 q 289 842 288 846 q 273 727 273 783 l 273 469 q 286 395 273 408 q 316 382 293 387 q 350 377 340 377 q 352 360 352 377 q 350 342 351 343 q 214 347 220 347 q 76 342 206 347 q 73 361 73 345 q 76 377 73 377 q 111 383 87 377 q 141 396 135 389 q 150 429 146 401 q 155 471 155 457 l 155 693 z "},"":{"ha":551,"x_min":47,"x_max":503,"o":"m 263 709 q 232 703 245 709 q 211 685 219 697 q 197 660 203 673 q 190 628 192 646 q 186 594 187 609 q 186 560 186 579 q 195 479 186 517 q 229 411 205 440 q 286 382 252 382 q 329 396 312 382 q 353 433 345 409 q 362 478 360 456 q 365 529 365 500 q 355 611 365 572 q 321 680 345 650 q 263 709 297 709 m 274 750 q 438 693 374 750 q 503 549 503 635 q 437 402 503 463 q 275 340 371 340 q 112 398 176 340 q 47 543 47 456 q 113 689 47 629 q 274 750 179 750 z "},"":{"ha":576,"x_min":38,"x_max":529,"o":"m 305 -2 q 421 235 421 98 q 305 463 420 371 q 296 511 281 483 q 346 524 311 540 q 480 402 431 481 q 529 231 529 322 q 480 60 528 139 q 346 -62 431 -19 q 297 -51 313 -79 q 305 -2 281 -23 m 62 -2 q 178 235 178 98 q 62 463 178 371 q 53 512 38 483 q 103 524 68 541 q 237 402 188 481 q 286 231 286 322 q 237 60 286 139 q 103 -62 189 -19 q 54 -51 71 -79 q 62 -2 38 -23 z "},"":{"ha":1000,"x_min":43,"x_max":961,"o":"m 873 524 q 890 515 879 524 q 901 498 901 507 l 901 187 l 935 187 q 948 125 961 163 l 901 125 l 901 3 q 837 -4 873 -4 q 783 7 783 -4 l 783 125 l 575 125 q 564 134 569 127 q 559 148 559 140 q 856 513 583 176 q 873 524 865 524 m 783 187 l 783 355 q 708 265 766 335 q 644 187 651 195 l 644 187 l 644 187 l 644 187 l 644 187 l 644 187 l 644 187 l 644 187 l 644 187 l 645 187 l 645 187 l 645 187 l 646 187 l 646 187 l 646 187 l 646 187 l 647 187 l 647 187 l 648 187 l 648 187 l 648 187 l 649 187 l 650 187 l 650 187 l 651 187 l 652 187 l 652 187 l 653 187 l 654 187 l 654 187 l 655 187 l 656 187 l 656 187 l 657 187 l 658 187 l 659 187 l 659 187 l 660 187 l 661 187 l 661 187 l 662 187 l 663 187 l 663 187 l 664 187 l 665 187 l 665 187 l 666 187 l 667 187 l 667 187 l 668 187 l 669 187 l 669 187 l 670 187 l 671 187 l 671 187 l 672 187 l 673 187 l 673 187 l 674 187 l 675 187 l 675 187 l 676 187 l 677 187 l 677 187 l 678 187 l 679 187 l 680 187 l 680 187 l 681 187 l 682 187 l 682 187 l 683 187 l 684 187 l 684 187 l 685 187 l 686 187 l 686 187 l 687 187 l 688 187 l 688 187 l 689 187 l 690 187 l 690 187 l 691 187 l 692 187 l 692 187 l 693 187 l 694 187 l 694 187 l 695 187 l 696 187 l 696 187 l 697 187 l 699 187 l 699 187 l 700 187 l 701 187 l 701 187 l 702 187 l 703 187 l 703 187 l 704 187 l 705 187 l 705 187 l 706 187 l 707 187 l 707 187 l 708 187 l 709 187 l 710 187 l 711 187 l 711 187 l 712 187 l 713 187 l 713 187 l 714 187 l 715 187 l 715 187 l 716 187 l 718 187 l 718 187 l 719 187 l 720 187 l 720 187 l 721 187 l 722 187 l 722 187 l 723 187 l 724 187 l 725 187 l 726 187 l 726 187 l 727 187 l 728 187 l 728 187 l 729 187 l 730 187 l 731 187 l 732 187 l 732 187 l 733 187 l 734 187 l 734 187 l 735 187 l 736 187 l 737 187 l 738 187 l 739 187 l 739 187 l 740 187 l 741 187 l 742 187 l 743 187 l 743 187 l 744 187 l 745 187 l 745 187 l 746 187 l 747 187 l 748 187 l 749 187 l 749 187 l 750 187 l 751 187 l 751 187 l 752 187 l 753 187 l 754 187 l 755 187 l 755 187 l 756 187 l 757 187 l 758 187 l 759 187 l 760 187 l 760 187 l 761 187 l 762 187 l 762 187 l 763 187 l 764 187 l 764 187 l 766 187 l 766 187 l 767 187 l 768 187 l 768 187 l 769 187 l 770 187 l 770 187 l 771 187 l 772 187 l 772 187 l 774 187 l 774 187 l 775 187 l 776 187 l 777 187 l 783 187 m 263 727 l 263 469 q 277 395 263 408 q 307 382 283 387 q 340 377 330 377 q 342 360 342 377 q 340 342 342 343 q 205 347 210 347 q 66 342 197 347 q 64 361 64 345 q 66 377 64 377 q 101 383 77 377 q 132 396 125 389 q 141 429 136 401 q 145 471 145 457 l 145 693 q 138 739 145 721 q 119 757 132 757 q 58 735 106 757 q 48 753 54 736 q 45 772 43 770 q 140 814 87 789 q 225 854 193 839 q 258 869 257 869 q 279 842 278 846 q 263 727 263 783 m 297 -46 q 282 -45 288 -48 q 275 -38 277 -42 l 274 -34 l 742 899 q 791 928 755 920 q 807 927 800 930 q 815 918 814 924 l 347 -15 q 329 -32 344 -22 q 297 -46 313 -42 z "},"":{"ha":1015,"x_min":45,"x_max":969,"o":"m 797 524 q 912 487 870 524 q 954 382 954 451 q 924 289 954 333 q 844 199 894 245 q 715 94 775 137 l 867 94 q 886 98 877 94 q 900 106 895 102 q 912 120 905 110 q 921 135 918 130 q 929 153 923 140 q 935 168 935 166 q 950 175 937 175 q 969 171 963 175 q 943 78 963 144 q 918 -3 923 12 l 610 -3 q 600 16 605 2 q 762 208 692 118 q 811 289 796 252 q 825 365 825 326 q 800 428 825 404 q 739 452 774 452 q 699 442 718 452 q 671 421 680 432 q 652 398 661 411 l 642 385 q 634 386 639 385 q 625 392 630 387 q 621 404 621 397 q 642 436 627 418 q 678 475 656 454 q 732 510 701 496 q 797 524 764 524 m 265 727 l 265 469 q 279 395 265 408 q 309 382 286 387 q 342 377 332 377 q 344 360 345 377 q 342 342 344 343 q 207 347 212 347 q 68 342 199 347 q 65 361 65 345 q 68 377 65 377 q 103 383 79 377 q 134 396 127 389 q 143 429 138 401 q 147 471 147 457 l 147 693 q 140 739 147 721 q 121 757 134 757 q 60 735 108 757 q 50 750 56 736 q 47 772 45 764 q 142 814 89 789 q 227 854 195 839 q 260 869 259 869 q 281 842 279 850 q 265 727 265 783 m 787 918 l 319 -15 q 301 -32 316 -22 q 269 -46 286 -42 q 255 -45 260 -48 q 248 -38 249 -42 l 246 -34 l 714 899 q 763 928 728 920 q 779 927 772 930 q 787 918 786 924 z "},"":{"ha":1004,"x_min":46,"x_max":965,"o":"m 878 524 q 894 515 883 524 q 905 498 905 507 l 905 187 l 939 187 q 952 125 965 163 l 905 125 l 905 3 q 841 -4 878 -4 q 787 7 787 -4 l 787 125 l 579 125 q 568 134 573 127 q 563 148 563 140 q 860 513 587 176 q 878 524 869 524 m 787 187 l 787 355 q 712 265 770 335 q 648 187 655 195 l 648 187 l 648 187 l 648 187 l 648 187 l 648 187 l 648 187 l 648 187 l 648 187 l 649 187 l 649 187 l 649 187 l 650 187 l 650 187 l 650 187 l 650 187 l 651 187 l 651 187 l 652 187 l 652 187 l 652 187 l 653 187 l 654 187 l 654 187 l 655 187 l 656 187 l 656 187 l 657 187 l 658 187 l 659 187 l 659 187 l 660 187 l 661 187 l 661 187 l 662 187 l 663 187 l 663 187 l 664 187 l 665 187 l 665 187 l 666 187 l 667 187 l 667 187 l 668 187 l 669 187 l 669 187 l 670 187 l 671 187 l 671 187 l 672 187 l 673 187 l 673 187 l 674 187 l 675 187 l 675 187 l 676 187 l 677 187 l 677 187 l 678 187 l 679 187 l 680 187 l 680 187 l 681 187 l 682 187 l 682 187 l 683 187 l 684 187 l 684 187 l 685 187 l 686 187 l 686 187 l 687 187 l 688 187 l 688 187 l 689 187 l 690 187 l 690 187 l 691 187 l 692 187 l 692 187 l 693 187 l 694 187 l 694 187 l 695 187 l 696 187 l 696 187 l 697 187 l 698 187 l 699 187 l 699 187 l 700 187 l 701 187 l 701 187 l 703 187 l 703 187 l 704 187 l 705 187 l 705 187 l 706 187 l 707 187 l 707 187 l 708 187 l 709 187 l 709 187 l 710 187 l 711 187 l 711 187 l 712 187 l 713 187 l 714 187 l 715 187 l 715 187 l 716 187 l 717 187 l 718 187 l 718 187 l 719 187 l 720 187 l 720 187 l 722 187 l 722 187 l 723 187 l 724 187 l 724 187 l 725 187 l 726 187 l 726 187 l 727 187 l 728 187 l 729 187 l 730 187 l 730 187 l 731 187 l 732 187 l 732 187 l 733 187 l 734 187 l 735 187 l 736 187 l 736 187 l 737 187 l 738 187 l 739 187 l 739 187 l 741 187 l 741 187 l 742 187 l 743 187 l 743 187 l 744 187 l 745 187 l 746 187 l 747 187 l 747 187 l 748 187 l 749 187 l 749 187 l 750 187 l 751 187 l 752 187 l 753 187 l 753 187 l 754 187 l 755 187 l 755 187 l 756 187 l 758 187 l 758 187 l 759 187 l 760 187 l 760 187 l 761 187 l 762 187 l 763 187 l 764 187 l 764 187 l 765 187 l 766 187 l 766 187 l 767 187 l 768 187 l 768 187 l 770 187 l 770 187 l 771 187 l 772 187 l 772 187 l 773 187 l 774 187 l 774 187 l 775 187 l 776 187 l 777 187 l 778 187 l 779 187 l 779 187 l 780 187 l 781 187 l 787 187 m 240 871 q 328 842 286 871 q 370 757 370 812 q 359 706 370 728 q 331 672 349 684 q 300 655 314 661 q 271 647 286 650 q 296 642 281 646 q 332 628 311 638 q 369 603 352 617 q 398 564 386 588 q 410 511 410 540 q 388 433 410 468 q 330 376 366 397 q 253 343 294 355 q 171 332 212 332 q 102 341 133 332 q 58 361 72 349 q 46 397 46 379 q 58 430 46 414 q 90 445 70 445 q 144 403 117 445 q 171 378 153 387 q 205 369 188 369 q 266 397 244 369 q 288 480 288 425 q 259 565 288 528 q 190 601 231 601 q 146 597 160 601 q 138 617 138 609 q 141 633 138 628 q 178 642 159 636 q 217 658 197 647 q 249 687 237 669 q 262 730 262 706 q 239 786 262 764 q 180 808 217 808 q 139 798 160 808 q 109 779 119 787 q 94 764 98 770 q 80 771 87 765 q 75 787 73 778 q 147 845 100 820 q 240 871 194 871 m 833 918 l 365 -15 q 346 -32 361 -22 q 315 -46 331 -42 q 300 -45 306 -48 q 293 -38 294 -42 l 292 -34 l 760 899 q 808 928 773 920 q 824 927 817 930 q 833 918 831 924 z "},"":{"ha":526,"x_min":43,"x_max":465,"o":"m 448 498 q 418 427 448 456 q 350 399 389 399 q 278 428 307 399 q 248 498 248 456 q 276 571 248 540 q 345 602 304 602 q 416 572 384 602 q 448 498 448 542 m 384 305 q 402 245 393 284 q 411 170 411 206 q 402 118 411 142 q 374 74 393 94 q 341 43 356 55 q 302 15 326 31 q 159 -134 159 -80 q 178 -179 159 -159 q 232 -199 198 -199 q 268 -186 248 -199 q 303 -157 288 -173 q 341 -129 319 -142 q 381 -115 362 -115 q 442 -142 418 -115 q 465 -205 465 -170 q 459 -241 465 -222 q 445 -267 452 -261 q 323 -290 404 -290 q 270 -284 301 -290 q 198 -260 239 -277 q 124 -217 158 -243 q 67 -149 90 -192 q 43 -52 43 -105 q 48 -10 43 -30 q 59 25 53 10 q 79 56 66 40 q 101 81 92 72 q 129 104 111 91 q 157 123 148 118 q 187 142 165 129 q 214 159 208 155 q 243 176 222 163 q 276 196 264 189 q 302 216 288 203 q 326 240 317 229 q 330 250 328 244 q 332 262 332 255 q 333 275 332 269 q 333 288 333 280 q 332 297 332 295 q 341 313 334 304 q 353 321 348 321 q 384 305 368 321 z "},"":{"ha":841,"x_min":-85,"x_max":795,"o":"m 555 987 q 477 1006 536 990 q 352 1051 417 1022 q 286 1104 286 1080 q 310 1137 286 1126 q 361 1147 333 1147 q 424 1137 406 1147 q 510 1067 461 1115 q 568 1005 559 1019 q 555 987 568 997 m 83 182 l 482 846 q 510 880 492 861 q 538 898 528 898 q 553 895 546 898 q 562 888 561 892 l 688 201 q 698 146 693 178 q 705 103 703 115 q 721 71 709 84 q 750 53 734 58 q 776 46 766 48 q 793 45 785 45 q 792 17 795 36 q 785 -5 789 -1 q 712 0 773 -5 q 618 5 650 5 q 556 3 592 5 q 479 -2 520 1 q 425 -5 437 -5 q 426 22 421 -1 q 436 45 431 45 q 477 51 454 45 q 515 69 500 58 q 531 92 529 79 q 523 149 532 98 q 505 250 514 201 l 494 298 q 488 304 492 304 q 367 305 464 305 q 235 304 280 305 q 224 297 228 304 q 157 183 178 221 q 112 91 114 107 q 121 69 110 79 q 150 54 133 59 q 181 47 168 50 q 200 45 195 45 q 200 19 204 38 q 191 -5 195 -1 q 56 5 104 5 q -82 -5 7 5 q -83 15 -85 -2 q -75 43 -81 33 q -25 58 -61 43 q 21 87 10 72 q 83 182 46 120 m 428 646 l 268 380 q 271 374 268 374 q 374 370 307 370 q 475 373 436 370 q 478 374 477 373 q 480 378 479 377 l 481 380 l 428 646 z "},"":{"ha":841,"x_min":-85,"x_max":799,"o":"m 530 987 q 517 1005 517 997 q 575 1067 526 1019 q 661 1137 624 1115 q 724 1147 679 1147 q 775 1137 752 1147 q 799 1104 799 1126 q 733 1051 799 1080 q 608 1006 668 1022 q 530 987 549 990 m 83 182 l 482 846 q 510 880 492 861 q 538 898 528 898 q 553 895 546 898 q 562 888 561 892 l 688 201 q 698 146 693 178 q 705 103 703 115 q 721 71 709 84 q 750 53 734 58 q 776 46 766 48 q 793 45 785 45 q 792 17 795 36 q 785 -5 789 -1 q 712 0 773 -5 q 618 5 650 5 q 556 3 592 5 q 479 -2 520 1 q 425 -5 437 -5 q 426 22 421 -1 q 436 45 431 45 q 477 51 454 45 q 515 69 500 58 q 531 92 529 79 q 523 149 532 98 q 505 250 514 201 l 494 298 q 488 304 492 304 q 367 305 464 305 q 235 304 280 305 q 224 297 228 304 q 157 183 178 221 q 112 91 114 107 q 121 69 110 79 q 150 54 133 59 q 181 47 168 50 q 200 45 195 45 q 200 19 204 38 q 191 -5 195 -1 q 56 5 104 5 q -82 -5 7 5 q -83 15 -85 -2 q -75 43 -81 33 q -25 58 -61 43 q 21 87 10 72 q 83 182 46 120 m 428 646 l 268 380 q 271 374 268 374 q 374 370 307 370 q 475 373 436 370 q 478 374 477 373 q 480 378 479 377 l 481 380 l 428 646 z "},"":{"ha":841,"x_min":-85,"x_max":795,"o":"m 587 1180 q 602 1166 591 1180 q 667 1086 625 1136 q 732 1012 709 1036 q 715 990 728 994 q 648 1023 703 994 q 568 1072 594 1053 q 471 1023 534 1053 q 390 990 407 994 q 383 999 386 992 q 380 1012 380 1006 q 568 1166 517 1118 q 587 1180 581 1180 m 83 182 l 482 846 q 510 880 492 861 q 538 898 528 898 q 553 895 546 898 q 562 888 561 892 l 688 201 q 698 146 693 178 q 705 103 703 115 q 721 71 709 84 q 750 53 734 58 q 776 46 766 48 q 793 45 785 45 q 792 17 795 36 q 785 -5 789 -1 q 712 0 773 -5 q 618 5 650 5 q 556 3 592 5 q 479 -2 520 1 q 425 -5 437 -5 q 426 22 421 -1 q 436 45 431 45 q 477 51 454 45 q 515 69 500 58 q 531 92 529 79 q 523 149 532 98 q 505 250 514 201 l 494 298 q 488 304 492 304 q 367 305 464 305 q 235 304 280 305 q 224 297 228 304 q 157 183 178 221 q 112 91 114 107 q 121 69 110 79 q 150 54 133 59 q 181 47 168 50 q 200 45 195 45 q 200 19 204 38 q 191 -5 195 -1 q 56 5 104 5 q -82 -5 7 5 q -83 15 -85 -2 q -75 43 -81 33 q -25 58 -61 43 q 21 87 10 72 q 83 182 46 120 m 428 646 l 268 380 q 271 374 268 374 q 374 370 307 370 q 475 373 436 370 q 478 374 477 373 q 480 378 479 377 l 481 380 l 428 646 z "},"":{"ha":841,"x_min":-85,"x_max":795,"o":"m 485 1112 q 570 1090 534 1112 q 602 1073 591 1078 q 632 1061 612 1067 q 672 1055 652 1055 q 763 1112 720 1055 q 775 1093 775 1108 q 749 1038 775 1066 q 640 987 701 987 q 554 1009 591 987 q 523 1027 533 1021 q 493 1038 513 1032 q 452 1044 473 1044 q 361 987 404 1044 q 349 1006 349 991 q 375 1062 349 1034 q 485 1112 423 1112 m 83 182 l 482 846 q 510 880 492 861 q 538 898 528 898 q 553 895 546 898 q 562 888 561 892 l 688 201 q 698 146 693 178 q 705 103 703 115 q 721 71 709 84 q 750 53 734 58 q 776 46 766 48 q 793 45 785 45 q 792 17 795 36 q 785 -5 789 -1 q 712 0 773 -5 q 618 5 650 5 q 556 3 592 5 q 479 -2 520 1 q 425 -5 437 -5 q 426 22 421 -1 q 436 45 431 45 q 477 51 454 45 q 515 69 500 58 q 531 92 529 79 q 523 149 532 98 q 505 250 514 201 l 494 298 q 488 304 492 304 q 367 305 464 305 q 235 304 280 305 q 224 297 228 304 q 157 183 178 221 q 112 91 114 107 q 121 69 110 79 q 150 54 133 59 q 181 47 168 50 q 200 45 195 45 q 200 19 204 38 q 191 -5 195 -1 q 56 5 104 5 q -82 -5 7 5 q -83 15 -85 -2 q -75 43 -81 33 q -25 58 -61 43 q 21 87 10 72 q 83 182 46 120 m 428 646 l 268 380 q 271 374 268 374 q 374 370 307 370 q 475 373 436 370 q 478 374 477 373 q 480 378 479 377 l 481 380 l 428 646 z "},"":{"ha":841,"x_min":-85,"x_max":808,"o":"m 643 1018 q 633 1033 643 1018 q 630 1085 623 1047 q 668 1149 637 1123 q 733 1176 698 1176 q 788 1149 768 1176 q 801 1085 808 1122 q 764 1018 793 1046 q 699 989 734 989 q 643 1018 663 989 m 380 1018 q 370 1033 380 1018 q 367 1085 359 1047 q 405 1149 374 1123 q 470 1176 435 1176 q 525 1149 505 1176 q 538 1085 545 1122 q 501 1018 530 1046 q 436 989 471 989 q 380 1018 400 989 m 83 182 l 482 846 q 510 880 492 861 q 538 898 528 898 q 553 895 546 898 q 562 888 561 892 l 688 201 q 698 146 693 178 q 705 103 703 115 q 721 71 709 84 q 750 53 734 58 q 776 46 766 48 q 793 45 785 45 q 792 17 795 36 q 785 -5 789 -1 q 712 0 773 -5 q 618 5 650 5 q 556 3 592 5 q 479 -2 520 1 q 425 -5 437 -5 q 426 22 421 -1 q 436 45 431 45 q 477 51 454 45 q 515 69 500 58 q 531 92 529 79 q 523 149 532 98 q 505 250 514 201 l 494 298 q 488 304 492 304 q 367 305 464 305 q 235 304 280 305 q 224 297 228 304 q 157 183 178 221 q 112 91 114 107 q 121 69 110 79 q 150 54 133 59 q 181 47 168 50 q 200 45 195 45 q 200 19 204 38 q 191 -5 195 -1 q 56 5 104 5 q -82 -5 7 5 q -83 15 -85 -2 q -75 43 -81 33 q -25 58 -61 43 q 21 87 10 72 q 83 182 46 120 m 428 646 l 268 380 q 271 374 268 374 q 374 370 307 370 q 475 373 436 370 q 478 374 477 373 q 480 378 479 377 l 481 380 l 428 646 z "},"":{"ha":841,"x_min":-85,"x_max":795,"o":"m 529 1081 q 518 1071 529 1081 q 500 1029 506 1060 q 509 978 494 999 q 553 956 524 956 q 605 978 581 956 q 634 1029 628 999 q 625 1081 640 1060 q 581 1103 610 1103 q 529 1081 553 1103 m 460 935 q 446 955 460 935 q 441 1029 431 975 q 496 1123 452 1084 q 592 1162 541 1162 q 672 1123 643 1162 q 691 1029 701 1084 q 636 935 681 975 q 541 895 591 895 q 460 935 490 895 m 83 182 l 482 846 q 510 880 492 861 q 538 898 528 898 q 553 895 546 898 q 562 888 561 892 l 688 201 q 698 146 693 178 q 705 103 703 115 q 721 71 709 84 q 750 53 734 58 q 776 46 766 48 q 793 45 785 45 q 792 17 795 36 q 785 -5 789 -1 q 712 0 773 -5 q 618 5 650 5 q 556 3 592 5 q 479 -2 520 1 q 425 -5 437 -5 q 426 22 421 -1 q 436 45 431 45 q 477 51 454 45 q 515 69 500 58 q 531 92 529 79 q 523 149 532 98 q 505 250 514 201 l 494 298 q 488 304 492 304 q 367 305 464 305 q 235 304 280 305 q 224 297 228 304 q 157 183 178 221 q 112 91 114 107 q 121 69 110 79 q 150 54 133 59 q 181 47 168 50 q 200 45 195 45 q 200 19 204 38 q 191 -5 195 -1 q 56 5 104 5 q -82 -5 7 5 q -83 15 -85 -2 q -75 43 -81 33 q -25 58 -61 43 q 21 87 10 72 q 83 182 46 120 m 428 646 l 268 380 q 271 374 268 374 q 374 370 307 370 q 475 373 436 370 q 478 374 477 373 q 480 378 479 377 l 481 380 l 428 646 z "},"":{"ha":1172,"x_min":-88,"x_max":1125,"o":"m 688 891 q 898 896 719 891 q 1101 901 1078 900 q 1116 700 1103 841 q 1086 693 1109 693 q 1067 704 1069 693 q 1050 758 1059 736 q 1028 800 1042 779 q 993 831 1014 821 q 945 841 972 841 l 840 841 q 775 825 784 841 q 760 742 767 808 l 736 488 q 752 478 736 482 q 789 473 768 473 l 855 473 q 933 491 911 473 q 977 568 956 509 q 992 579 981 579 q 1015 572 1010 579 l 989 312 q 966 307 984 307 q 950 317 950 307 q 913 400 941 386 q 820 410 895 410 q 726 391 728 410 l 705 191 q 701 145 703 177 q 705 84 700 113 q 732 64 709 71 q 783 57 755 57 l 867 57 q 989 102 943 57 q 1069 231 1025 136 q 1088 239 1074 239 q 1111 236 1098 239 q 1125 231 1123 233 q 1109 193 1122 222 q 1090 150 1097 163 q 1074 110 1084 136 q 1057 67 1063 83 q 1044 31 1051 51 q 1034 -3 1038 12 q 592 -3 762 -3 q 418 -4 435 -3 q 416 20 414 2 q 422 46 417 39 q 507 69 499 52 q 528 197 519 97 l 545 359 q 543 361 544 360 q 542 364 543 363 q 539 365 541 365 q 431 366 515 366 q 314 365 359 366 q 302 358 305 365 q 180 183 205 221 q 127 91 132 109 q 134 69 123 79 q 162 54 145 59 q 192 47 179 50 q 211 45 205 45 q 213 18 214 38 q 207 -5 211 -1 q 55 5 120 5 q -83 -5 6 5 q -88 16 -87 0 q -82 43 -88 31 q -31 58 -68 43 q 18 87 6 72 q 43 117 33 104 q 68 152 53 130 q 89 182 83 174 l 517 800 q 528 825 528 818 q 516 839 528 833 q 494 845 503 845 q 494 871 491 853 q 501 895 496 888 q 688 891 557 891 m 585 769 l 353 441 q 356 435 353 435 q 443 431 393 431 q 546 434 507 431 q 549 436 547 434 q 552 439 551 438 l 553 441 l 580 696 q 585 769 582 715 z "},"":{"ha":876,"x_min":71,"x_max":865,"o":"m 425 -4 l 467 -4 l 433 -39 l 457 -39 q 511 -59 486 -39 q 536 -107 536 -78 q 484 -196 536 -160 q 363 -232 433 -232 q 328 -228 349 -232 q 301 -218 307 -223 q 296 -205 296 -213 q 303 -177 296 -188 q 323 -165 311 -165 q 357 -182 335 -165 q 400 -199 378 -199 q 444 -183 427 -199 q 461 -142 461 -167 q 449 -106 461 -119 q 420 -92 436 -92 q 378 -103 404 -92 q 366 -97 376 -103 q 357 -85 357 -90 q 365 -74 357 -83 q 390 -45 372 -65 q 425 -4 408 -26 m 601 846 q 473 810 534 846 q 367 712 412 774 q 293 559 321 650 q 266 363 266 468 q 272 283 266 323 q 296 199 279 242 q 337 124 313 157 q 403 71 362 92 q 495 50 444 50 q 658 109 588 50 q 715 172 686 132 q 760 240 745 213 q 779 277 775 267 q 821 260 806 277 q 779 152 817 243 q 728 54 741 61 q 606 6 669 22 q 457 -9 542 -9 q 316 13 380 -9 q 207 73 251 35 q 131 161 162 111 q 85 264 100 210 q 71 374 71 319 q 102 559 71 473 q 188 708 134 646 q 310 815 241 770 q 454 883 379 861 q 601 905 528 905 q 865 865 692 905 q 858 768 865 854 q 848 670 850 682 q 838 657 846 663 q 818 651 829 651 q 802 656 806 651 q 795 696 801 675 q 775 746 790 718 q 740 795 761 773 q 683 831 719 817 q 601 846 646 846 z "},"":{"ha":776,"x_min":-14,"x_max":755,"o":"m 570 970 q 491 988 551 972 q 366 1033 431 1004 q 300 1086 300 1062 q 324 1119 300 1109 q 376 1130 347 1130 q 438 1119 420 1130 q 524 1049 475 1097 q 582 987 573 1001 q 570 970 582 979 m 343 891 q 553 896 374 891 q 755 901 732 900 q 753 700 753 855 q 722 693 746 693 q 704 704 706 693 q 692 758 699 736 q 674 800 686 779 q 642 831 662 821 q 594 841 622 841 l 490 841 q 423 825 433 841 q 418 814 420 820 q 414 799 416 808 q 410 784 412 790 q 406 764 409 779 q 401 742 403 749 l 354 499 q 360 492 353 495 q 380 486 368 488 q 406 484 392 484 l 472 484 q 552 502 528 484 q 602 579 576 519 q 618 590 606 590 q 642 583 637 590 l 591 323 q 567 317 586 317 q 552 328 552 317 q 524 411 549 398 q 430 420 505 420 q 335 401 338 420 l 294 191 q 283 84 279 103 q 309 64 286 71 q 359 57 332 57 l 444 57 q 570 102 519 57 q 662 231 610 137 q 682 239 666 239 q 704 236 692 239 q 718 231 715 233 q 694 186 715 226 q 666 132 673 146 q 644 86 659 117 q 620 35 629 56 q 605 -3 611 14 q 163 -3 333 -3 q -11 -4 5 -3 q -11 21 -14 2 q -1 46 -7 39 q 84 69 75 52 q 118 197 100 97 l 216 696 q 220 719 217 703 q 224 742 223 736 q 228 762 226 749 q 231 781 230 774 q 232 796 231 787 q 232 811 233 805 q 231 823 232 818 q 153 845 228 839 q 155 870 151 852 q 164 895 159 889 q 343 891 220 891 z "},"":{"ha":776,"x_min":-14,"x_max":755,"o":"m 444 970 q 431 987 431 979 q 489 1049 440 1001 q 575 1119 538 1097 q 637 1130 593 1130 q 689 1119 666 1130 q 713 1086 713 1109 q 647 1033 713 1062 q 522 988 582 1004 q 444 970 463 972 m 343 891 q 553 896 374 891 q 755 901 732 900 q 753 700 753 855 q 722 693 746 693 q 704 704 706 693 q 692 758 699 736 q 674 800 686 779 q 642 831 662 821 q 594 841 622 841 l 490 841 q 423 825 433 841 q 418 814 420 820 q 414 799 416 808 q 410 784 412 790 q 406 764 409 779 q 401 742 403 749 l 354 499 q 360 492 353 495 q 380 486 368 488 q 406 484 392 484 l 472 484 q 552 502 528 484 q 602 579 576 519 q 618 590 606 590 q 642 583 637 590 l 591 323 q 567 317 586 317 q 552 328 552 317 q 524 411 549 398 q 430 420 505 420 q 335 401 338 420 l 294 191 q 283 84 279 103 q 309 64 286 71 q 359 57 332 57 l 444 57 q 570 102 519 57 q 662 231 610 137 q 682 239 666 239 q 704 236 692 239 q 718 231 715 233 q 694 186 715 226 q 666 132 673 146 q 644 86 659 117 q 620 35 629 56 q 605 -3 611 14 q 163 -3 333 -3 q -11 -4 5 -3 q -11 21 -14 2 q -1 46 -7 39 q 84 69 75 52 q 118 197 100 97 l 216 696 q 220 719 217 703 q 224 742 223 736 q 228 762 226 749 q 231 781 230 774 q 232 796 231 787 q 232 811 233 805 q 231 823 232 818 q 153 845 228 839 q 155 870 151 852 q 164 895 159 889 q 343 891 220 891 z "},"":{"ha":776,"x_min":-14,"x_max":755,"o":"m 521 1180 q 536 1166 525 1180 q 601 1086 559 1136 q 666 1012 643 1036 q 650 990 663 994 q 583 1023 637 994 q 502 1072 528 1053 q 405 1023 469 1053 q 324 990 341 994 q 317 999 320 992 q 315 1012 314 1006 q 502 1166 451 1118 q 521 1180 515 1180 m 343 891 q 553 896 374 891 q 755 901 732 900 q 753 700 753 855 q 722 693 746 693 q 704 704 706 693 q 692 758 699 736 q 674 800 686 779 q 642 831 662 821 q 594 841 622 841 l 490 841 q 423 825 433 841 q 418 814 420 820 q 414 799 416 808 q 410 784 412 790 q 406 764 409 779 q 401 742 403 749 l 354 499 q 360 492 353 495 q 380 486 368 488 q 406 484 392 484 l 472 484 q 552 502 528 484 q 602 579 576 519 q 618 590 606 590 q 642 583 637 590 l 591 323 q 567 317 586 317 q 552 328 552 317 q 524 411 549 398 q 430 420 505 420 q 335 401 338 420 l 294 191 q 283 84 279 103 q 309 64 286 71 q 359 57 332 57 l 444 57 q 570 102 519 57 q 662 231 610 137 q 682 239 666 239 q 704 236 692 239 q 718 231 715 233 q 694 186 715 226 q 666 132 673 146 q 644 86 659 117 q 620 35 629 56 q 605 -3 611 14 q 163 -3 333 -3 q -11 -4 5 -3 q -11 21 -14 2 q -1 46 -7 39 q 84 69 75 52 q 118 197 100 97 l 216 696 q 220 719 217 703 q 224 742 223 736 q 228 762 226 749 q 231 781 230 774 q 232 796 231 787 q 232 811 233 805 q 231 823 232 818 q 153 845 228 839 q 155 870 151 852 q 164 895 159 889 q 343 891 220 891 z "},"":{"ha":776,"x_min":-14,"x_max":755,"o":"m 591 1018 q 581 1033 591 1018 q 578 1085 570 1047 q 615 1149 585 1123 q 681 1176 646 1176 q 735 1149 715 1176 q 749 1085 755 1122 q 712 1018 741 1046 q 647 989 682 989 q 591 1018 611 989 m 328 1018 q 317 1033 328 1018 q 315 1085 307 1047 q 352 1149 322 1123 q 418 1176 382 1176 q 472 1149 452 1176 q 486 1085 492 1122 q 449 1018 478 1046 q 384 989 419 989 q 328 1018 348 989 m 343 891 q 553 896 374 891 q 755 901 732 900 q 753 700 753 855 q 722 693 746 693 q 704 704 706 693 q 692 758 699 736 q 674 800 686 779 q 642 831 662 821 q 594 841 622 841 l 490 841 q 423 825 433 841 q 418 814 420 820 q 414 799 416 808 q 410 784 412 790 q 406 764 409 779 q 401 742 403 749 l 354 499 q 360 492 353 495 q 380 486 368 488 q 406 484 392 484 l 472 484 q 552 502 528 484 q 602 579 576 519 q 618 590 606 590 q 642 583 637 590 l 591 323 q 567 317 586 317 q 552 328 552 317 q 524 411 549 398 q 430 420 505 420 q 335 401 338 420 l 294 191 q 283 84 279 103 q 309 64 286 71 q 359 57 332 57 l 444 57 q 570 102 519 57 q 662 231 610 137 q 682 239 666 239 q 704 236 692 239 q 718 231 715 233 q 694 186 715 226 q 666 132 673 146 q 644 86 659 117 q 620 35 629 56 q 605 -3 611 14 q 163 -3 333 -3 q -11 -4 5 -3 q -11 21 -14 2 q -1 46 -7 39 q 84 69 75 52 q 118 197 100 97 l 216 696 q 220 719 217 703 q 224 742 223 736 q 228 762 226 749 q 231 781 230 774 q 232 796 231 787 q 232 811 233 805 q 231 823 232 818 q 153 845 228 839 q 155 870 151 852 q 164 895 159 889 q 343 891 220 891 z "},"":{"ha":479,"x_min":-16,"x_max":526,"o":"m 445 970 q 366 988 426 972 q 241 1033 307 1004 q 176 1086 176 1062 q 199 1119 176 1109 q 251 1130 222 1130 q 313 1119 296 1130 q 399 1049 351 1097 q 457 987 448 1001 q 445 970 457 979 m 343 888 q 522 898 434 888 q 522 873 526 892 q 513 848 519 854 q 427 823 437 842 q 392 696 410 791 l 296 197 q 291 173 294 190 q 287 150 288 157 q 283 131 286 144 q 281 112 281 118 q 279 97 280 106 q 279 81 279 87 q 281 69 279 75 q 357 45 283 51 q 356 19 359 38 q 347 -5 353 1 q 168 4 264 4 q -12 -5 76 4 q -12 19 -16 1 q -1 45 -7 38 q 84 69 75 51 q 118 197 100 97 l 216 696 q 220 719 217 703 q 224 742 223 736 q 228 762 226 749 q 231 781 230 774 q 232 796 231 787 q 232 811 233 805 q 231 823 232 818 q 155 848 228 842 q 155 873 152 854 q 164 898 159 892 q 343 888 247 888 z "},"":{"ha":479,"x_min":-16,"x_max":532,"o":"m 263 970 q 251 987 251 979 q 309 1049 260 1001 q 395 1119 357 1097 q 457 1130 412 1130 q 509 1119 486 1130 q 532 1086 532 1109 q 467 1033 532 1062 q 342 988 401 1004 q 263 970 282 972 m 343 888 q 522 898 434 888 q 522 873 526 892 q 513 848 519 854 q 427 823 437 842 q 392 696 410 791 l 296 197 q 291 173 294 190 q 287 150 288 157 q 283 131 286 144 q 281 112 281 118 q 279 97 280 106 q 279 81 279 87 q 281 69 279 75 q 357 45 283 51 q 356 19 359 38 q 347 -5 353 1 q 168 4 264 4 q -12 -5 76 4 q -12 19 -16 1 q -1 45 -7 38 q 84 69 75 51 q 118 197 100 97 l 216 696 q 220 719 217 703 q 224 742 223 736 q 228 762 226 749 q 231 781 230 774 q 232 796 231 787 q 232 811 233 805 q 231 823 232 818 q 155 848 228 842 q 155 873 152 854 q 164 898 159 892 q 343 888 247 888 z "},"":{"ha":479,"x_min":-16,"x_max":534,"o":"m 389 1180 q 404 1166 393 1180 q 469 1086 427 1136 q 534 1012 511 1036 q 518 990 531 994 q 451 1023 505 994 q 370 1072 397 1053 q 273 1023 337 1053 q 193 990 210 994 q 185 999 189 992 q 183 1012 182 1006 q 370 1166 319 1118 q 389 1180 384 1180 m 343 888 q 522 898 434 888 q 522 873 526 892 q 513 848 519 854 q 427 823 437 842 q 392 696 410 791 l 296 197 q 291 173 294 190 q 287 150 288 157 q 283 131 286 144 q 281 112 281 118 q 279 97 280 106 q 279 81 279 87 q 281 69 279 75 q 357 45 283 51 q 356 19 359 38 q 347 -5 353 1 q 168 4 264 4 q -12 -5 76 4 q -12 19 -16 1 q -1 45 -7 38 q 84 69 75 51 q 118 197 100 97 l 216 696 q 220 719 217 703 q 224 742 223 736 q 228 762 226 749 q 231 781 230 774 q 232 796 231 787 q 232 811 233 805 q 231 823 232 818 q 155 848 228 842 q 155 873 152 854 q 164 898 159 892 q 343 888 247 888 z "},"":{"ha":479,"x_min":-16,"x_max":610,"o":"m 446 1018 q 435 1033 446 1018 q 433 1085 425 1047 q 470 1149 440 1123 q 536 1176 500 1176 q 590 1149 570 1176 q 604 1085 610 1122 q 567 1018 596 1046 q 502 989 537 989 q 446 1018 466 989 m 182 1018 q 172 1033 182 1018 q 170 1085 162 1047 q 207 1149 177 1123 q 273 1176 237 1176 q 327 1149 307 1176 q 340 1085 347 1122 q 303 1018 333 1046 q 239 989 274 989 q 182 1018 203 989 m 343 888 q 522 898 434 888 q 522 873 526 892 q 513 848 519 854 q 427 823 437 842 q 392 696 410 791 l 296 197 q 291 173 294 190 q 287 150 288 157 q 283 131 286 144 q 281 112 281 118 q 279 97 280 106 q 279 81 279 87 q 281 69 279 75 q 357 45 283 51 q 356 19 359 38 q 347 -5 353 1 q 168 4 264 4 q -12 -5 76 4 q -12 19 -16 1 q -1 45 -7 38 q 84 69 75 51 q 118 197 100 97 l 216 696 q 220 719 217 703 q 224 742 223 736 q 228 762 226 749 q 231 781 230 774 q 232 796 231 787 q 232 811 233 805 q 231 823 232 818 q 155 848 228 842 q 155 873 152 854 q 164 898 159 892 q 343 888 247 888 z "},"":{"ha":978,"x_min":-13,"x_max":959,"o":"m 403 742 l 296 191 q 285 84 281 103 q 310 62 288 71 q 358 53 332 53 q 603 141 514 53 q 731 426 692 229 q 702 731 769 621 q 491 841 635 841 q 425 825 435 841 q 419 814 422 820 q 415 799 417 808 q 412 784 413 790 q 407 764 410 779 q 403 742 404 749 m 538 895 q 782 837 683 895 q 920 673 880 779 q 932 430 959 568 q 874 263 914 337 q 781 140 835 189 q 657 58 727 90 q 513 11 588 25 q 354 -4 438 -4 l -9 -4 q -9 21 -13 2 q 0 46 -6 39 q 85 69 77 52 q 119 197 101 97 l 217 696 q 221 719 218 703 q 226 742 224 736 q 229 762 227 749 q 232 781 231 774 q 233 796 233 787 q 234 811 234 805 q 232 823 233 818 q 155 845 229 839 q 156 870 152 852 q 165 895 160 889 q 345 891 221 891 q 445 893 375 891 q 538 895 514 895 m 81 465 l 529 465 q 535 462 533 465 q 536 454 537 458 q 521 412 530 425 l 72 412 q 68 427 64 412 q 81 465 74 458 z "},"":{"ha":970,"x_min":-27,"x_max":1045,"o":"m 512 1112 q 597 1090 561 1112 q 629 1073 618 1078 q 659 1061 639 1067 q 699 1055 679 1055 q 790 1112 747 1055 q 802 1093 802 1108 q 777 1038 802 1066 q 667 987 728 987 q 581 1009 618 987 q 550 1027 560 1021 q 520 1038 540 1032 q 479 1044 500 1044 q 389 987 431 1044 q 376 1006 376 991 q 402 1062 376 1034 q 512 1112 450 1112 m 299 888 q 439 898 365 888 q 483 791 448 861 q 551 660 517 721 q 646 493 586 598 q 734 336 706 388 q 748 392 738 344 l 797 646 q 817 819 824 793 q 779 842 814 835 q 721 849 745 849 q 721 859 720 850 q 724 881 721 868 q 730 899 726 894 q 801 893 752 898 q 882 888 850 888 q 971 893 914 888 q 1044 899 1029 899 q 1041 874 1045 892 q 1030 848 1038 857 q 1000 846 1019 848 q 955 837 982 845 q 920 817 928 829 q 898 745 913 802 q 874 650 882 687 l 785 189 q 753 -1 774 133 q 721 -7 748 -7 q 688 24 705 -7 l 306 704 l 211 213 q 200 137 204 177 q 199 81 197 96 q 240 56 201 65 q 296 46 278 46 q 296 20 300 37 q 288 -5 292 3 q 218 0 274 -5 q 131 5 163 5 q 48 1 98 5 q -25 -5 -3 -4 q -25 13 -27 0 q -19 35 -22 25 q -14 45 -16 45 q 44 55 5 45 q 93 80 83 64 q 115 137 102 96 q 135 217 128 179 q 188 493 155 321 q 229 697 222 664 q 238 776 239 754 q 229 819 237 798 q 195 839 223 831 q 151 848 167 848 q 148 859 149 849 q 151 882 148 869 q 158 898 154 895 q 196 895 169 897 q 248 890 222 892 q 299 888 273 888 z "},"":{"ha":956,"x_min":66,"x_max":921,"o":"m 606 970 q 528 988 587 972 q 402 1033 468 1004 q 337 1086 337 1062 q 360 1119 337 1109 q 412 1130 384 1130 q 475 1119 457 1130 q 561 1049 512 1097 q 618 987 610 1001 q 606 970 618 979 m 545 846 q 444 814 491 846 q 365 729 397 782 q 308 609 332 677 q 273 471 284 542 q 262 331 262 399 q 272 220 262 271 q 303 130 282 170 q 360 67 324 90 q 442 45 395 45 q 563 93 508 45 q 653 217 618 141 q 707 381 688 293 q 726 556 726 470 q 707 701 726 637 q 646 806 688 765 q 545 846 604 846 m 575 905 q 722 871 655 905 q 832 784 789 838 q 898 665 874 730 q 921 533 921 600 q 888 343 921 433 q 802 190 856 254 q 681 79 749 126 q 541 9 613 33 q 400 -14 469 -14 q 230 37 307 -14 q 110 172 153 87 q 66 354 66 256 q 98 541 66 452 q 181 694 129 629 q 299 808 233 760 q 436 880 365 856 q 575 905 507 905 z "},"":{"ha":956,"x_min":66,"x_max":921,"o":"m 517 970 q 505 987 505 979 q 562 1049 513 1001 q 648 1119 611 1097 q 711 1130 666 1130 q 763 1119 739 1130 q 786 1086 786 1109 q 721 1033 786 1062 q 595 988 655 1004 q 517 970 536 972 m 545 846 q 444 814 491 846 q 365 729 397 782 q 308 609 332 677 q 273 471 284 542 q 262 331 262 399 q 272 220 262 271 q 303 130 282 170 q 360 67 324 90 q 442 45 395 45 q 563 93 508 45 q 653 217 618 141 q 707 381 688 293 q 726 556 726 470 q 707 701 726 637 q 646 806 688 765 q 545 846 604 846 m 575 905 q 722 871 655 905 q 832 784 789 838 q 898 665 874 730 q 921 533 921 600 q 888 343 921 433 q 802 190 856 254 q 681 79 749 126 q 541 9 613 33 q 400 -14 469 -14 q 230 37 307 -14 q 110 172 153 87 q 66 354 66 256 q 98 541 66 452 q 181 694 129 629 q 299 808 233 760 q 436 880 365 856 q 575 905 507 905 z "},"":{"ha":956,"x_min":66,"x_max":921,"o":"m 597 1180 q 612 1166 601 1180 q 677 1086 635 1136 q 742 1012 719 1036 q 726 990 739 994 q 659 1023 713 994 q 578 1072 604 1053 q 481 1023 545 1053 q 400 990 417 994 q 393 999 396 992 q 391 1012 390 1006 q 578 1166 527 1118 q 597 1180 591 1180 m 545 846 q 444 814 491 846 q 365 729 397 782 q 308 609 332 677 q 273 471 284 542 q 262 331 262 399 q 272 220 262 271 q 303 130 282 170 q 360 67 324 90 q 442 45 395 45 q 563 93 508 45 q 653 217 618 141 q 707 381 688 293 q 726 556 726 470 q 707 701 726 637 q 646 806 688 765 q 545 846 604 846 m 575 905 q 722 871 655 905 q 832 784 789 838 q 898 665 874 730 q 921 533 921 600 q 888 343 921 433 q 802 190 856 254 q 681 79 749 126 q 541 9 613 33 q 400 -14 469 -14 q 230 37 307 -14 q 110 172 153 87 q 66 354 66 256 q 98 541 66 452 q 181 694 129 629 q 299 808 233 760 q 436 880 365 856 q 575 905 507 905 z "},"":{"ha":956,"x_min":66,"x_max":921,"o":"m 503 1112 q 589 1090 552 1112 q 620 1073 610 1078 q 650 1061 630 1067 q 690 1055 670 1055 q 781 1112 739 1055 q 793 1093 793 1108 q 768 1038 793 1066 q 658 987 720 987 q 572 1009 609 987 q 541 1027 551 1021 q 511 1038 531 1032 q 471 1044 491 1044 q 380 987 422 1044 q 368 1006 368 991 q 393 1062 368 1034 q 503 1112 441 1112 m 545 846 q 444 814 491 846 q 365 729 397 782 q 308 609 332 677 q 273 471 284 542 q 262 331 262 399 q 272 220 262 271 q 303 130 282 170 q 360 67 324 90 q 442 45 395 45 q 563 93 508 45 q 653 217 618 141 q 707 381 688 293 q 726 556 726 470 q 707 701 726 637 q 646 806 688 765 q 545 846 604 846 m 575 905 q 722 871 655 905 q 832 784 789 838 q 898 665 874 730 q 921 533 921 600 q 888 343 921 433 q 802 190 856 254 q 681 79 749 126 q 541 9 613 33 q 400 -14 469 -14 q 230 37 307 -14 q 110 172 153 87 q 66 354 66 256 q 98 541 66 452 q 181 694 129 629 q 299 808 233 760 q 436 880 365 856 q 575 905 507 905 z "},"":{"ha":956,"x_min":66,"x_max":921,"o":"m 671 1018 q 661 1033 671 1018 q 658 1085 650 1047 q 695 1149 665 1123 q 761 1176 726 1176 q 815 1149 795 1176 q 829 1085 836 1122 q 792 1018 821 1046 q 727 989 762 989 q 671 1018 691 989 m 408 1018 q 397 1033 408 1018 q 395 1085 387 1047 q 432 1149 402 1123 q 498 1176 463 1176 q 552 1149 532 1176 q 566 1085 572 1122 q 529 1018 558 1046 q 464 989 499 989 q 408 1018 428 989 m 545 846 q 444 814 491 846 q 365 729 397 782 q 308 609 332 677 q 273 471 284 542 q 262 331 262 399 q 272 220 262 271 q 303 130 282 170 q 360 67 324 90 q 442 45 395 45 q 563 93 508 45 q 653 217 618 141 q 707 381 688 293 q 726 556 726 470 q 707 701 726 637 q 646 806 688 765 q 545 846 604 846 m 575 905 q 722 871 655 905 q 832 784 789 838 q 898 665 874 730 q 921 533 921 600 q 888 343 921 433 q 802 190 856 254 q 681 79 749 126 q 541 9 613 33 q 400 -14 469 -14 q 230 37 307 -14 q 110 172 153 87 q 66 354 66 256 q 98 541 66 452 q 181 694 129 629 q 299 808 233 760 q 436 880 365 856 q 575 905 507 905 z "},"":{"ha":591,"x_min":33,"x_max":547,"o":"m 53 95 q 40 116 47 95 q 33 153 33 137 l 241 336 q 244 340 244 339 q 243 347 244 346 l 106 533 q 124 564 106 546 q 149 582 142 582 q 153 581 152 582 q 154 579 153 581 q 155 576 154 577 l 296 385 q 301 382 298 382 l 304 384 l 518 575 q 526 579 522 579 q 540 559 533 579 q 547 519 547 538 l 339 335 l 336 332 q 338 330 336 331 l 473 145 q 459 113 473 132 q 437 95 444 95 q 427 99 429 95 l 288 289 q 283 292 285 292 q 278 289 281 292 l 60 99 q 53 95 56 95 z "},"":{"ha":956,"x_min":66,"x_max":921,"o":"m 545 846 q 444 814 491 846 q 365 729 397 782 q 308 609 332 677 q 273 471 284 542 q 262 331 262 399 q 272 220 262 271 q 303 130 282 170 q 360 67 324 90 q 442 45 395 45 q 563 93 508 45 q 653 217 618 141 q 707 381 688 293 q 726 556 726 470 q 707 701 726 637 q 646 806 688 765 q 545 846 604 846 m 575 905 q 722 871 655 905 q 832 784 789 838 q 898 665 874 730 q 921 533 921 600 q 888 343 921 433 q 802 190 856 254 q 681 79 749 126 q 541 9 613 33 q 400 -14 469 -14 q 230 37 307 -14 q 110 172 153 87 q 66 354 66 256 q 98 541 66 452 q 181 694 129 629 q 299 808 233 760 q 436 880 365 856 q 575 905 507 905 m 141 -18 q 117 -1 131 -14 q 109 16 104 11 l 808 907 q 833 892 818 905 q 842 875 848 880 l 141 -18 z "},"":{"ha":939,"x_min":95,"x_max":1031,"o":"m 679 970 q 600 988 660 972 q 475 1033 541 1004 q 410 1086 410 1062 q 433 1119 410 1109 q 485 1130 456 1130 q 547 1119 530 1130 q 633 1049 585 1097 q 691 987 682 1001 q 679 970 691 979 m 318 888 q 497 898 410 888 q 497 873 500 892 q 488 848 494 854 q 402 823 412 842 q 367 696 385 791 l 319 448 q 308 381 312 407 q 301 325 304 355 q 299 268 298 294 q 306 216 300 241 q 473 85 332 85 q 551 105 512 85 q 627 163 590 124 q 694 268 664 201 q 741 419 724 334 l 786 650 q 801 815 809 774 q 713 848 795 841 q 713 873 710 854 q 722 898 717 892 q 878 888 825 888 q 961 893 910 888 q 1027 898 1012 897 q 1027 873 1031 892 q 1018 848 1024 854 q 915 815 929 840 q 888 745 903 795 q 865 651 873 694 l 813 388 q 750 209 793 288 q 649 83 707 131 q 526 12 591 36 q 390 -12 460 -12 q 244 18 308 -12 q 147 107 180 48 q 135 408 95 201 l 191 696 q 195 719 192 703 q 199 742 198 736 q 203 762 201 749 q 205 781 205 774 q 207 796 206 787 q 207 811 208 805 q 205 823 207 818 q 130 848 203 842 q 130 873 127 854 q 139 898 134 892 q 318 888 222 888 z "},"":{"ha":939,"x_min":95,"x_max":1031,"o":"m 592 970 q 580 987 580 979 q 637 1049 589 1001 q 724 1119 686 1097 q 786 1130 741 1130 q 838 1119 814 1130 q 861 1086 861 1109 q 796 1033 861 1062 q 671 988 730 1004 q 592 970 611 972 m 318 888 q 497 898 410 888 q 497 873 500 892 q 488 848 494 854 q 402 823 412 842 q 367 696 385 791 l 319 448 q 308 381 312 407 q 301 325 304 355 q 299 268 298 294 q 306 216 300 241 q 473 85 332 85 q 551 105 512 85 q 627 163 590 124 q 694 268 664 201 q 741 419 724 334 l 786 650 q 801 815 809 774 q 713 848 795 841 q 713 873 710 854 q 722 898 717 892 q 878 888 825 888 q 961 893 910 888 q 1027 898 1012 897 q 1027 873 1031 892 q 1018 848 1024 854 q 915 815 929 840 q 888 745 903 795 q 865 651 873 694 l 813 388 q 750 209 793 288 q 649 83 707 131 q 526 12 591 36 q 390 -12 460 -12 q 244 18 308 -12 q 147 107 180 48 q 135 408 95 201 l 191 696 q 195 719 192 703 q 199 742 198 736 q 203 762 201 749 q 205 781 205 774 q 207 796 206 787 q 207 811 208 805 q 205 823 207 818 q 130 848 203 842 q 130 873 127 854 q 139 898 134 892 q 318 888 222 888 z "},"":{"ha":939,"x_min":95,"x_max":1031,"o":"m 646 1180 q 661 1166 650 1180 q 726 1086 684 1136 q 791 1012 768 1036 q 775 990 788 994 q 708 1023 762 994 q 627 1072 654 1053 q 530 1023 594 1053 q 450 990 467 994 q 443 999 446 992 q 440 1012 439 1006 q 627 1166 576 1118 q 646 1180 641 1180 m 318 888 q 497 898 410 888 q 497 873 500 892 q 488 848 494 854 q 402 823 412 842 q 367 696 385 791 l 319 448 q 308 381 312 407 q 301 325 304 355 q 299 268 298 294 q 306 216 300 241 q 473 85 332 85 q 551 105 512 85 q 627 163 590 124 q 694 268 664 201 q 741 419 724 334 l 786 650 q 801 815 809 774 q 713 848 795 841 q 713 873 710 854 q 722 898 717 892 q 878 888 825 888 q 961 893 910 888 q 1027 898 1012 897 q 1027 873 1031 892 q 1018 848 1024 854 q 915 815 929 840 q 888 745 903 795 q 865 651 873 694 l 813 388 q 750 209 793 288 q 649 83 707 131 q 526 12 591 36 q 390 -12 460 -12 q 244 18 308 -12 q 147 107 180 48 q 135 408 95 201 l 191 696 q 195 719 192 703 q 199 742 198 736 q 203 762 201 749 q 205 781 205 774 q 207 796 206 787 q 207 811 208 805 q 205 823 207 818 q 130 848 203 842 q 130 873 127 854 q 139 898 134 892 q 318 888 222 888 z "},"":{"ha":939,"x_min":95,"x_max":1031,"o":"m 707 1018 q 696 1033 707 1018 q 694 1085 686 1047 q 731 1149 701 1123 q 797 1176 762 1176 q 851 1149 831 1176 q 865 1085 871 1122 q 828 1018 857 1046 q 763 989 798 989 q 707 1018 727 989 m 444 1018 q 433 1033 444 1018 q 431 1085 423 1047 q 468 1149 438 1123 q 534 1176 498 1176 q 588 1149 568 1176 q 602 1085 608 1122 q 565 1018 594 1046 q 500 989 535 989 q 444 1018 464 989 m 318 888 q 497 898 410 888 q 497 873 500 892 q 488 848 494 854 q 402 823 412 842 q 367 696 385 791 l 319 448 q 308 381 312 407 q 301 325 304 355 q 299 268 298 294 q 306 216 300 241 q 473 85 332 85 q 551 105 512 85 q 627 163 590 124 q 694 268 664 201 q 741 419 724 334 l 786 650 q 801 815 809 774 q 713 848 795 841 q 713 873 710 854 q 722 898 717 892 q 878 888 825 888 q 961 893 910 888 q 1027 898 1012 897 q 1027 873 1031 892 q 1018 848 1024 854 q 915 815 929 840 q 888 745 903 795 q 865 651 873 694 l 813 388 q 750 209 793 288 q 649 83 707 131 q 526 12 591 36 q 390 -12 460 -12 q 244 18 308 -12 q 147 107 180 48 q 135 408 95 201 l 191 696 q 195 719 192 703 q 199 742 198 736 q 203 762 201 749 q 205 781 205 774 q 207 796 206 787 q 207 811 208 805 q 205 823 207 818 q 130 848 203 842 q 130 873 127 854 q 139 898 134 892 q 318 888 222 888 z "},"":{"ha":781,"x_min":92,"x_max":905,"o":"m 513 970 q 500 987 500 979 q 558 1049 509 1001 q 644 1119 607 1097 q 707 1130 662 1130 q 759 1119 735 1130 q 782 1086 782 1109 q 716 1033 782 1062 q 591 988 651 1004 q 513 970 532 972 m 259 197 l 296 385 q 293 412 297 395 q 260 525 285 446 q 217 666 237 604 l 197 728 q 172 803 178 788 q 140 835 164 825 q 95 848 115 846 q 96 873 92 854 q 104 898 99 892 q 283 888 187 888 q 463 898 374 888 q 463 873 466 892 q 453 848 459 854 q 446 847 452 848 q 436 847 440 847 q 426 845 433 846 q 413 843 418 844 q 401 840 408 842 q 390 836 395 838 q 380 829 385 833 q 373 821 376 826 q 369 811 370 817 q 374 789 368 810 l 467 490 q 479 501 468 488 q 509 539 490 514 q 548 593 528 565 q 595 659 569 621 q 641 724 622 696 q 684 784 661 751 q 696 815 694 800 q 609 848 700 840 q 610 873 606 854 q 618 898 613 892 q 758 888 720 888 q 838 893 790 888 q 902 898 885 897 q 902 873 905 892 q 892 848 899 854 q 885 847 892 848 q 873 846 878 846 q 860 845 869 846 q 845 842 851 844 q 830 838 839 840 q 815 832 822 836 q 803 824 809 829 q 792 814 797 819 q 636 614 756 770 q 483 404 517 457 q 471 378 473 390 l 435 197 q 420 69 415 98 q 496 45 423 51 q 496 19 499 38 q 487 -5 492 1 q 308 4 404 4 q 129 -5 217 4 q 129 19 125 1 q 138 45 132 38 q 224 69 214 51 q 237 104 231 82 q 247 141 244 127 q 259 197 250 155 z "},"":{"ha":754,"x_min":-16,"x_max":759,"o":"m 494 696 q 687 617 615 696 q 738 430 759 538 q 692 323 726 372 q 612 245 658 275 q 514 199 566 215 q 414 183 463 183 q 345 209 363 183 q 338 239 338 218 q 343 248 338 248 q 384 243 359 243 q 483 294 432 243 q 547 411 534 345 q 538 572 564 505 q 450 640 511 640 q 385 618 401 640 q 382 614 384 616 q 379 609 380 611 q 377 603 378 606 q 375 596 376 599 q 373 589 374 594 q 371 581 372 584 q 369 572 370 578 q 367 563 368 566 q 365 552 366 560 q 362 541 363 545 l 296 197 q 291 173 294 190 q 287 150 288 157 q 283 131 286 144 q 281 112 281 118 q 279 97 280 106 q 279 81 279 87 q 281 69 279 75 q 357 45 283 51 q 356 19 359 38 q 347 -5 353 1 q 168 4 264 4 q -12 -5 76 4 q -12 19 -16 1 q -1 45 -7 38 q 84 69 75 51 q 118 197 100 97 l 216 696 q 220 719 217 703 q 224 742 223 736 q 228 762 226 749 q 231 781 230 774 q 232 796 231 787 q 232 811 233 805 q 231 823 232 818 q 153 845 228 839 q 155 870 151 852 q 164 895 159 889 q 343 891 220 891 q 522 901 434 891 q 522 876 526 895 q 513 850 519 857 q 427 826 437 844 q 395 705 411 797 q 397 690 395 690 q 401 691 399 690 q 404 692 403 692 q 494 696 423 696 z "},"":{"ha":715,"x_min":-193,"x_max":688,"o":"m 312 575 q 225 79 251 214 q 175 -73 210 -1 q 97 -192 140 -144 q 7 -268 54 -240 q -80 -296 -39 -296 q -140 -288 -112 -296 q -180 -271 -168 -281 q -193 -227 -193 -252 q -178 -180 -193 -200 q -141 -160 -163 -160 q -84 -193 -108 -160 q -80 -198 -83 -193 q -76 -205 -77 -203 q -71 -211 -75 -206 q -66 -217 -68 -216 q -61 -222 -64 -218 q -55 -227 -58 -225 q -49 -230 -52 -228 q -42 -233 -45 -232 q -34 -233 -38 -233 q 13 -189 -3 -233 q 53 -13 28 -144 q 69 73 63 42 l 145 513 l 57 513 q 54 517 54 513 q 76 552 54 529 q 119 575 98 575 l 156 575 q 213 726 172 654 q 303 843 254 797 q 406 916 353 889 q 499 943 458 943 q 588 923 545 943 q 659 863 630 903 q 688 773 688 823 q 677 709 688 740 q 652 656 666 677 q 614 611 637 635 q 575 577 590 588 q 537 549 561 566 q 510 530 513 532 q 488 490 488 515 q 501 447 488 473 q 524 406 514 420 q 556 361 534 391 q 621 258 601 300 q 642 172 642 216 q 579 48 642 102 q 435 -5 516 -5 q 354 -1 377 -5 q 312 15 330 3 q 289 71 289 34 q 309 115 289 98 q 351 132 328 132 q 380 117 368 132 q 400 86 393 103 q 423 55 408 69 q 461 41 439 41 q 499 57 481 41 q 518 103 518 73 q 507 140 518 118 q 484 178 495 163 q 449 223 472 194 q 419 262 426 253 q 370 342 386 307 q 354 420 354 377 q 367 470 354 444 q 394 510 380 495 q 433 550 407 525 q 467 583 459 576 q 543 754 543 664 q 541 783 543 767 q 533 826 539 800 q 511 871 527 853 q 471 888 494 888 q 312 575 363 888 z "},"":{"ha":663,"x_min":15,"x_max":621,"o":"m 507 678 q 440 707 492 682 q 338 767 389 732 q 286 823 286 802 q 307 864 286 848 q 347 879 327 879 q 389 869 380 879 q 467 775 417 844 q 519 694 516 707 q 507 678 518 685 m 431 609 q 509 601 465 609 q 576 585 553 593 l 492 179 q 487 134 487 157 q 492 115 487 123 q 506 106 496 106 q 561 141 525 106 q 602 189 596 176 q 615 174 608 189 q 621 152 621 160 q 572 91 608 128 q 488 21 536 54 q 406 -11 439 -11 q 345 12 368 -11 q 321 79 321 35 q 324 104 321 85 q 330 130 326 113 q 245 37 303 84 q 132 -9 186 -9 q 46 37 77 -9 q 15 156 15 84 q 56 329 15 243 q 159 474 97 414 q 294 572 220 534 q 431 609 367 609 m 355 534 q 271 486 311 534 q 209 361 231 437 q 186 206 186 286 q 235 110 186 110 q 312 194 269 110 q 376 381 355 279 l 403 518 q 355 534 389 534 z "},"":{"ha":663,"x_min":15,"x_max":621,"o":"m 393 678 q 381 694 382 685 q 434 775 385 707 q 511 869 484 844 q 553 879 521 879 q 594 864 574 879 q 614 823 614 848 q 563 767 614 802 q 460 707 511 732 q 393 678 409 682 m 431 609 q 509 601 465 609 q 576 585 553 593 l 492 179 q 487 134 487 157 q 492 115 487 123 q 506 106 496 106 q 561 141 525 106 q 602 189 596 176 q 615 174 608 189 q 621 152 621 160 q 572 91 608 128 q 488 21 536 54 q 406 -11 439 -11 q 345 12 368 -11 q 321 79 321 35 q 324 104 321 85 q 330 130 326 113 q 245 37 303 84 q 132 -9 186 -9 q 46 37 77 -9 q 15 156 15 84 q 56 329 15 243 q 159 474 97 414 q 294 572 220 534 q 431 609 367 609 m 355 534 q 271 486 311 534 q 209 361 231 437 q 186 206 186 286 q 235 110 186 110 q 312 194 269 110 q 376 381 355 279 l 403 518 q 355 534 389 534 z "},"":{"ha":663,"x_min":15,"x_max":621,"o":"m 468 918 q 483 905 476 918 q 524 827 502 867 q 564 757 547 787 q 583 722 581 727 q 567 690 578 694 q 448 799 488 755 q 364 739 416 774 q 289 690 311 703 q 283 702 285 692 q 283 722 281 711 q 450 905 343 781 q 468 918 462 918 m 431 609 q 509 601 465 609 q 576 585 553 593 l 492 179 q 487 134 487 157 q 492 115 487 123 q 506 106 496 106 q 561 141 525 106 q 602 189 596 176 q 615 174 608 189 q 621 152 621 160 q 572 91 608 128 q 488 21 536 54 q 406 -11 439 -11 q 345 12 368 -11 q 321 79 321 35 q 324 104 321 85 q 330 130 326 113 q 245 37 303 84 q 132 -9 186 -9 q 46 37 77 -9 q 15 156 15 84 q 56 329 15 243 q 159 474 97 414 q 294 572 220 534 q 431 609 367 609 m 355 534 q 271 486 311 534 q 209 361 231 437 q 186 206 186 286 q 235 110 186 110 q 312 194 269 110 q 376 381 355 279 l 403 518 q 355 534 389 534 z "},"":{"ha":663,"x_min":15,"x_max":621,"o":"m 346 821 q 425 799 384 821 q 449 784 429 797 q 483 767 469 772 q 515 762 497 762 q 530 764 523 762 q 544 769 537 766 q 557 775 551 772 q 569 783 563 778 q 579 792 575 788 q 588 801 583 795 q 596 809 593 806 q 602 816 598 811 l 606 821 q 616 804 617 817 q 586 746 612 775 q 477 694 536 694 q 400 716 439 694 q 381 728 396 719 q 358 741 366 736 q 335 749 350 745 q 307 753 321 753 q 292 751 299 753 q 278 746 285 749 q 265 740 271 743 q 253 732 259 737 q 243 723 247 727 q 234 714 239 720 q 226 706 229 709 q 220 699 224 704 l 216 694 q 208 712 205 698 q 236 769 211 741 q 346 821 286 821 m 431 609 q 509 601 465 609 q 576 585 553 593 l 492 179 q 487 134 487 157 q 492 115 487 123 q 506 106 496 106 q 561 141 525 106 q 602 189 596 176 q 615 174 608 189 q 621 152 621 160 q 572 91 608 128 q 488 21 536 54 q 406 -11 439 -11 q 345 12 368 -11 q 321 79 321 35 q 324 104 321 85 q 330 130 326 113 q 245 37 303 84 q 132 -9 186 -9 q 46 37 77 -9 q 15 156 15 84 q 56 329 15 243 q 159 474 97 414 q 294 572 220 534 q 431 609 367 609 m 355 534 q 271 486 311 534 q 209 361 231 437 q 186 206 186 286 q 235 110 186 110 q 312 194 269 110 q 376 381 355 279 l 403 518 q 355 534 389 534 z "},"":{"ha":663,"x_min":15,"x_max":625,"o":"m 479 856 q 495 869 479 856 q 548 883 511 883 q 605 856 585 883 q 617 789 625 828 q 578 723 610 751 q 510 694 547 694 q 453 722 473 694 q 441 789 433 750 q 479 856 448 828 m 242 856 q 257 869 242 856 q 309 883 273 883 q 366 856 346 883 q 378 789 386 828 q 340 723 371 751 q 273 694 309 694 q 216 722 236 694 q 203 789 196 750 q 242 856 211 828 m 431 609 q 509 601 465 609 q 576 585 553 593 l 492 179 q 487 134 487 157 q 492 115 487 123 q 506 106 496 106 q 561 141 525 106 q 602 189 596 176 q 615 174 608 189 q 621 152 621 160 q 572 91 608 128 q 488 21 536 54 q 406 -11 439 -11 q 345 12 368 -11 q 321 79 321 35 q 324 104 321 85 q 330 130 326 113 q 245 37 303 84 q 132 -9 186 -9 q 46 37 77 -9 q 15 156 15 84 q 56 329 15 243 q 159 474 97 414 q 294 572 220 534 q 431 609 367 609 m 355 534 q 271 486 311 534 q 209 361 231 437 q 186 206 186 286 q 235 110 186 110 q 312 194 269 110 q 376 381 355 279 l 403 518 q 355 534 389 534 z "},"":{"ha":663,"x_min":15,"x_max":621,"o":"m 354 859 q 342 848 354 859 q 324 807 330 838 q 333 755 318 777 q 377 734 349 734 q 429 755 406 734 q 458 807 452 777 q 449 859 465 838 q 406 880 434 880 q 354 859 377 880 m 266 807 q 321 901 276 861 q 418 940 366 940 q 497 901 469 940 q 515 807 526 862 q 460 712 505 752 q 365 673 416 673 q 285 712 314 673 q 266 807 256 752 m 431 609 q 509 601 465 609 q 576 585 553 593 l 492 179 q 487 134 487 157 q 492 115 487 123 q 506 106 496 106 q 561 141 525 106 q 602 189 596 176 q 615 174 608 189 q 621 152 621 160 q 572 91 608 128 q 488 21 536 54 q 406 -11 439 -11 q 345 12 368 -11 q 321 79 321 35 q 324 104 321 85 q 330 130 326 113 q 245 37 303 84 q 132 -9 186 -9 q 46 37 77 -9 q 15 156 15 84 q 56 329 15 243 q 159 474 97 414 q 294 572 220 534 q 431 609 367 609 m 355 534 q 271 486 311 534 q 209 361 231 437 q 186 206 186 286 q 235 110 186 110 q 312 194 269 110 q 376 381 355 279 l 403 518 q 355 534 389 534 z "},"":{"ha":823,"x_min":-3,"x_max":806,"o":"m 609 559 q 564 530 586 559 q 527 458 542 500 q 501 376 511 416 q 488 307 491 335 q 535 324 508 307 q 586 368 562 341 q 627 433 610 395 q 644 506 644 470 q 609 559 644 559 m 320 123 q 318 199 317 137 q 326 283 320 262 q 271 267 305 279 q 227 247 237 254 q 193 212 210 235 q 174 168 176 189 q 184 106 166 128 q 228 84 202 84 q 277 99 246 84 q 320 123 308 113 m 351 609 q 428 588 395 609 q 479 530 461 568 q 655 609 569 609 q 708 603 683 609 q 756 583 733 596 q 792 544 779 569 q 806 484 806 518 q 768 390 806 435 q 676 317 730 345 q 570 272 623 288 q 484 255 518 255 q 481 221 481 247 q 485 181 481 200 q 497 144 489 163 q 523 115 506 126 q 564 104 540 104 q 585 107 574 104 q 606 115 595 110 q 626 126 616 120 q 645 140 636 132 q 663 154 654 147 q 678 168 671 161 q 689 180 685 175 q 697 189 693 184 l 701 193 q 715 177 709 193 q 722 152 722 161 q 686 114 714 140 q 621 61 658 88 q 542 13 585 33 q 469 -8 499 -8 q 334 77 373 -8 q 234 25 311 61 q 130 -11 157 -11 q 31 40 66 -11 q 8 155 -3 92 q 41 223 16 193 q 91 263 65 254 q 324 338 115 271 q 334 357 333 340 l 338 422 q 339 456 339 445 q 294 557 339 557 q 270 551 281 557 q 250 536 258 545 q 233 509 242 527 q 218 479 224 492 q 203 444 213 467 q 127 384 180 384 q 87 402 103 384 q 76 449 71 421 q 104 505 81 472 q 209 570 133 531 q 351 609 284 609 z "},"":{"ha":511,"x_min":20,"x_max":500,"o":"m 155 -5 l 194 -5 l 163 -39 l 186 -39 q 236 -58 213 -39 q 259 -103 259 -76 q 210 -187 259 -153 q 96 -221 161 -221 q 63 -217 83 -221 q 38 -208 44 -212 q 33 -195 33 -202 q 40 -168 33 -179 q 58 -157 48 -157 q 91 -174 70 -157 q 132 -190 111 -190 q 173 -175 157 -190 q 190 -136 190 -159 q 178 -101 190 -114 q 151 -88 165 -88 q 111 -99 135 -88 q 100 -93 109 -99 q 91 -83 91 -87 q 98 -72 91 -80 q 122 -44 106 -63 q 155 -5 139 -26 m 361 609 q 432 600 399 609 q 480 579 465 591 q 500 511 500 549 q 477 454 500 480 q 425 429 454 429 q 355 479 382 429 q 351 487 355 480 q 346 496 348 494 q 341 505 345 498 q 335 514 338 511 q 329 523 333 517 q 321 530 325 528 q 314 536 318 533 q 305 540 310 538 q 296 541 300 541 q 247 494 271 541 q 207 373 222 446 q 191 231 191 300 q 212 134 191 163 q 275 104 233 104 q 294 107 284 104 q 313 113 304 109 q 331 122 321 117 q 348 133 340 127 q 365 145 356 139 q 379 158 373 152 q 391 170 385 164 q 401 179 397 175 q 408 186 406 183 l 411 190 q 424 177 418 190 q 429 155 429 163 q 395 116 419 140 q 338 62 372 91 q 261 13 304 33 q 183 -8 219 -8 q 69 40 117 -8 q 20 178 20 88 q 71 382 20 281 q 202 546 122 483 q 361 609 281 609 z "},"":{"ha":534,"x_min":22,"x_max":514,"o":"m 431 678 q 365 707 416 682 q 262 767 313 732 q 210 823 210 802 q 231 864 210 848 q 271 879 251 879 q 313 869 304 879 q 391 775 341 844 q 444 694 440 707 q 431 678 442 685 m 363 609 q 416 603 391 609 q 464 583 441 596 q 500 544 487 569 q 514 484 514 518 q 476 390 514 435 q 385 317 438 345 q 279 272 331 288 q 193 255 227 255 q 190 221 190 247 q 194 181 190 200 q 206 144 197 163 q 231 115 214 126 q 273 104 248 104 q 293 107 282 104 q 314 115 304 110 q 334 126 324 120 q 354 140 345 132 q 371 154 363 147 q 386 168 379 161 q 397 180 393 175 q 406 189 401 184 l 410 193 q 424 177 418 193 q 430 152 430 161 q 394 114 422 140 q 330 61 366 88 q 250 13 293 33 q 178 -8 208 -8 q 63 44 105 -8 q 22 190 22 96 q 53 340 22 263 q 134 475 85 416 q 244 571 182 534 q 363 609 307 609 m 197 307 q 243 324 216 307 q 294 368 270 341 q 336 433 319 395 q 353 506 353 470 q 317 559 353 559 q 272 530 294 559 q 235 458 250 500 q 210 376 220 416 q 197 307 199 335 z "},"":{"ha":534,"x_min":22,"x_max":544,"o":"m 323 678 q 311 694 312 685 q 363 775 314 707 q 441 869 413 844 q 483 879 450 879 q 524 864 503 879 q 544 823 544 848 q 492 767 544 802 q 390 707 441 732 q 323 678 338 682 m 363 609 q 416 603 391 609 q 464 583 441 596 q 500 544 487 569 q 514 484 514 518 q 476 390 514 435 q 385 317 438 345 q 279 272 331 288 q 193 255 227 255 q 190 221 190 247 q 194 181 190 200 q 206 144 197 163 q 231 115 214 126 q 273 104 248 104 q 293 107 282 104 q 314 115 304 110 q 334 126 324 120 q 354 140 345 132 q 371 154 363 147 q 386 168 379 161 q 397 180 393 175 q 406 189 401 184 l 410 193 q 424 177 418 193 q 430 152 430 161 q 394 114 422 140 q 330 61 366 88 q 250 13 293 33 q 178 -8 208 -8 q 63 44 105 -8 q 22 190 22 96 q 53 340 22 263 q 134 475 85 416 q 244 571 182 534 q 363 609 307 609 m 197 307 q 243 324 216 307 q 294 368 270 341 q 336 433 319 395 q 353 506 353 470 q 317 559 353 559 q 272 530 294 559 q 235 458 250 500 q 210 376 220 416 q 197 307 199 335 z "},"":{"ha":534,"x_min":22,"x_max":517,"o":"m 401 894 q 416 880 410 894 q 458 803 435 843 q 497 732 480 762 q 517 697 514 703 q 500 666 511 670 q 382 774 422 730 q 297 714 350 750 q 222 666 245 678 q 217 677 218 668 q 217 697 215 687 q 384 880 277 757 q 401 894 395 894 m 363 609 q 416 603 391 609 q 464 583 441 596 q 500 544 487 569 q 514 484 514 518 q 476 390 514 435 q 385 317 438 345 q 279 272 331 288 q 193 255 227 255 q 190 221 190 247 q 194 181 190 200 q 206 144 197 163 q 231 115 214 126 q 273 104 248 104 q 293 107 282 104 q 314 115 304 110 q 334 126 324 120 q 354 140 345 132 q 371 154 363 147 q 386 168 379 161 q 397 180 393 175 q 406 189 401 184 l 410 193 q 424 177 418 193 q 430 152 430 161 q 394 114 422 140 q 330 61 366 88 q 250 13 293 33 q 178 -8 208 -8 q 63 44 105 -8 q 22 190 22 96 q 53 340 22 263 q 134 475 85 416 q 244 571 182 534 q 363 609 307 609 m 197 307 q 243 324 216 307 q 294 368 270 341 q 336 433 319 395 q 353 506 353 470 q 317 559 353 559 q 272 530 294 559 q 235 458 250 500 q 210 376 220 416 q 197 307 199 335 z "},"":{"ha":534,"x_min":22,"x_max":569,"o":"m 424 856 q 440 869 424 856 q 492 883 456 883 q 549 856 529 883 q 562 789 569 828 q 523 723 554 751 q 454 694 491 694 q 398 722 418 694 q 385 789 378 750 q 424 856 392 828 m 186 856 q 202 869 186 856 q 254 883 217 883 q 310 856 290 883 q 323 789 330 828 q 284 723 315 751 q 217 694 254 694 q 160 722 180 694 q 148 789 140 750 q 186 856 155 828 m 363 609 q 416 603 391 609 q 464 583 441 596 q 500 544 487 569 q 514 484 514 518 q 476 390 514 435 q 385 317 438 345 q 279 272 331 288 q 193 255 227 255 q 190 221 190 247 q 194 181 190 200 q 206 144 197 163 q 231 115 214 126 q 273 104 248 104 q 293 107 282 104 q 314 115 304 110 q 334 126 324 120 q 354 140 345 132 q 371 154 363 147 q 386 168 379 161 q 397 180 393 175 q 406 189 401 184 l 410 193 q 424 177 418 193 q 430 152 430 161 q 394 114 422 140 q 330 61 366 88 q 250 13 293 33 q 178 -8 208 -8 q 63 44 105 -8 q 22 190 22 96 q 53 340 22 263 q 134 475 85 416 q 244 571 182 534 q 363 609 307 609 m 197 307 q 243 324 216 307 q 294 368 270 341 q 336 433 319 395 q 353 506 353 470 q 317 559 353 559 q 272 530 294 559 q 235 458 250 500 q 210 376 220 416 q 197 307 199 335 z "},"":{"ha":420,"x_min":26,"x_max":393,"o":"m 327 678 q 260 707 311 682 q 157 767 209 732 q 106 823 106 802 q 126 864 106 848 q 167 879 146 879 q 209 869 199 879 q 286 775 237 844 q 339 694 336 707 q 327 678 338 685 m 155 419 q 161 464 161 446 q 156 483 161 474 q 141 492 151 492 q 86 457 122 492 q 45 410 51 422 q 32 424 39 410 q 26 446 26 438 q 118 549 48 488 q 236 609 187 609 q 302 584 277 609 q 327 513 327 559 q 315 431 327 492 l 264 179 q 259 134 259 157 q 264 115 259 123 q 278 106 269 106 q 333 141 297 106 q 374 189 368 176 q 387 174 380 189 q 393 152 393 160 q 345 91 380 128 q 260 21 309 54 q 178 -11 212 -11 q 117 13 141 -11 q 92 85 92 37 q 104 167 92 118 l 155 419 z "},"":{"ha":420,"x_min":26,"x_max":411,"o":"m 190 678 q 178 694 179 685 q 231 775 181 707 q 308 869 280 844 q 350 879 317 879 q 391 864 370 879 q 411 823 411 848 q 359 767 411 802 q 257 707 308 732 q 190 678 205 682 m 155 419 q 161 464 161 446 q 156 483 161 474 q 141 492 151 492 q 86 457 122 492 q 45 410 51 422 q 32 424 39 410 q 26 446 26 438 q 118 549 48 488 q 236 609 187 609 q 302 584 277 609 q 327 513 327 559 q 315 431 327 492 l 264 179 q 259 134 259 157 q 264 115 259 123 q 278 106 269 106 q 333 141 297 106 q 374 189 368 176 q 387 174 380 189 q 393 152 393 160 q 345 91 380 128 q 260 21 309 54 q 178 -11 212 -11 q 117 13 141 -11 q 92 85 92 37 q 104 167 92 118 l 155 419 z "},"":{"ha":420,"x_min":26,"x_max":397,"o":"m 282 894 q 297 880 290 894 q 338 803 316 843 q 378 732 361 762 q 397 697 395 703 q 381 666 392 670 q 262 774 302 730 q 178 714 231 750 q 103 666 125 678 q 97 677 99 668 q 98 697 96 687 q 264 880 157 757 q 282 894 276 894 m 155 419 q 161 464 161 446 q 156 483 161 474 q 141 492 151 492 q 86 457 122 492 q 45 410 51 422 q 32 424 39 410 q 26 446 26 438 q 118 549 48 488 q 236 609 187 609 q 302 584 277 609 q 327 513 327 559 q 315 431 327 492 l 264 179 q 259 134 259 157 q 264 115 259 123 q 278 106 269 106 q 333 141 297 106 q 374 189 368 176 q 387 174 380 189 q 393 152 393 160 q 345 91 380 128 q 260 21 309 54 q 178 -11 212 -11 q 117 13 141 -11 q 92 85 92 37 q 104 167 92 118 l 155 419 z "},"":{"ha":420,"x_min":26,"x_max":498,"o":"m 333 721 q 323 735 333 721 q 320 788 313 750 q 358 852 328 826 q 423 879 388 879 q 478 852 458 879 q 491 788 498 825 q 454 721 484 749 q 389 692 425 692 q 333 721 353 692 m 92 721 q 81 735 92 721 q 79 788 71 750 q 116 852 86 826 q 182 879 146 879 q 236 852 216 879 q 250 788 256 825 q 213 721 242 749 q 148 692 183 692 q 92 721 112 692 m 155 419 q 161 464 161 446 q 156 483 161 474 q 141 492 151 492 q 86 457 122 492 q 45 410 51 422 q 32 424 39 410 q 26 446 26 438 q 118 549 48 488 q 236 609 187 609 q 302 584 277 609 q 327 513 327 559 q 315 431 327 492 l 264 179 q 259 134 259 157 q 264 115 259 123 q 278 106 269 106 q 333 141 297 106 q 374 189 368 176 q 387 174 380 189 q 393 152 393 160 q 345 91 380 128 q 260 21 309 54 q 178 -11 212 -11 q 117 13 141 -11 q 92 85 92 37 q 104 167 92 118 l 155 419 z "},"":{"ha":628,"x_min":22,"x_max":585,"o":"m 386 294 q 407 420 398 354 q 413 500 416 487 q 352 555 401 555 q 281 512 313 555 q 231 413 250 470 q 200 285 212 355 q 190 115 182 184 q 234 46 199 46 q 324 118 283 46 q 386 294 366 189 m 196 914 q 202 933 197 923 q 214 943 208 943 q 330 894 273 926 q 395 848 363 873 l 561 956 q 573 933 568 947 q 574 914 579 919 l 429 819 q 438 810 433 814 q 524 692 490 759 q 571 541 557 625 q 565 357 585 456 q 511 215 551 284 q 421 98 471 146 q 316 20 371 50 q 215 -9 260 -9 q 130 6 167 -9 q 70 48 92 22 q 35 112 47 75 q 22 190 22 148 q 29 277 22 231 q 96 427 43 350 q 223 556 149 504 q 367 609 298 609 q 422 605 394 609 q 366 777 422 700 l 234 690 q 222 734 214 726 l 338 810 q 196 914 285 868 z "},"":{"ha":727,"x_min":15,"x_max":693,"o":"m 351 821 q 430 799 389 821 q 454 784 434 797 q 488 767 474 772 q 521 762 503 762 q 535 764 528 762 q 549 769 543 766 q 562 775 556 772 q 574 783 568 778 q 585 792 581 788 q 594 801 589 795 q 601 809 599 806 q 608 816 604 811 l 612 821 q 621 804 623 817 q 591 746 618 775 q 483 694 542 694 q 406 716 445 694 q 386 728 401 719 q 363 741 371 736 q 341 749 355 745 q 312 753 326 753 q 297 751 304 753 q 283 746 290 749 q 271 740 277 743 q 258 732 264 737 q 248 723 252 727 q 239 714 244 720 q 232 706 234 709 q 225 699 229 704 l 221 694 q 213 712 211 698 q 241 769 216 741 q 351 821 291 821 m 304 431 q 299 409 302 424 q 293 382 296 394 q 290 372 290 371 q 352 473 311 418 q 440 569 393 528 q 519 609 488 609 q 596 581 574 609 q 617 491 617 552 q 590 316 617 457 l 564 179 q 559 134 559 157 q 564 115 559 123 q 578 106 568 106 q 632 141 597 106 q 674 189 668 176 q 687 174 680 189 q 693 152 693 160 q 644 91 680 128 q 560 21 608 54 q 477 -11 511 -11 q 416 13 441 -11 q 392 85 392 37 q 404 167 392 118 l 435 328 q 445 382 439 342 q 452 431 452 422 q 446 451 452 443 q 430 460 440 460 q 374 413 410 460 q 301 285 338 366 q 247 123 264 205 l 220 0 q 144 -8 193 -8 q 64 0 96 -8 l 144 419 q 151 464 151 446 q 145 483 151 474 q 130 492 140 492 q 76 457 111 492 q 34 410 40 422 q 21 424 28 410 q 15 446 15 438 q 107 549 37 488 q 225 609 176 609 q 291 584 267 609 q 316 513 316 559 q 304 431 316 492 z "},"":{"ha":617,"x_min":20,"x_max":571,"o":"m 434 678 q 367 707 418 682 q 264 767 316 732 q 213 823 213 802 q 233 864 213 848 q 274 879 254 879 q 316 869 307 879 q 393 775 344 844 q 446 694 443 707 q 434 678 445 685 m 355 555 q 287 516 319 555 q 234 418 255 477 q 202 293 214 359 q 190 170 190 227 q 236 46 190 46 q 323 112 283 46 q 382 264 363 178 q 401 423 401 349 q 401 449 401 439 q 400 477 401 458 q 396 506 399 495 q 388 530 393 517 q 375 549 383 543 q 355 555 366 555 m 370 609 q 450 599 415 609 q 512 567 484 589 q 556 503 541 544 q 571 403 571 461 q 516 211 571 308 q 377 53 461 115 q 214 -8 294 -8 q 74 45 127 -8 q 20 193 20 98 q 74 386 20 288 q 209 546 127 484 q 370 609 291 609 z "},"":{"ha":617,"x_min":20,"x_max":571,"o":"m 330 678 q 317 694 319 685 q 370 775 321 707 q 448 869 420 844 q 490 879 457 879 q 530 864 510 879 q 551 823 551 848 q 499 767 551 802 q 396 707 448 732 q 330 678 345 682 m 355 555 q 287 516 319 555 q 234 418 255 477 q 202 293 214 359 q 190 170 190 227 q 236 46 190 46 q 323 112 283 46 q 382 264 363 178 q 401 423 401 349 q 401 449 401 439 q 400 477 401 458 q 396 506 399 495 q 388 530 393 517 q 375 549 383 543 q 355 555 366 555 m 370 609 q 450 599 415 609 q 512 567 484 589 q 556 503 541 544 q 571 403 571 461 q 516 211 571 308 q 377 53 461 115 q 214 -8 294 -8 q 74 45 127 -8 q 20 193 20 98 q 74 386 20 288 q 209 546 127 484 q 370 609 291 609 z "},"":{"ha":617,"x_min":20,"x_max":571,"o":"m 435 894 q 450 880 444 894 q 492 803 469 843 q 531 732 514 762 q 551 697 548 703 q 534 666 545 670 q 416 774 456 730 q 331 714 384 750 q 256 666 279 678 q 251 677 252 668 q 251 697 249 687 q 418 880 311 757 q 435 894 429 894 m 355 555 q 287 516 319 555 q 234 418 255 477 q 202 293 214 359 q 190 170 190 227 q 236 46 190 46 q 323 112 283 46 q 382 264 363 178 q 401 423 401 349 q 401 449 401 439 q 400 477 401 458 q 396 506 399 495 q 388 530 393 517 q 375 549 383 543 q 355 555 366 555 m 370 609 q 450 599 415 609 q 512 567 484 589 q 556 503 541 544 q 571 403 571 461 q 516 211 571 308 q 377 53 461 115 q 214 -8 294 -8 q 74 45 127 -8 q 20 193 20 98 q 74 386 20 288 q 209 546 127 484 q 370 609 291 609 z "},"":{"ha":617,"x_min":20,"x_max":594,"o":"m 323 821 q 401 799 361 821 q 426 784 406 797 q 460 767 446 772 q 492 762 474 762 q 507 764 500 762 q 521 769 514 766 q 534 775 528 772 q 546 783 540 778 q 556 792 552 788 q 565 801 560 795 q 573 809 570 806 q 579 816 575 811 l 583 821 q 593 804 594 817 q 563 746 589 775 q 454 694 513 694 q 377 716 416 694 q 358 728 373 719 q 335 741 342 736 q 312 749 327 745 q 283 753 298 753 q 269 751 276 753 q 255 746 262 749 q 242 740 248 743 q 230 732 236 737 q 220 723 224 727 q 211 714 216 720 q 203 706 205 709 q 197 699 201 704 l 193 694 q 184 712 182 698 q 213 769 188 741 q 323 821 262 821 m 355 555 q 287 516 319 555 q 234 418 255 477 q 202 293 214 359 q 190 170 190 227 q 236 46 190 46 q 323 112 283 46 q 382 264 363 178 q 401 423 401 349 q 401 449 401 439 q 400 477 401 458 q 396 506 399 495 q 388 530 393 517 q 375 549 383 543 q 355 555 366 555 m 370 609 q 450 599 415 609 q 512 567 484 589 q 556 503 541 544 q 571 403 571 461 q 516 211 571 308 q 377 53 461 115 q 214 -8 294 -8 q 74 45 127 -8 q 20 193 20 98 q 74 386 20 288 q 209 546 127 484 q 370 609 291 609 z "},"":{"ha":617,"x_min":20,"x_max":571,"o":"m 424 856 q 440 869 424 856 q 492 883 456 883 q 549 856 529 883 q 562 789 569 828 q 523 723 554 751 q 454 694 491 694 q 398 722 418 694 q 385 789 378 750 q 424 856 392 828 m 186 856 q 202 869 186 856 q 254 883 217 883 q 310 856 290 883 q 323 789 330 828 q 284 723 315 751 q 217 694 254 694 q 160 722 180 694 q 148 789 140 750 q 186 856 155 828 m 355 555 q 287 516 319 555 q 234 418 255 477 q 202 293 214 359 q 190 170 190 227 q 236 46 190 46 q 323 112 283 46 q 382 264 363 178 q 401 423 401 349 q 401 449 401 439 q 400 477 401 458 q 396 506 399 495 q 388 530 393 517 q 375 549 383 543 q 355 555 366 555 m 370 609 q 450 599 415 609 q 512 567 484 589 q 556 503 541 544 q 571 403 571 461 q 516 211 571 308 q 377 53 461 115 q 214 -8 294 -8 q 74 45 127 -8 q 20 193 20 98 q 74 386 20 288 q 209 546 127 484 q 370 609 291 609 z "},"":{"ha":726,"x_min":62,"x_max":654,"o":"m 69 302 q 62 313 62 302 q 83 372 62 345 l 650 372 q 654 361 654 372 q 636 302 654 321 l 69 302 m 422 674 q 466 656 449 674 q 484 610 484 638 q 459 549 484 576 q 402 522 435 522 q 359 541 376 522 q 342 587 342 559 q 366 648 342 621 q 422 674 389 674 m 323 152 q 367 134 349 152 q 384 88 384 116 q 360 27 384 54 q 302 0 336 0 q 259 19 276 0 q 243 65 243 37 q 266 125 243 99 q 323 152 290 152 z "},"":{"ha":617,"x_min":20,"x_max":571,"o":"m 355 555 q 287 516 319 555 q 234 418 255 477 q 202 293 214 359 q 190 170 190 227 q 236 46 190 46 q 323 112 283 46 q 382 264 363 178 q 401 423 401 349 q 401 449 401 439 q 400 477 401 458 q 396 506 399 495 q 388 530 393 517 q 375 549 383 543 q 355 555 366 555 m 370 609 q 450 599 415 609 q 512 567 484 589 q 556 503 541 544 q 571 403 571 461 q 516 211 571 308 q 377 53 461 115 q 214 -8 294 -8 q 74 45 127 -8 q 20 193 20 98 q 74 386 20 288 q 209 546 127 484 q 370 609 291 609 m 453 623 q 476 618 461 623 q 491 609 491 614 l 149 -26 q 128 -23 142 -27 q 111 -11 115 -19 l 453 623 z "},"":{"ha":723,"x_min":9,"x_max":684,"o":"m 461 678 q 394 707 446 682 q 292 767 343 732 q 240 823 240 802 q 260 864 240 848 q 301 879 281 879 q 343 869 334 879 q 420 775 371 844 q 473 694 470 707 q 461 678 472 685 m 392 153 q 408 225 399 194 q 292 66 370 143 q 171 -11 215 -11 q 103 15 121 -11 q 85 106 85 41 q 111 277 85 142 q 138 419 136 406 q 145 464 145 446 q 140 483 145 474 q 125 492 134 492 q 70 457 106 492 q 28 410 35 422 q 16 424 22 410 q 9 446 9 438 q 101 549 32 488 q 220 609 171 609 q 286 584 261 609 q 311 513 311 559 q 298 431 311 492 l 267 270 q 251 167 251 172 q 257 147 251 155 q 273 138 262 138 q 313 173 287 138 q 368 258 340 207 q 421 377 395 310 q 458 505 446 445 l 477 598 q 553 606 505 606 q 633 598 601 606 l 555 179 q 549 134 549 152 q 554 115 549 123 q 568 106 559 106 q 623 141 587 106 q 665 189 659 176 q 677 174 671 189 q 684 152 684 160 q 635 91 671 128 q 550 21 599 54 q 468 -11 502 -11 q 407 13 431 -11 q 382 85 382 37 q 392 153 382 101 z "},"":{"ha":723,"x_min":9,"x_max":684,"o":"m 369 678 q 357 694 358 685 q 410 775 360 707 q 487 869 459 844 q 529 879 496 879 q 570 864 549 879 q 590 823 590 848 q 538 767 590 802 q 436 707 487 732 q 369 678 385 682 m 392 153 q 408 225 399 194 q 292 66 370 143 q 171 -11 215 -11 q 103 15 121 -11 q 85 106 85 41 q 111 277 85 142 q 138 419 136 406 q 145 464 145 446 q 140 483 145 474 q 125 492 134 492 q 70 457 106 492 q 28 410 35 422 q 16 424 22 410 q 9 446 9 438 q 101 549 32 488 q 220 609 171 609 q 286 584 261 609 q 311 513 311 559 q 298 431 311 492 l 267 270 q 251 167 251 172 q 257 147 251 155 q 273 138 262 138 q 313 173 287 138 q 368 258 340 207 q 421 377 395 310 q 458 505 446 445 l 477 598 q 553 606 505 606 q 633 598 601 606 l 555 179 q 549 134 549 152 q 554 115 549 123 q 568 106 559 106 q 623 141 587 106 q 665 189 659 176 q 677 174 671 189 q 684 152 684 160 q 635 91 671 128 q 550 21 599 54 q 468 -11 502 -11 q 407 13 431 -11 q 382 85 382 37 q 392 153 382 101 z "},"":{"ha":723,"x_min":9,"x_max":684,"o":"m 435 894 q 450 880 444 894 q 492 803 469 843 q 531 732 514 762 q 551 697 548 703 q 534 666 545 670 q 416 774 456 730 q 331 714 384 750 q 256 666 279 678 q 251 677 252 668 q 251 697 249 687 q 418 880 311 757 q 435 894 429 894 m 392 153 q 408 225 399 194 q 292 66 370 143 q 171 -11 215 -11 q 103 15 121 -11 q 85 106 85 41 q 111 277 85 142 q 138 419 136 406 q 145 464 145 446 q 140 483 145 474 q 125 492 134 492 q 70 457 106 492 q 28 410 35 422 q 16 424 22 410 q 9 446 9 438 q 101 549 32 488 q 220 609 171 609 q 286 584 261 609 q 311 513 311 559 q 298 431 311 492 l 267 270 q 251 167 251 172 q 257 147 251 155 q 273 138 262 138 q 313 173 287 138 q 368 258 340 207 q 421 377 395 310 q 458 505 446 445 l 477 598 q 553 606 505 606 q 633 598 601 606 l 555 179 q 549 134 549 152 q 554 115 549 123 q 568 106 559 106 q 623 141 587 106 q 665 189 659 176 q 677 174 671 189 q 684 152 684 160 q 635 91 671 128 q 550 21 599 54 q 468 -11 502 -11 q 407 13 431 -11 q 382 85 382 37 q 392 153 382 101 z "},"":{"ha":723,"x_min":9,"x_max":684,"o":"m 470 856 q 486 869 470 856 q 538 883 502 883 q 595 856 575 883 q 608 789 615 828 q 569 723 600 751 q 500 694 537 694 q 444 722 464 694 q 431 789 424 750 q 470 856 438 828 m 232 856 q 248 869 232 856 q 300 883 263 883 q 356 856 336 883 q 369 789 376 828 q 331 723 361 751 q 263 694 300 694 q 207 722 227 694 q 194 789 186 750 q 232 856 201 828 m 392 153 q 408 225 399 194 q 292 66 370 143 q 171 -11 215 -11 q 103 15 121 -11 q 85 106 85 41 q 111 277 85 142 q 138 419 136 406 q 145 464 145 446 q 140 483 145 474 q 125 492 134 492 q 70 457 106 492 q 28 410 35 422 q 16 424 22 410 q 9 446 9 438 q 101 549 32 488 q 220 609 171 609 q 286 584 261 609 q 311 513 311 559 q 298 431 311 492 l 267 270 q 251 167 251 172 q 257 147 251 155 q 273 138 262 138 q 313 173 287 138 q 368 258 340 207 q 421 377 395 310 q 458 505 446 445 l 477 598 q 553 606 505 606 q 633 598 601 606 l 555 179 q 549 134 549 152 q 554 115 549 123 q 568 106 559 106 q 623 141 587 106 q 665 189 659 176 q 677 174 671 189 q 684 152 684 160 q 635 91 671 128 q 550 21 599 54 q 468 -11 502 -11 q 407 13 431 -11 q 382 85 382 37 q 392 153 382 101 z "},"":{"ha":680,"x_min":-103,"x_max":639,"o":"m 365 678 q 353 694 354 685 q 406 775 356 707 q 483 869 455 844 q 525 879 492 879 q 566 864 545 879 q 586 823 586 848 q 534 767 586 802 q 432 707 483 732 q 365 678 380 682 m 175 609 q 236 590 208 609 q 281 537 263 570 q 314 462 300 505 q 335 372 328 419 q 348 276 342 324 q 355 184 354 228 q 357 106 355 141 q 357 50 358 71 q 357 35 357 39 q 416 126 385 70 q 474 263 447 182 q 500 412 500 344 q 483 476 500 448 q 444 521 465 504 q 473 582 444 554 q 534 609 503 609 q 608 578 577 609 q 639 483 639 548 q 603 315 639 407 q 510 140 567 224 q 380 -25 453 56 q 236 -165 308 -106 q 97 -260 164 -224 q -15 -296 30 -296 q -78 -275 -54 -296 q -103 -212 -103 -254 q -90 -173 -103 -194 q -62 -144 -77 -152 q 0 -173 -39 -158 q 72 -187 38 -187 q 123 -181 101 -187 q 157 -164 146 -174 q 174 -148 169 -154 q 180 -136 178 -141 q 193 69 193 -98 q 183 245 193 155 q 151 410 174 336 q 96 483 127 483 q 71 472 85 483 q 46 448 56 460 q 27 422 37 435 l 18 410 q 4 426 10 410 q -1 446 -3 442 q 24 483 6 459 q 68 537 42 507 q 123 588 94 566 q 175 609 153 609 z "},"":{"ha":674,"x_min":-74,"x_max":637,"o":"m 372 818 q 340 660 369 802 q 309 506 312 518 q 400 576 342 543 q 505 609 457 609 q 603 564 568 609 q 637 445 637 518 q 599 279 637 363 q 503 133 561 195 q 375 32 445 71 q 244 -7 305 -7 q 208 0 222 -7 l 172 -171 q 168 -209 168 -189 q 173 -227 168 -216 q 187 -240 178 -237 q 251 -244 205 -244 q 253 -264 255 -245 q 245 -286 250 -284 q 220 -286 236 -286 q 198 -285 205 -285 q -69 -297 32 -285 q -73 -276 -74 -296 q -66 -254 -72 -257 q -12 -232 -30 -254 q 9 -174 0 -216 l 111 315 l 46 250 q 37 286 37 262 q 57 324 37 307 l 126 389 l 202 761 q 214 833 214 816 q 132 859 214 859 q 131 878 129 863 q 137 898 133 894 q 273 920 189 903 q 381 945 356 937 q 389 920 389 941 q 372 818 389 903 m 410 495 q 298 438 355 495 l 251 202 q 245 88 237 123 q 282 53 254 53 q 351 92 316 53 q 409 186 385 131 q 448 302 433 242 q 463 406 463 362 q 410 495 463 495 z "},"":{"ha":680,"x_min":-103,"x_max":639,"o":"m 455 856 q 471 869 455 856 q 524 883 487 883 q 580 856 560 883 q 593 789 600 828 q 554 723 585 751 q 486 694 522 694 q 429 722 449 694 q 416 789 409 750 q 455 856 423 828 m 217 856 q 233 869 217 856 q 285 883 248 883 q 341 856 321 883 q 354 789 361 828 q 316 723 347 751 q 248 694 285 694 q 192 722 212 694 q 179 789 172 750 q 217 856 186 828 m 175 609 q 236 590 208 609 q 281 537 263 570 q 314 462 300 505 q 335 372 328 419 q 348 276 342 324 q 355 184 354 228 q 357 106 355 141 q 357 50 358 71 q 357 35 357 39 q 416 126 385 70 q 474 263 447 182 q 500 412 500 344 q 483 476 500 448 q 444 521 465 504 q 473 582 444 554 q 534 609 503 609 q 608 578 577 609 q 639 483 639 548 q 603 315 639 407 q 510 140 567 224 q 380 -25 453 56 q 236 -165 308 -106 q 97 -260 164 -224 q -15 -296 30 -296 q -78 -275 -54 -296 q -103 -212 -103 -254 q -90 -173 -103 -194 q -62 -144 -77 -152 q 0 -173 -39 -158 q 72 -187 38 -187 q 123 -181 101 -187 q 157 -164 146 -174 q 174 -148 169 -154 q 180 -136 178 -141 q 193 69 193 -98 q 183 245 193 155 q 151 410 174 336 q 96 483 127 483 q 71 472 85 483 q 46 448 56 460 q 27 422 37 435 l 18 410 q 4 426 10 410 q -1 446 -3 442 q 24 483 6 459 q 68 537 42 507 q 123 588 94 566 q 175 609 153 609 z "},"":{"ha":841,"x_min":-85,"x_max":795,"o":"m 720 991 l 390 991 q 386 1004 386 996 q 392 1031 386 1012 q 404 1050 399 1050 l 728 1050 q 732 1047 730 1050 q 734 1040 734 1044 q 730 1016 734 1032 q 720 991 726 1000 m 83 182 l 482 846 q 510 880 492 861 q 538 898 528 898 q 553 895 546 898 q 562 888 561 892 l 688 201 q 698 146 693 178 q 705 103 703 115 q 721 71 709 84 q 750 53 734 58 q 776 46 766 48 q 793 45 785 45 q 792 17 795 36 q 785 -5 789 -1 q 712 0 773 -5 q 618 5 650 5 q 556 3 592 5 q 479 -2 520 1 q 425 -5 437 -5 q 426 22 421 -1 q 436 45 431 45 q 477 51 454 45 q 515 69 500 58 q 531 92 529 79 q 523 149 532 98 q 505 250 514 201 l 494 298 q 488 304 492 304 q 367 305 464 305 q 235 304 280 305 q 224 297 228 304 q 157 183 178 221 q 112 91 114 107 q 121 69 110 79 q 150 54 133 59 q 181 47 168 50 q 200 45 195 45 q 200 19 204 38 q 191 -5 195 -1 q 56 5 104 5 q -82 -5 7 5 q -83 15 -85 -2 q -75 43 -81 33 q -25 58 -61 43 q 21 87 10 72 q 83 182 46 120 m 428 646 l 268 380 q 271 374 268 374 q 374 370 307 370 q 475 373 436 370 q 478 374 477 373 q 480 378 479 377 l 481 380 l 428 646 z "},"":{"ha":663,"x_min":15,"x_max":621,"o":"m 583 713 l 274 713 q 270 726 270 718 q 276 753 270 734 q 288 772 283 772 l 591 772 q 596 769 593 772 q 598 762 598 766 q 594 738 598 754 q 583 713 590 722 m 431 609 q 509 601 465 609 q 576 585 553 593 l 492 179 q 487 134 487 157 q 492 115 487 123 q 506 106 496 106 q 561 141 525 106 q 602 189 596 176 q 615 174 608 189 q 621 152 621 160 q 572 91 608 128 q 488 21 536 54 q 406 -11 439 -11 q 345 12 368 -11 q 321 79 321 35 q 324 104 321 85 q 330 130 326 113 q 245 37 303 84 q 132 -9 186 -9 q 46 37 77 -9 q 15 156 15 84 q 56 329 15 243 q 159 474 97 414 q 294 572 220 534 q 431 609 367 609 m 355 534 q 271 486 311 534 q 209 361 231 437 q 186 206 186 286 q 235 110 186 110 q 312 194 269 110 q 376 381 355 279 l 403 518 q 355 534 389 534 z "},"":{"ha":841,"x_min":-85,"x_max":795,"o":"m 595 1062 q 666 1084 632 1062 q 718 1147 701 1106 q 724 1152 718 1152 q 736 1145 730 1152 q 743 1134 743 1139 q 741 1129 743 1133 q 740 1123 740 1124 q 673 1027 720 1067 q 577 987 627 987 q 495 1027 526 987 q 467 1124 464 1066 q 468 1129 467 1126 q 469 1134 469 1133 q 479 1145 469 1139 q 494 1152 488 1152 q 498 1147 498 1152 q 525 1083 499 1105 q 595 1062 551 1062 m 83 182 l 482 846 q 510 880 492 861 q 538 898 528 898 q 553 895 546 898 q 562 888 561 892 l 688 201 q 698 146 693 178 q 705 103 703 115 q 721 71 709 84 q 750 53 734 58 q 776 46 766 48 q 793 45 785 45 q 792 17 795 36 q 785 -5 789 -1 q 712 0 773 -5 q 618 5 650 5 q 556 3 592 5 q 479 -2 520 1 q 425 -5 437 -5 q 426 22 421 -1 q 436 45 431 45 q 477 51 454 45 q 515 69 500 58 q 531 92 529 79 q 523 149 532 98 q 505 250 514 201 l 494 298 q 488 304 492 304 q 367 305 464 305 q 235 304 280 305 q 224 297 228 304 q 157 183 178 221 q 112 91 114 107 q 121 69 110 79 q 150 54 133 59 q 181 47 168 50 q 200 45 195 45 q 200 19 204 38 q 191 -5 195 -1 q 56 5 104 5 q -82 -5 7 5 q -83 15 -85 -2 q -75 43 -81 33 q -25 58 -61 43 q 21 87 10 72 q 83 182 46 120 m 428 646 l 268 380 q 271 374 268 374 q 374 370 307 370 q 475 373 436 370 q 478 374 477 373 q 480 378 479 377 l 481 380 l 428 646 z "},"":{"ha":663,"x_min":15,"x_max":621,"o":"m 452 766 q 526 788 492 766 q 578 850 560 809 q 583 854 578 854 q 596 848 589 854 q 602 837 603 842 q 601 832 602 836 q 600 826 600 827 q 533 730 580 770 q 437 690 486 690 q 355 730 386 690 q 327 827 323 769 q 328 832 327 829 q 328 837 328 836 q 338 848 329 842 q 354 854 348 854 q 358 850 358 854 q 387 788 359 810 q 452 766 416 766 m 431 609 q 509 601 465 609 q 576 585 553 593 l 492 179 q 487 134 487 157 q 492 115 487 123 q 506 106 496 106 q 561 141 525 106 q 602 189 596 176 q 615 174 608 189 q 621 152 621 160 q 572 91 608 128 q 488 21 536 54 q 406 -11 439 -11 q 345 12 368 -11 q 321 79 321 35 q 324 104 321 85 q 330 130 326 113 q 245 37 303 84 q 132 -9 186 -9 q 46 37 77 -9 q 15 156 15 84 q 56 329 15 243 q 159 474 97 414 q 294 572 220 534 q 431 609 367 609 m 355 534 q 271 486 311 534 q 209 361 231 437 q 186 206 186 286 q 235 110 186 110 q 312 194 269 110 q 376 381 355 279 l 403 518 q 355 534 389 534 z "},"":{"ha":841,"x_min":-85,"x_max":795,"o":"m 618 5 q 529 -19 576 5 q 451 -84 483 -43 q 420 -165 420 -125 q 431 -201 420 -190 q 469 -212 443 -212 q 507 -204 488 -212 q 536 -190 526 -197 q 557 -173 547 -182 q 569 -163 568 -163 q 575 -180 575 -165 q 573 -198 576 -195 q 505 -267 549 -239 q 418 -296 460 -296 q 359 -271 381 -296 q 337 -217 337 -247 q 340 -184 337 -201 q 347 -157 344 -168 q 359 -128 349 -145 q 373 -104 369 -111 q 392 -79 376 -97 q 410 -57 407 -61 q 433 -32 414 -53 q 454 -9 452 -12 q 480 17 459 -3 q 508 46 501 38 q 522 73 514 55 q 530 110 530 91 l 494 298 q 488 304 492 304 q 367 305 464 305 q 235 304 280 305 q 224 297 228 304 q 157 183 178 221 q 112 91 114 107 q 121 69 110 79 q 150 54 133 59 q 181 47 168 50 q 200 45 195 45 q 200 19 204 38 q 191 -5 195 -1 q 56 5 104 5 q -82 -5 7 5 q -83 15 -85 -2 q -75 43 -81 33 q -25 58 -61 43 q 21 87 10 72 q 83 182 46 120 l 482 846 q 510 880 492 861 q 538 898 528 898 q 553 895 546 898 q 562 888 561 892 l 688 201 q 698 146 693 178 q 705 103 703 115 q 721 71 709 84 q 750 53 734 58 q 776 46 766 48 q 793 45 785 45 q 792 17 795 36 q 785 -5 789 -1 q 712 0 773 -5 q 618 5 650 5 m 428 646 l 268 380 q 271 374 268 374 q 374 370 307 370 q 475 373 436 370 q 478 375 477 373 q 480 378 479 377 l 481 380 l 428 646 z "},"":{"ha":663,"x_min":15,"x_max":621,"o":"m 355 534 q 271 486 311 534 q 209 361 231 437 q 186 206 186 286 q 235 110 186 110 q 312 194 269 110 q 376 381 355 279 l 403 518 q 355 534 389 534 m 621 152 q 522 46 598 109 q 504 31 516 41 q 457 -7 473 6 q 416 -45 441 -21 q 379 -85 391 -68 q 357 -124 367 -102 q 347 -165 347 -146 q 359 -201 347 -190 q 396 -212 370 -212 q 435 -204 416 -212 q 464 -190 454 -197 q 485 -173 474 -182 q 496 -163 496 -163 q 503 -180 503 -165 q 500 -198 503 -195 q 432 -267 477 -239 q 346 -296 388 -296 q 287 -271 309 -296 q 264 -217 264 -247 q 271 -175 264 -196 q 284 -139 277 -153 q 307 -103 290 -125 q 332 -72 324 -81 q 362 -39 339 -64 q 391 -9 386 -14 q 340 17 359 -5 q 321 79 321 39 q 324 104 321 85 q 330 130 326 113 q 245 37 303 84 q 132 -9 186 -9 q 46 37 77 -9 q 15 156 15 84 q 56 329 15 243 q 159 474 97 414 q 294 572 220 534 q 431 609 367 609 q 509 601 465 609 q 576 585 553 593 l 492 179 q 487 134 487 157 q 492 115 487 123 q 506 106 496 106 q 561 141 525 106 q 602 189 596 176 q 615 174 608 189 q 621 152 621 160 z "},"":{"ha":876,"x_min":71,"x_max":865,"o":"m 586 987 q 574 1005 574 997 q 631 1067 583 1019 q 718 1137 680 1115 q 780 1147 735 1147 q 832 1137 808 1147 q 855 1104 855 1126 q 790 1051 855 1080 q 665 1006 724 1022 q 586 987 605 990 m 601 846 q 473 810 534 846 q 367 712 412 774 q 293 559 321 650 q 266 363 266 468 q 272 283 266 323 q 296 199 279 242 q 337 124 313 157 q 403 71 362 92 q 495 50 444 50 q 658 109 588 50 q 715 172 686 132 q 760 240 745 213 q 779 277 775 267 q 821 260 806 277 q 779 152 817 243 q 728 54 741 61 q 606 6 669 22 q 457 -9 542 -9 q 316 13 380 -9 q 207 73 251 35 q 131 161 162 111 q 85 264 100 210 q 71 374 71 319 q 102 559 71 473 q 188 708 134 646 q 310 815 241 770 q 454 883 379 861 q 601 905 528 905 q 865 865 692 905 q 858 768 865 854 q 848 670 850 682 q 838 657 846 663 q 818 651 829 651 q 802 656 806 651 q 795 696 801 675 q 775 746 790 718 q 740 795 761 773 q 683 831 719 817 q 601 846 646 846 z "},"":{"ha":511,"x_min":20,"x_max":551,"o":"m 330 678 q 317 694 319 685 q 370 775 321 707 q 448 869 420 844 q 490 879 457 879 q 530 864 510 879 q 551 823 551 848 q 499 767 551 802 q 396 707 448 732 q 330 678 345 682 m 361 609 q 432 600 399 609 q 480 579 465 591 q 500 511 500 549 q 477 454 500 480 q 425 429 454 429 q 355 479 382 429 q 351 487 355 480 q 346 496 348 494 q 341 505 345 498 q 335 514 338 511 q 329 523 333 517 q 321 530 325 528 q 314 536 318 533 q 305 540 310 538 q 296 541 300 541 q 247 494 271 541 q 207 373 222 446 q 191 231 191 300 q 212 134 191 163 q 275 104 233 104 q 294 107 284 104 q 313 113 304 109 q 331 122 321 117 q 348 133 340 127 q 365 145 356 139 q 379 158 373 152 q 391 170 385 164 q 401 179 397 175 q 408 186 406 183 l 411 190 q 424 177 418 190 q 429 155 429 163 q 395 116 419 140 q 338 62 372 91 q 261 13 304 33 q 183 -8 219 -8 q 69 40 117 -8 q 20 178 20 88 q 71 382 20 281 q 202 546 122 483 q 361 609 281 609 z "},"":{"ha":876,"x_min":71,"x_max":865,"o":"m 640 1180 q 655 1166 644 1180 q 720 1086 678 1136 q 785 1012 762 1036 q 769 990 782 994 q 702 1023 756 994 q 621 1072 648 1053 q 524 1023 588 1053 q 444 990 460 994 q 436 999 439 992 q 434 1012 433 1006 q 621 1166 570 1118 q 640 1180 635 1180 m 601 846 q 473 810 534 846 q 367 712 412 774 q 293 559 321 650 q 266 363 266 468 q 272 283 266 323 q 296 199 279 242 q 337 124 313 157 q 403 71 362 92 q 495 50 444 50 q 658 109 588 50 q 715 172 686 132 q 760 240 745 213 q 779 277 775 267 q 821 260 806 277 q 779 152 817 243 q 728 54 741 61 q 606 6 669 22 q 457 -9 542 -9 q 316 13 380 -9 q 207 73 251 35 q 131 161 162 111 q 85 264 100 210 q 71 374 71 319 q 102 559 71 473 q 188 708 134 646 q 310 815 241 770 q 454 883 379 861 q 601 905 528 905 q 865 865 692 905 q 858 768 865 854 q 848 670 850 682 q 838 657 846 663 q 818 651 829 651 q 802 656 806 651 q 795 696 801 675 q 775 746 790 718 q 740 795 761 773 q 683 831 719 817 q 601 846 646 846 z "},"":{"ha":511,"x_min":20,"x_max":514,"o":"m 399 918 q 414 905 407 918 q 455 827 433 867 q 494 757 477 787 q 514 722 511 727 q 498 690 509 694 q 379 799 419 755 q 295 739 347 774 q 220 690 242 703 q 214 702 216 692 q 214 722 212 711 q 381 905 274 781 q 399 918 393 918 m 361 609 q 432 600 399 609 q 480 579 465 591 q 500 511 500 549 q 477 454 500 480 q 425 429 454 429 q 355 479 382 429 q 351 487 355 480 q 346 496 348 494 q 341 505 345 498 q 335 514 338 511 q 329 523 333 517 q 321 530 325 528 q 314 536 318 533 q 305 540 310 538 q 296 541 300 541 q 247 494 271 541 q 207 373 222 446 q 191 231 191 300 q 212 134 191 163 q 275 104 233 104 q 294 107 284 104 q 313 113 304 109 q 331 122 321 117 q 348 133 340 127 q 365 145 356 139 q 379 158 373 152 q 391 170 385 164 q 401 179 397 175 q 408 186 406 183 l 411 190 q 424 177 418 190 q 429 155 429 163 q 395 116 419 140 q 338 62 372 91 q 261 13 304 33 q 183 -8 219 -8 q 69 40 117 -8 q 20 178 20 88 q 71 382 20 281 q 202 546 122 483 q 361 609 281 609 z "},"":{"ha":876,"x_min":71,"x_max":865,"o":"m 551 1019 q 541 1034 551 1019 q 538 1086 531 1048 q 576 1151 546 1124 q 642 1177 606 1177 q 696 1151 676 1177 q 709 1086 716 1124 q 672 1019 702 1048 q 608 990 643 990 q 551 1019 572 990 m 601 846 q 473 810 534 846 q 367 712 412 774 q 293 559 321 650 q 266 363 266 468 q 272 283 266 323 q 296 199 279 242 q 337 124 313 157 q 403 71 362 92 q 495 50 444 50 q 658 109 588 50 q 715 172 686 132 q 760 240 745 213 q 779 277 775 267 q 821 260 806 277 q 779 152 817 243 q 728 54 741 61 q 606 6 669 22 q 457 -9 542 -9 q 316 13 380 -9 q 207 73 251 35 q 131 161 162 111 q 85 264 100 210 q 71 374 71 319 q 102 559 71 473 q 188 708 134 646 q 310 815 241 770 q 454 883 379 861 q 601 905 528 905 q 865 865 692 905 q 858 768 865 854 q 848 670 850 682 q 838 657 846 663 q 818 651 829 651 q 802 656 806 651 q 795 696 801 675 q 775 746 790 718 q 740 795 761 773 q 683 831 719 817 q 601 846 646 846 z "},"":{"ha":511,"x_min":20,"x_max":500,"o":"m 323 748 q 313 763 323 748 q 311 815 303 777 q 348 880 318 853 q 414 906 378 906 q 468 879 448 906 q 481 815 488 852 q 445 748 474 777 q 380 719 415 719 q 323 748 344 719 m 361 609 q 432 600 399 609 q 480 579 465 591 q 500 511 500 549 q 477 454 500 480 q 425 429 454 429 q 355 479 382 429 q 351 487 355 480 q 346 496 348 494 q 341 505 345 498 q 335 514 338 511 q 329 523 333 517 q 321 530 325 528 q 314 536 318 533 q 305 540 310 538 q 296 541 300 541 q 247 494 271 541 q 207 373 222 446 q 191 231 191 300 q 212 134 191 163 q 275 104 233 104 q 294 107 284 104 q 313 113 304 109 q 331 122 321 117 q 348 133 340 127 q 365 145 356 139 q 379 158 373 152 q 391 170 385 164 q 401 179 397 175 q 408 186 406 183 l 411 190 q 424 177 418 190 q 429 155 429 163 q 395 116 419 140 q 338 62 372 91 q 261 13 304 33 q 183 -8 219 -8 q 69 40 117 -8 q 20 178 20 88 q 71 382 20 281 q 202 546 122 483 q 361 609 281 609 z "},"":{"ha":876,"x_min":71,"x_max":865,"o":"m 612 986 q 597 1000 608 986 q 532 1080 574 1030 q 467 1154 490 1131 q 483 1176 470 1172 q 550 1143 496 1173 q 631 1095 604 1114 q 728 1143 664 1114 q 808 1176 791 1172 q 815 1167 812 1174 q 818 1154 819 1160 q 631 1000 682 1048 q 612 986 617 986 m 601 846 q 473 810 534 846 q 367 712 412 774 q 293 559 321 650 q 266 363 266 468 q 272 283 266 323 q 296 199 279 242 q 337 124 313 157 q 403 71 362 92 q 495 50 444 50 q 658 109 588 50 q 715 172 686 132 q 760 240 745 213 q 779 277 775 267 q 821 260 806 277 q 779 152 817 243 q 728 54 741 61 q 606 6 669 22 q 457 -9 542 -9 q 316 13 380 -9 q 207 73 251 35 q 131 161 162 111 q 85 264 100 210 q 71 374 71 319 q 102 559 71 473 q 188 708 134 646 q 310 815 241 770 q 454 883 379 861 q 601 905 528 905 q 865 865 692 905 q 858 768 865 854 q 848 670 850 682 q 838 657 846 663 q 818 651 829 651 q 802 656 806 651 q 795 696 801 675 q 775 746 790 718 q 740 795 761 773 q 683 831 719 817 q 601 846 646 846 z "},"":{"ha":511,"x_min":20,"x_max":541,"o":"m 355 681 q 340 694 347 681 q 298 772 321 732 q 259 842 276 812 q 239 878 242 872 q 256 909 245 905 q 374 800 334 844 q 459 861 406 825 q 534 909 511 897 q 539 897 538 907 q 539 878 541 888 q 372 694 479 818 q 355 681 361 681 m 361 609 q 432 600 399 609 q 480 579 465 591 q 500 511 500 549 q 477 454 500 480 q 425 429 454 429 q 355 479 382 429 q 351 487 355 480 q 346 496 348 494 q 341 505 345 498 q 335 514 338 511 q 329 523 333 517 q 321 530 325 528 q 314 536 318 533 q 305 540 310 538 q 296 541 300 541 q 247 494 271 541 q 207 373 222 446 q 191 231 191 300 q 212 134 191 163 q 275 104 233 104 q 294 107 284 104 q 313 113 304 109 q 331 122 321 117 q 348 133 340 127 q 365 145 356 139 q 379 158 373 152 q 391 170 385 164 q 401 179 397 175 q 408 186 406 183 l 411 190 q 424 177 418 190 q 429 155 429 163 q 395 116 419 140 q 338 62 372 91 q 261 13 304 33 q 183 -8 219 -8 q 69 40 117 -8 q 20 178 20 88 q 71 382 20 281 q 202 546 122 483 q 361 609 281 609 z "},"":{"ha":977,"x_min":-14,"x_max":958,"o":"m 519 986 q 505 1000 515 986 q 439 1080 481 1030 q 374 1154 397 1131 q 391 1176 378 1172 q 458 1143 404 1173 q 538 1095 512 1114 q 635 1143 572 1114 q 716 1176 699 1172 q 723 1167 720 1174 q 726 1154 726 1160 q 538 1000 589 1048 q 519 986 525 986 m 401 742 l 294 191 q 283 84 279 103 q 309 62 286 71 q 357 53 331 53 q 602 141 513 53 q 730 426 691 229 q 701 731 768 621 q 490 841 633 841 q 423 825 433 841 q 418 814 420 820 q 414 799 416 808 q 410 784 412 790 q 406 764 409 779 q 401 742 403 749 m 537 895 q 780 837 682 895 q 918 673 879 779 q 930 430 958 568 q 873 263 913 337 q 780 140 833 189 q 656 58 726 90 q 512 11 587 25 q 353 -4 437 -4 l -11 -4 q -11 21 -14 2 q -1 46 -7 39 q 84 69 75 52 q 118 197 100 97 l 216 696 q 220 719 217 703 q 224 742 223 736 q 228 762 226 749 q 231 781 230 774 q 232 796 231 787 q 232 811 233 805 q 231 823 232 818 q 153 845 228 839 q 155 870 151 852 q 164 895 159 889 q 343 891 220 891 q 443 893 374 891 q 537 895 513 895 z "},"":{"ha":678,"x_min":14,"x_max":871,"o":"m 686 665 q 707 684 686 667 q 747 727 727 701 q 768 777 768 753 q 753 812 768 790 q 739 854 739 833 q 867 943 739 943 q 871 906 871 930 q 865 846 871 873 q 807 724 854 785 q 713 635 760 662 l 711 635 q 695 646 705 635 q 686 665 686 657 m 389 479 q 354 534 389 534 q 270 486 309 534 q 207 361 230 437 q 184 206 184 286 q 233 110 184 110 q 286 155 256 110 q 341 264 317 200 q 374 381 366 328 q 389 479 389 461 m 450 760 q 455 784 452 768 q 460 813 458 801 q 463 831 463 825 q 380 857 463 857 q 379 877 377 861 q 385 897 381 892 q 521 918 437 901 q 629 944 604 935 q 637 918 637 939 q 620 817 637 901 l 491 179 q 486 134 486 157 q 490 115 486 123 q 505 106 495 106 q 559 141 524 106 q 601 189 595 176 q 613 174 607 189 q 620 152 620 160 q 571 91 607 128 q 487 21 535 54 q 404 -11 438 -11 q 336 22 359 -11 q 320 79 320 46 q 328 130 320 98 q 243 37 302 84 q 130 -9 185 -9 q 44 37 75 -9 q 14 156 14 84 q 50 318 14 237 q 142 457 86 398 q 267 557 199 517 q 397 608 334 598 q 420 609 406 609 l 450 760 z "},"":{"ha":978,"x_min":-13,"x_max":959,"o":"m 81 465 l 529 465 q 535 462 533 465 q 536 454 537 458 q 521 412 530 425 l 72 412 q 68 427 64 412 q 81 465 74 458 m 403 742 l 296 191 q 285 84 281 103 q 310 62 288 71 q 358 53 332 53 q 603 141 514 53 q 731 426 692 229 q 702 731 769 621 q 491 841 635 841 q 425 825 435 841 q 419 814 422 820 q 415 799 417 808 q 412 784 413 790 q 407 764 410 779 q 403 742 404 749 m 538 895 q 782 837 683 895 q 920 673 880 779 q 932 430 959 568 q 874 263 914 337 q 781 140 835 189 q 657 58 727 90 q 513 11 588 25 q 354 -4 438 -4 l -9 -4 q -9 21 -13 2 q 0 46 -6 39 q 85 69 77 52 q 119 197 101 97 l 217 696 q 221 719 218 703 q 226 742 224 736 q 229 762 227 749 q 232 781 231 774 q 233 796 233 787 q 234 811 234 805 q 232 823 233 818 q 155 845 229 839 q 156 870 152 852 q 165 895 160 889 q 345 891 221 891 q 445 893 375 891 q 538 895 514 895 z "},"":{"ha":651,"x_min":14,"x_max":699,"o":"m 389 479 q 354 534 389 534 q 270 486 309 534 q 207 361 230 437 q 184 206 184 286 q 233 110 184 110 q 286 155 256 110 q 341 264 317 200 q 374 381 366 328 q 389 479 389 461 m 450 760 q 455 784 452 768 q 460 813 458 801 q 463 831 463 825 q 380 857 463 857 q 379 877 377 861 q 385 897 381 892 q 521 918 437 901 q 629 944 604 935 q 637 918 637 939 q 620 817 637 901 l 491 179 q 486 134 486 157 q 490 115 486 123 q 505 106 495 106 q 559 141 524 106 q 601 189 595 176 q 613 174 607 189 q 620 152 620 160 q 571 91 607 128 q 487 21 535 54 q 404 -11 438 -11 q 336 22 359 -11 q 320 79 320 46 q 328 130 320 98 q 243 37 302 84 q 130 -9 185 -9 q 44 37 75 -9 q 14 156 14 84 q 50 318 14 237 q 142 457 86 398 q 267 557 199 517 q 397 608 334 598 q 420 609 406 609 l 450 760 m 277 754 l 690 754 q 696 751 694 754 q 697 743 699 747 q 682 701 691 714 l 267 701 q 263 716 259 701 q 277 754 269 747 z "},"":{"ha":776,"x_min":-14,"x_max":755,"o":"m 652 991 l 323 991 q 319 1004 319 996 q 325 1031 319 1012 q 336 1050 332 1050 l 661 1050 q 665 1047 663 1050 q 667 1040 667 1044 q 663 1016 667 1032 q 652 991 659 1000 m 343 891 q 553 896 374 891 q 755 901 732 900 q 753 700 753 855 q 722 693 746 693 q 704 704 706 693 q 692 758 699 736 q 674 800 686 779 q 642 831 662 821 q 594 841 622 841 l 490 841 q 423 825 433 841 q 418 814 420 820 q 414 799 416 808 q 410 784 412 790 q 406 764 409 779 q 401 742 403 749 l 354 499 q 360 492 353 495 q 380 486 368 488 q 406 484 392 484 l 472 484 q 552 502 528 484 q 602 579 576 519 q 618 590 606 590 q 642 583 637 590 l 591 323 q 567 317 586 317 q 552 328 552 317 q 524 411 549 398 q 430 420 505 420 q 335 401 338 420 l 294 191 q 283 84 279 103 q 309 64 286 71 q 359 57 332 57 l 444 57 q 570 102 519 57 q 662 231 610 137 q 682 239 666 239 q 704 236 692 239 q 718 231 715 233 q 694 186 715 226 q 666 132 673 146 q 644 86 659 117 q 620 35 629 56 q 605 -3 611 14 q 163 -3 333 -3 q -11 -4 5 -3 q -11 21 -14 2 q -1 46 -7 39 q 84 69 75 52 q 118 197 100 97 l 216 696 q 220 719 217 703 q 224 742 223 736 q 228 762 226 749 q 231 781 230 774 q 232 796 231 787 q 232 811 233 805 q 231 823 232 818 q 153 845 228 839 q 155 870 151 852 q 164 895 159 889 q 343 891 220 891 z "},"":{"ha":534,"x_min":22,"x_max":514,"o":"m 498 713 l 189 713 q 184 726 184 718 q 191 753 184 734 q 202 772 197 772 l 506 772 q 510 769 508 772 q 513 762 513 766 q 509 738 513 754 q 498 713 505 722 m 363 609 q 416 603 391 609 q 464 583 441 596 q 500 544 487 569 q 514 484 514 518 q 476 390 514 435 q 385 317 438 345 q 279 272 331 288 q 193 255 227 255 q 190 221 190 247 q 194 181 190 200 q 206 144 197 163 q 231 115 214 126 q 273 104 248 104 q 293 107 282 104 q 314 115 304 110 q 334 126 324 120 q 354 140 345 132 q 371 154 363 147 q 386 168 379 161 q 397 180 393 175 q 406 189 401 184 l 410 193 q 424 177 418 193 q 430 152 430 161 q 394 114 422 140 q 330 61 366 88 q 250 13 293 33 q 178 -8 208 -8 q 63 44 105 -8 q 22 190 22 96 q 53 340 22 263 q 134 475 85 416 q 244 571 182 534 q 363 609 307 609 m 197 307 q 243 324 216 307 q 294 368 270 341 q 336 433 319 395 q 353 506 353 470 q 317 559 353 559 q 272 530 294 559 q 235 458 250 500 q 210 376 220 416 q 197 307 199 335 z "},"":{"ha":776,"x_min":-14,"x_max":755,"o":"m 498 1062 q 569 1084 535 1062 q 621 1147 604 1106 q 627 1152 621 1152 q 640 1145 633 1152 q 646 1134 646 1139 q 644 1129 646 1133 q 643 1123 643 1124 q 576 1027 623 1067 q 480 987 530 987 q 398 1027 429 987 q 370 1124 367 1066 q 371 1129 370 1126 q 372 1134 372 1133 q 382 1145 372 1139 q 397 1152 391 1152 q 401 1147 401 1152 q 428 1083 402 1105 q 498 1062 454 1062 m 343 891 q 553 896 374 891 q 755 901 732 900 q 753 700 753 855 q 722 693 746 693 q 704 704 706 693 q 692 758 699 736 q 674 800 686 779 q 642 831 662 821 q 594 841 622 841 l 490 841 q 423 825 433 841 q 418 814 420 820 q 414 799 416 808 q 410 784 412 790 q 406 764 409 779 q 401 742 403 749 l 354 499 q 360 492 353 495 q 380 486 368 488 q 406 484 392 484 l 472 484 q 552 502 528 484 q 602 579 576 519 q 618 590 606 590 q 642 583 637 590 l 591 323 q 567 317 586 317 q 552 328 552 317 q 524 411 549 398 q 430 420 505 420 q 335 401 338 420 l 294 191 q 283 84 279 103 q 309 64 286 71 q 359 57 332 57 l 444 57 q 570 102 519 57 q 662 231 610 137 q 682 239 666 239 q 704 236 692 239 q 718 231 715 233 q 694 186 715 226 q 666 132 673 146 q 644 86 659 117 q 620 35 629 56 q 605 -3 611 14 q 163 -3 333 -3 q -11 -4 5 -3 q -11 21 -14 2 q -1 46 -7 39 q 84 69 75 52 q 118 197 100 97 l 216 696 q 220 719 217 703 q 224 742 223 736 q 228 762 226 749 q 231 781 230 774 q 232 796 231 787 q 232 811 233 805 q 231 823 232 818 q 153 845 228 839 q 155 870 151 852 q 164 895 159 889 q 343 891 220 891 z "},"":{"ha":534,"x_min":22,"x_max":535,"o":"m 384 766 q 458 788 424 766 q 510 850 492 809 q 515 854 510 854 q 528 848 522 854 q 534 837 535 842 q 533 832 534 836 q 532 826 532 827 q 465 730 512 770 q 369 690 418 690 q 287 730 318 690 q 259 827 256 769 q 260 832 259 829 q 260 837 260 836 q 271 848 261 842 q 286 854 280 854 q 290 850 290 854 q 319 788 291 810 q 384 766 348 766 m 363 609 q 416 603 391 609 q 464 583 441 596 q 500 544 487 569 q 514 484 514 518 q 476 390 514 435 q 385 317 438 345 q 279 272 331 288 q 193 255 227 255 q 190 221 190 247 q 194 181 190 200 q 206 144 197 163 q 231 115 214 126 q 273 104 248 104 q 293 107 282 104 q 314 115 304 110 q 334 126 324 120 q 354 140 345 132 q 371 154 363 147 q 386 168 379 161 q 397 180 393 175 q 406 189 401 184 l 410 193 q 424 177 418 193 q 430 152 430 161 q 394 114 422 140 q 330 61 366 88 q 250 13 293 33 q 178 -8 208 -8 q 63 44 105 -8 q 22 190 22 96 q 53 340 22 263 q 134 475 85 416 q 244 571 182 534 q 363 609 307 609 m 197 307 q 243 324 216 307 q 294 368 270 341 q 336 433 319 395 q 353 506 353 470 q 317 559 353 559 q 272 530 294 559 q 235 458 250 500 q 210 376 220 416 q 197 307 199 335 z "},"":{"ha":776,"x_min":-14,"x_max":755,"o":"m 446 1019 q 435 1034 446 1019 q 433 1086 425 1048 q 470 1151 440 1124 q 536 1177 500 1177 q 590 1151 570 1177 q 604 1086 610 1124 q 567 1019 596 1048 q 502 990 537 990 q 446 1019 466 990 m 343 891 q 553 896 374 891 q 755 901 732 900 q 753 700 753 855 q 722 693 746 693 q 704 704 706 693 q 692 758 699 736 q 674 800 686 779 q 642 831 662 821 q 594 841 622 841 l 490 841 q 423 825 433 841 q 418 814 420 820 q 414 799 416 808 q 410 784 412 790 q 406 764 409 779 q 401 742 403 749 l 354 499 q 360 492 353 495 q 380 486 368 488 q 406 484 392 484 l 472 484 q 552 502 528 484 q 602 579 576 519 q 618 590 606 590 q 642 583 637 590 l 591 323 q 567 317 586 317 q 552 328 552 317 q 524 411 549 398 q 430 420 505 420 q 335 401 338 420 l 294 191 q 283 84 279 103 q 309 64 286 71 q 359 57 332 57 l 444 57 q 570 102 519 57 q 662 231 610 137 q 682 239 666 239 q 704 236 692 239 q 718 231 715 233 q 694 186 715 226 q 666 132 673 146 q 644 86 659 117 q 620 35 629 56 q 605 -3 611 14 q 163 -3 333 -3 q -11 -4 5 -3 q -11 21 -14 2 q -1 46 -7 39 q 84 69 75 52 q 118 197 100 97 l 216 696 q 220 719 217 703 q 224 742 223 736 q 228 762 226 749 q 231 781 230 774 q 232 796 231 787 q 232 811 233 805 q 231 823 232 818 q 153 845 228 839 q 155 870 151 852 q 164 895 159 889 q 343 891 220 891 z "},"":{"ha":534,"x_min":22,"x_max":514,"o":"m 296 767 q 286 782 296 767 q 283 834 276 796 q 321 899 291 872 q 387 925 351 925 q 441 898 421 925 q 454 834 461 871 q 417 767 447 795 q 353 738 388 738 q 296 767 317 738 m 363 609 q 416 603 391 609 q 464 583 441 596 q 500 544 487 569 q 514 484 514 518 q 476 390 514 435 q 385 317 438 345 q 279 272 331 288 q 193 255 227 255 q 190 221 190 247 q 194 181 190 200 q 206 144 197 163 q 231 115 214 126 q 273 104 248 104 q 293 107 282 104 q 314 115 304 110 q 334 126 324 120 q 354 140 345 132 q 371 154 363 147 q 386 168 379 161 q 397 180 393 175 q 406 189 401 184 l 410 193 q 424 177 418 193 q 430 152 430 161 q 394 114 422 140 q 330 61 366 88 q 250 13 293 33 q 178 -8 208 -8 q 63 44 105 -8 q 22 190 22 96 q 53 340 22 263 q 134 475 85 416 q 244 571 182 534 q 363 609 307 609 m 197 307 q 243 324 216 307 q 294 368 270 341 q 336 433 319 395 q 353 506 353 470 q 317 559 353 559 q 272 530 294 559 q 235 458 250 500 q 210 376 220 416 q 197 307 199 335 z "},"":{"ha":777,"x_min":-14,"x_max":755,"o":"m 315 -217 q 361 -94 315 -156 q 479 -1 408 -32 q 168 -2 268 -1 q -11 -4 9 -3 q -11 21 -14 2 q -1 46 -7 39 q 84 69 75 52 q 118 197 100 97 l 216 696 q 220 719 217 703 q 224 742 223 736 q 228 762 226 749 q 231 781 230 774 q 232 796 231 787 q 232 811 233 805 q 231 823 232 818 q 153 845 228 839 q 155 870 151 852 q 164 895 159 889 q 343 891 220 891 q 553 896 374 891 q 755 901 732 900 q 753 700 753 855 q 722 693 746 693 q 704 704 706 693 q 692 758 699 736 q 674 800 686 779 q 642 831 662 821 q 594 841 622 841 l 490 841 q 423 825 433 841 q 418 814 420 820 q 414 799 416 808 q 410 784 412 790 q 406 764 409 779 q 401 742 403 749 l 354 499 q 360 492 353 495 q 380 486 368 488 q 406 484 392 484 l 472 484 q 552 502 528 484 q 602 579 576 519 q 618 590 606 590 q 642 583 637 590 l 591 323 q 567 317 586 317 q 552 328 552 317 q 524 411 549 398 q 430 420 505 420 q 335 401 338 420 l 294 191 q 283 84 279 103 q 309 64 286 71 q 359 57 332 57 l 444 57 q 570 102 519 57 q 662 231 610 137 q 682 239 666 239 q 704 236 692 239 q 718 231 715 233 q 694 186 715 226 q 666 132 673 146 q 644 86 659 117 q 620 35 629 56 q 605 -3 611 14 q 466 -57 534 -3 q 397 -165 397 -111 q 409 -201 397 -190 q 446 -212 420 -212 q 485 -204 466 -212 q 514 -190 504 -197 q 535 -173 524 -182 q 547 -163 546 -163 q 553 -180 553 -165 q 551 -198 553 -195 q 483 -267 527 -239 q 396 -296 438 -296 q 337 -271 359 -296 q 315 -217 315 -247 z "},"":{"ha":534,"x_min":22,"x_max":514,"o":"m 197 307 q 243 324 216 307 q 294 368 270 341 q 336 433 319 395 q 353 506 353 470 q 346 547 353 535 q 317 559 338 559 q 272 530 294 559 q 235 458 250 500 q 210 376 220 416 q 197 307 199 335 m 84 -217 q 94 -161 84 -189 q 124 -103 103 -133 q 159 -55 144 -73 q 202 -5 174 -37 q 178 -8 193 -8 q 63 44 105 -8 q 22 190 22 96 q 53 340 22 263 q 134 475 85 416 q 244 571 182 534 q 363 609 307 609 q 416 603 391 609 q 464 583 441 596 q 500 544 487 569 q 514 484 514 518 q 476 390 514 435 q 385 317 438 345 q 279 272 331 288 q 193 255 227 255 q 190 221 190 247 q 194 181 190 200 q 206 144 197 163 q 231 115 214 126 q 273 104 248 104 q 293 107 282 104 q 314 115 304 110 q 334 126 324 120 q 354 140 345 132 q 371 154 363 147 q 386 168 379 161 q 397 180 393 175 q 406 189 401 184 l 410 193 q 424 177 418 193 q 430 152 430 161 q 345 72 415 127 q 217 -51 268 12 q 167 -165 167 -113 q 178 -201 167 -190 q 216 -212 190 -212 q 254 -204 235 -212 q 283 -190 273 -197 q 304 -173 294 -182 q 316 -163 315 -163 q 322 -180 322 -165 q 320 -198 323 -195 q 252 -267 296 -239 q 165 -296 208 -296 q 106 -271 128 -296 q 84 -217 84 -247 z "},"":{"ha":776,"x_min":-14,"x_max":755,"o":"m 498 986 q 483 1000 494 986 q 418 1080 460 1030 q 353 1154 376 1131 q 369 1176 356 1172 q 436 1143 382 1173 q 517 1095 490 1114 q 614 1143 550 1114 q 694 1176 677 1172 q 702 1167 699 1174 q 704 1154 705 1160 q 517 1000 568 1048 q 498 986 503 986 m 343 891 q 553 896 374 891 q 755 901 732 900 q 753 700 753 855 q 722 693 746 693 q 704 704 706 693 q 692 758 699 736 q 674 800 686 779 q 642 831 662 821 q 594 841 622 841 l 490 841 q 423 825 433 841 q 418 814 420 820 q 414 799 416 808 q 410 784 412 790 q 406 764 409 779 q 401 742 403 749 l 354 499 q 360 492 353 495 q 380 486 368 488 q 406 484 392 484 l 472 484 q 552 502 528 484 q 602 579 576 519 q 618 590 606 590 q 642 583 637 590 l 591 323 q 567 317 586 317 q 552 328 552 317 q 524 411 549 398 q 430 420 505 420 q 335 401 338 420 l 294 191 q 283 84 279 103 q 309 64 286 71 q 359 57 332 57 l 444 57 q 570 102 519 57 q 662 231 610 137 q 682 239 666 239 q 704 236 692 239 q 718 231 715 233 q 694 186 715 226 q 666 132 673 146 q 644 86 659 117 q 620 35 629 56 q 605 -3 611 14 q 163 -3 333 -3 q -11 -4 5 -3 q -11 21 -14 2 q -1 46 -7 39 q 84 69 75 52 q 118 197 100 97 l 216 696 q 220 719 217 703 q 224 742 223 736 q 228 762 226 749 q 231 781 230 774 q 232 796 231 787 q 232 811 233 805 q 231 823 232 818 q 153 845 228 839 q 155 870 151 852 q 164 895 159 889 q 343 891 220 891 z "},"":{"ha":534,"x_min":22,"x_max":538,"o":"m 352 681 q 337 694 344 681 q 296 772 318 732 q 256 842 273 812 q 237 878 239 872 q 253 909 242 905 q 372 800 332 844 q 456 861 404 825 q 531 909 509 897 q 537 897 535 907 q 536 878 538 888 q 370 694 477 818 q 352 681 358 681 m 363 609 q 416 603 391 609 q 464 583 441 596 q 500 544 487 569 q 514 484 514 518 q 476 390 514 435 q 385 317 438 345 q 279 272 331 288 q 193 255 227 255 q 190 221 190 247 q 194 181 190 200 q 206 144 197 163 q 231 115 214 126 q 273 104 248 104 q 293 107 282 104 q 314 115 304 110 q 334 126 324 120 q 354 140 345 132 q 371 154 363 147 q 386 168 379 161 q 397 180 393 175 q 406 189 401 184 l 410 193 q 424 177 418 193 q 430 152 430 161 q 394 114 422 140 q 330 61 366 88 q 250 13 293 33 q 178 -8 208 -8 q 63 44 105 -8 q 22 190 22 96 q 53 340 22 263 q 134 475 85 416 q 244 571 182 534 q 363 609 307 609 m 197 307 q 243 324 216 307 q 294 368 270 341 q 336 433 319 395 q 353 506 353 470 q 317 559 353 559 q 272 530 294 559 q 235 458 250 500 q 210 376 220 416 q 197 307 199 335 z "},"":{"ha":920,"x_min":71,"x_max":900,"o":"m 650 1176 q 665 1162 654 1176 q 730 1082 688 1132 q 795 1008 772 1031 q 779 986 791 990 q 711 1019 766 989 q 631 1067 657 1048 q 534 1019 597 1048 q 453 986 470 990 q 446 995 449 988 q 444 1008 443 1002 q 631 1162 580 1114 q 650 1176 644 1176 m 601 905 q 865 865 692 905 q 858 768 865 854 q 848 670 850 682 q 838 657 846 663 q 818 651 829 651 q 802 656 806 651 q 795 697 801 675 q 775 746 789 719 q 740 795 761 773 q 682 831 718 817 q 601 846 646 846 q 473 810 534 846 q 367 712 412 774 q 293 559 321 650 q 266 363 266 468 q 272 283 266 323 q 296 199 279 242 q 337 124 313 157 q 403 71 362 92 q 495 50 444 50 q 572 68 548 50 q 586 91 583 75 q 593 129 588 100 q 606 199 598 157 q 618 266 614 240 q 625 335 627 307 q 614 355 625 347 q 588 366 604 363 q 562 371 572 370 q 543 372 551 372 q 540 383 540 373 q 544 406 541 393 q 552 422 548 418 q 614 419 572 421 q 688 415 655 416 q 750 414 722 414 q 798 415 774 414 q 852 419 823 416 q 899 422 882 421 q 896 390 900 409 q 888 372 892 372 q 858 366 880 372 q 825 354 836 361 q 811 332 819 350 q 799 296 803 315 q 768 133 772 157 q 767 111 766 126 q 768 94 768 96 q 749 70 766 83 q 718 49 733 56 q 598 5 658 20 q 457 -9 539 -9 q 316 13 380 -9 q 207 73 251 35 q 131 161 162 111 q 85 264 100 210 q 71 374 71 319 q 102 559 71 473 q 188 708 134 646 q 310 815 241 770 q 454 883 379 861 q 601 905 528 905 z "},"":{"ha":602,"x_min":-77,"x_max":617,"o":"m 363 921 q 378 907 372 921 q 420 830 397 870 q 459 760 442 789 q 479 724 476 730 q 463 693 473 697 q 344 802 384 758 q 259 741 312 777 q 184 693 207 705 q 179 705 180 695 q 179 724 177 714 q 346 907 239 784 q 363 921 357 921 m 372 -153 q 332 -99 372 -127 q 249 -52 293 -71 q 156 -19 204 -34 q 99 -61 117 -39 q 80 -114 80 -83 q 124 -209 80 -176 q 233 -241 168 -241 q 293 -232 262 -241 q 348 -202 323 -223 q 372 -153 372 -181 m 319 568 q 262 540 288 570 q 225 467 237 510 q 210 376 212 423 q 222 282 208 320 q 270 241 235 243 q 345 292 313 239 q 380 410 378 345 q 379 461 381 436 q 370 512 376 487 q 351 552 364 536 q 319 568 338 568 m 494 534 q 497 530 494 534 q 502 523 500 526 q 508 513 505 519 q 515 499 512 506 q 521 484 517 493 q 527 465 524 475 q 530 444 529 456 q 532 419 532 431 q 512 334 532 374 q 462 266 493 294 q 402 219 431 237 q 345 190 373 201 q 307 178 336 186 q 267 163 279 170 q 255 142 255 155 q 281 120 255 132 q 346 94 308 108 q 422 62 384 81 q 486 14 460 44 q 513 -54 513 -16 q 411 -230 513 -153 q 164 -307 309 -307 q -11 -261 55 -307 q -77 -149 -77 -216 q -65 -101 -77 -123 q -36 -64 -54 -79 q 6 -36 -19 -49 q 51 -15 31 -22 q 95 1 71 -7 q 107 5 103 4 q 46 38 56 28 q 40 43 44 40 q 34 49 36 47 q 30 55 33 51 q 27 63 28 58 q 26 76 26 68 q 98 141 26 100 q 222 195 170 183 q 103 258 150 214 q 56 376 56 302 q 129 549 56 476 q 302 621 202 621 q 431 589 357 621 q 461 590 437 586 q 514 602 486 595 q 548 609 543 608 q 591 587 565 604 q 617 559 617 570 q 610 543 617 551 q 595 534 603 534 l 494 534 z "},"":{"ha":920,"x_min":71,"x_max":900,"o":"m 624 1062 q 695 1084 661 1062 q 747 1147 730 1106 q 753 1152 747 1152 q 766 1145 759 1152 q 772 1134 772 1139 q 770 1129 772 1133 q 769 1123 769 1124 q 703 1027 749 1067 q 606 987 656 987 q 524 1027 555 987 q 496 1124 493 1066 q 497 1129 496 1126 q 498 1134 498 1133 q 508 1145 498 1139 q 524 1152 517 1152 q 528 1147 528 1152 q 554 1083 528 1105 q 624 1062 580 1062 m 601 905 q 865 865 692 905 q 858 768 865 854 q 848 670 850 682 q 838 657 846 663 q 818 651 829 651 q 802 656 806 651 q 795 697 801 675 q 775 746 789 719 q 740 795 761 773 q 682 831 718 817 q 601 846 646 846 q 473 810 534 846 q 367 712 412 774 q 293 559 321 650 q 266 363 266 468 q 272 283 266 323 q 296 199 279 242 q 337 124 313 157 q 403 71 362 92 q 495 50 444 50 q 572 68 548 50 q 586 91 583 75 q 593 129 588 100 q 606 199 598 157 q 618 266 614 240 q 625 335 627 307 q 614 355 625 347 q 588 366 604 363 q 562 371 572 370 q 543 372 551 372 q 540 383 540 373 q 544 406 541 393 q 552 422 548 418 q 614 419 572 421 q 688 415 655 416 q 750 414 722 414 q 798 415 774 414 q 852 419 823 416 q 899 422 882 421 q 896 390 900 409 q 888 372 892 372 q 858 366 880 372 q 825 354 836 361 q 811 332 819 350 q 799 296 803 315 q 768 133 772 157 q 767 111 766 126 q 768 94 768 96 q 749 70 766 83 q 718 49 733 56 q 598 5 658 20 q 457 -9 539 -9 q 316 13 380 -9 q 207 73 251 35 q 131 161 162 111 q 85 264 100 210 q 71 374 71 319 q 102 559 71 473 q 188 708 134 646 q 310 815 241 770 q 454 883 379 861 q 601 905 528 905 z "},"":{"ha":602,"x_min":-77,"x_max":617,"o":"m 338 769 q 412 790 378 769 q 464 853 446 812 q 469 857 464 857 q 482 851 475 857 q 488 840 489 844 q 487 834 488 839 q 486 829 486 830 q 419 733 466 773 q 323 693 372 693 q 241 732 272 693 q 213 830 210 772 q 214 835 213 831 q 214 840 214 839 q 224 851 215 844 q 240 857 234 857 q 244 853 244 857 q 273 791 245 812 q 338 769 302 769 m 372 -153 q 332 -99 372 -127 q 249 -52 293 -71 q 156 -19 204 -34 q 99 -61 117 -39 q 80 -114 80 -83 q 124 -209 80 -176 q 233 -241 168 -241 q 293 -232 262 -241 q 348 -202 323 -223 q 372 -153 372 -181 m 319 568 q 262 540 288 570 q 225 467 237 510 q 210 376 212 423 q 222 282 208 320 q 270 241 235 243 q 345 292 313 239 q 380 410 378 345 q 379 461 381 436 q 370 512 376 487 q 351 552 364 536 q 319 568 338 568 m 494 534 q 497 530 494 534 q 502 523 500 526 q 508 513 505 519 q 515 499 512 506 q 521 484 517 493 q 527 465 524 475 q 530 444 529 456 q 532 419 532 431 q 512 334 532 374 q 462 266 493 294 q 402 219 431 237 q 345 190 373 201 q 307 178 336 186 q 267 163 279 170 q 255 142 255 155 q 281 120 255 132 q 346 94 308 108 q 422 62 384 81 q 486 14 460 44 q 513 -54 513 -16 q 411 -230 513 -153 q 164 -307 309 -307 q -11 -261 55 -307 q -77 -149 -77 -216 q -65 -101 -77 -123 q -36 -64 -54 -79 q 6 -36 -19 -49 q 51 -15 31 -22 q 95 1 71 -7 q 107 5 103 4 q 46 38 56 28 q 40 43 44 40 q 34 49 36 47 q 30 55 33 51 q 27 63 28 58 q 26 76 26 68 q 98 141 26 100 q 222 195 170 183 q 103 258 150 214 q 56 376 56 302 q 129 549 56 476 q 302 621 202 621 q 431 589 357 621 q 461 590 437 586 q 514 602 486 595 q 548 609 543 608 q 591 587 565 604 q 617 559 617 570 q 610 543 617 551 q 595 534 603 534 l 494 534 z "},"":{"ha":920,"x_min":71,"x_max":900,"o":"m 534 1019 q 524 1034 534 1019 q 521 1086 513 1048 q 558 1151 528 1124 q 624 1177 589 1177 q 679 1151 659 1177 q 692 1086 699 1124 q 655 1019 684 1048 q 590 990 625 990 q 534 1019 554 990 m 601 905 q 865 865 692 905 q 858 768 865 854 q 848 670 850 682 q 838 657 846 663 q 818 651 829 651 q 802 656 806 651 q 795 697 801 675 q 775 746 789 719 q 740 795 761 773 q 682 831 718 817 q 601 846 646 846 q 473 810 534 846 q 367 712 412 774 q 293 559 321 650 q 266 363 266 468 q 272 283 266 323 q 296 199 279 242 q 337 124 313 157 q 403 71 362 92 q 495 50 444 50 q 572 68 548 50 q 586 91 583 75 q 593 129 588 100 q 606 199 598 157 q 618 266 614 240 q 625 335 627 307 q 614 355 625 347 q 588 366 604 363 q 562 371 572 370 q 543 372 551 372 q 540 383 540 373 q 544 406 541 393 q 552 422 548 418 q 614 419 572 421 q 688 415 655 416 q 750 414 722 414 q 798 415 774 414 q 852 419 823 416 q 899 422 882 421 q 896 390 900 409 q 888 372 892 372 q 858 366 880 372 q 825 354 836 361 q 811 332 819 350 q 799 296 803 315 q 768 133 772 157 q 767 111 766 126 q 768 94 768 96 q 749 70 766 83 q 718 49 733 56 q 598 5 658 20 q 457 -9 539 -9 q 316 13 380 -9 q 207 73 251 35 q 131 161 162 111 q 85 264 100 210 q 71 374 71 319 q 102 559 71 473 q 188 708 134 646 q 310 815 241 770 q 454 883 379 861 q 601 905 528 905 z "},"":{"ha":602,"x_min":-77,"x_max":617,"o":"m 269 733 q 259 748 269 733 q 256 800 249 762 q 294 865 264 838 q 359 891 324 891 q 414 864 394 891 q 427 800 434 838 q 390 733 420 762 q 326 704 361 704 q 269 733 290 704 m 372 -153 q 332 -99 372 -127 q 249 -52 293 -71 q 156 -19 204 -34 q 99 -61 117 -39 q 80 -114 80 -83 q 124 -209 80 -176 q 233 -241 168 -241 q 293 -232 262 -241 q 348 -202 323 -223 q 372 -153 372 -181 m 319 568 q 262 540 288 570 q 225 467 237 510 q 210 376 212 423 q 222 282 208 320 q 270 241 235 243 q 345 292 313 239 q 380 410 378 345 q 379 461 381 436 q 370 512 376 487 q 351 552 364 536 q 319 568 338 568 m 494 534 q 497 530 494 534 q 502 523 500 526 q 508 513 505 519 q 515 499 512 506 q 521 484 517 493 q 527 465 524 475 q 530 444 529 456 q 532 419 532 431 q 512 334 532 374 q 462 266 493 294 q 402 219 431 237 q 345 190 373 201 q 307 178 336 186 q 267 163 279 170 q 255 142 255 155 q 281 120 255 132 q 346 94 308 108 q 422 62 384 81 q 486 14 460 44 q 513 -54 513 -16 q 411 -230 513 -153 q 164 -307 309 -307 q -11 -261 55 -307 q -77 -149 -77 -216 q -65 -101 -77 -123 q -36 -64 -54 -79 q 6 -36 -19 -49 q 51 -15 31 -22 q 95 1 71 -7 q 107 5 103 4 q 46 38 56 28 q 40 43 44 40 q 34 49 36 47 q 30 55 33 51 q 27 63 28 58 q 26 76 26 68 q 98 141 26 100 q 222 195 170 183 q 103 258 150 214 q 56 376 56 302 q 129 549 56 476 q 302 621 202 621 q 431 589 357 621 q 461 590 437 586 q 514 602 486 595 q 548 609 543 608 q 591 587 565 604 q 617 559 617 570 q 610 543 617 551 q 595 534 603 534 l 494 534 z "},"":{"ha":920,"x_min":71,"x_max":900,"o":"m 366 -137 q 381 -107 366 -119 q 421 -88 397 -94 q 470 -79 446 -81 q 521 -76 495 -76 q 537 -140 537 -94 q 505 -205 537 -170 q 433 -265 473 -241 q 361 -296 392 -290 l 357 -296 q 338 -290 349 -296 q 328 -277 328 -283 q 348 -265 328 -276 q 386 -237 367 -254 q 406 -205 406 -220 q 386 -173 406 -191 q 366 -137 366 -156 m 601 905 q 865 865 692 905 q 858 768 865 854 q 848 670 850 682 q 838 657 846 663 q 818 651 829 651 q 802 656 806 651 q 795 697 801 675 q 775 746 789 719 q 740 795 761 773 q 682 831 718 817 q 601 846 646 846 q 473 810 534 846 q 367 712 412 774 q 293 559 321 650 q 266 363 266 468 q 272 283 266 323 q 296 199 279 242 q 337 124 313 157 q 403 71 362 92 q 495 50 444 50 q 572 68 548 50 q 586 91 583 75 q 593 129 588 100 q 606 199 598 157 q 618 266 614 240 q 625 335 627 307 q 614 355 625 347 q 588 366 604 363 q 562 371 572 370 q 543 372 551 372 q 540 383 540 373 q 544 406 541 393 q 552 422 548 418 q 614 419 572 421 q 688 415 655 416 q 750 414 722 414 q 798 415 774 414 q 852 419 823 416 q 899 422 882 421 q 896 390 900 409 q 888 372 892 372 q 858 366 880 372 q 825 354 836 361 q 811 332 819 350 q 799 296 803 315 q 768 133 772 157 q 767 111 766 126 q 768 94 768 96 q 749 70 766 83 q 718 49 733 56 q 598 5 658 20 q 457 -9 539 -9 q 316 13 380 -9 q 207 73 251 35 q 131 161 162 111 q 85 264 100 210 q 71 374 71 319 q 102 559 71 473 q 188 708 134 646 q 310 815 241 770 q 454 883 379 861 q 601 905 528 905 z "}}}
